M48
; DRILL file {KiCad 8.0.7} date 2025-07-01T23:11:29-0400
; FORMAT={-:-/ absolute / metric / decimal}
; #@! TF.CreationDate,2025-07-01T23:11:29-04:00
; #@! TF.GenerationSoftware,Kicad,Pcbnew,8.0.7
; #@! TF.FileFunction,Plated,1,4,PTH
FMAT,2
METRIC
; #@! TA.AperFunction,Plated,PTH,ViaDrill
T1C0.400
; #@! TA.AperFunction,Plated,PTH,ComponentDrill
T2C0.600
; #@! TA.AperFunction,Plated,PTH,ComponentDrill
T3C0.950
; #@! TA.AperFunction,Plated,PTH,ComponentDrill
T4C1.020
; #@! TA.AperFunction,Plated,PTH,ComponentDrill
T5C1.200
; #@! TA.AperFunction,Plated,PTH,ComponentDrill
T6C2.700
; #@! TA.AperFunction,Plated,PTH,ComponentDrill
T7C4.300
%
G90
G05
T1
X103.487Y-131.1
X106.0Y-141.3
X106.62Y-130.1
X109.5Y-105.5
X109.9Y-137.01
X109.9Y-138.28
X110.0Y-90.0
X110.0Y-103.0
X110.0Y-108.0
X110.0Y-135.7
X113.7Y-110.2
X114.325Y-111.6
X115.095Y-110.875
X117.7Y-59.0
X131.7Y-112.562
X132.66Y-124.1
X132.9Y-134.6
X134.05Y-126.0
X134.3Y-136.5
X134.8Y-97.195
X134.8Y-98.5
X134.8Y-99.735
X134.8Y-103.16
X134.8Y-104.465
X134.8Y-105.7
X135.095Y-113.5
X135.1Y-117.9
X135.775Y-126.0
X136.0Y-97.195
X136.0Y-98.5
X136.0Y-99.735
X136.0Y-101.0
X136.0Y-103.16
X136.0Y-104.465
X136.0Y-105.7
X136.0Y-106.9
X136.062Y-136.5
X136.3Y-119.1
X137.0Y-112.4
X139.9Y-112.7
X142.1Y-129.412
X142.1Y-139.95
X145.2Y-112.4
X146.787Y-114.087
X149.9Y-112.8
X152.3Y-107.3
X152.8Y-97.0
X152.8Y-98.8
X152.8Y-100.9
X154.0Y-115.0
X154.0Y-127.1
X154.4Y-131.8
X154.8Y-115.9
X154.8Y-128.4
X155.2Y-112.325
X155.4Y-97.0
X155.4Y-102.6
X158.2Y-97.0
X158.2Y-98.8
X158.2Y-100.8
X158.2Y-102.6
X158.6Y-135.1
X161.0Y-128.3
X161.7Y-96.9
X161.7Y-98.8
X161.7Y-100.8
X161.7Y-102.6
X163.6Y-122.2
X163.6Y-123.2
X164.6Y-127.2
X164.7Y-96.9
X164.8Y-102.6
X166.2Y-122.2
X166.2Y-123.2
X167.8Y-96.9
X167.8Y-98.8
X167.8Y-100.8
X167.9Y-140.8
X168.0Y-143.0
X168.2Y-117.3
X168.2Y-119.0
X168.2Y-120.7
X170.0Y-57.575
X171.9Y-55.0
X172.0Y-64.5
X172.8Y-58.4
X173.106Y-55.306
X174.8Y-116.625
X176.2Y-143.0
X176.8Y-56.8
X176.9Y-59.5
X177.8Y-126.0
X178.2Y-124.6
X178.3Y-58.2
X179.8Y-129.0
X180.2Y-101.9
X180.7Y-81.4
X181.0Y-99.3
X181.5Y-79.0
X181.8Y-59.2
X182.0Y-131.4
X182.2Y-104.3
X182.5Y-134.5
X183.0Y-64.5
X183.2Y-86.6
X183.3Y-115.0
X183.4Y-141.1
X184.5Y-86.615
X184.5Y-115.8
X185.1Y-65.3
X185.1Y-79.725
X185.5Y-130.0
X185.5Y-132.8
X185.9Y-143.2
X186.2Y-96.8
X186.5Y-82.7
X186.5Y-126.65
X187.4Y-99.3
X188.6Y-124.55
X188.6Y-125.6
X188.6Y-130.0
X189.2Y-65.4
X189.8Y-89.2
X189.9Y-84.0
X190.8Y-124.55
X191.005Y-91.695
X192.0Y-70.4
X192.2Y-67.2
X192.2Y-94.3
X193.0Y-124.55
X193.0Y-125.6
X193.7Y-85.3
X195.0Y-126.1
X195.1Y-70.4
X195.2Y-66.4
X196.8Y-128.5
X198.0Y-145.3
T3
X103.25Y-59.9
X104.5Y-68.5
X104.5Y-71.0
X104.5Y-73.5
X104.5Y-76.0
X104.5Y-83.0
X104.5Y-85.5
X104.5Y-88.0
X104.5Y-98.0
X104.5Y-100.5
X104.5Y-103.0
X104.5Y-105.5
X104.5Y-108.0
X104.762Y-116.0
X104.762Y-118.5
X104.762Y-121.0
X105.75Y-59.9
X108.25Y-59.9
X110.75Y-59.9
X189.25Y-59.9
X191.75Y-59.9
X194.25Y-59.9
X196.75Y-59.9
T4
X172.1Y-76.455
X172.1Y-78.995
X172.1Y-81.535
X172.1Y-84.075
X172.1Y-86.615
X172.1Y-89.155
X172.1Y-91.695
X172.1Y-94.235
X172.1Y-96.775
X172.1Y-99.315
X172.1Y-101.855
X172.1Y-104.395
X172.1Y-106.935
X172.1Y-109.475
X172.1Y-112.015
X197.5Y-76.455
X197.5Y-78.995
X197.5Y-81.535
X197.5Y-84.075
X197.5Y-86.615
X197.5Y-89.155
X197.5Y-91.695
X197.5Y-94.235
X197.5Y-96.775
X197.5Y-99.315
X197.5Y-101.855
X197.5Y-104.395
X197.5Y-106.935
X197.5Y-109.475
X197.5Y-112.015
T5
X136.6Y-146.73
X139.1Y-146.73
X141.6Y-146.73
T6
X117.65Y-73.05
X124.85Y-73.05
X134.85Y-93.15
X142.05Y-93.15
X149.9Y-79.0
X149.9Y-84.0
X157.9Y-93.15
X165.1Y-93.15
T7
X150.0Y-58.0
X150.0Y-142.0
T2
X114.5Y-79.6G85X114.5Y-78.5
G05
X128.0Y-79.6G85X128.0Y-78.5
G05
X131.7Y-86.6G85X131.7Y-87.7
G05
X145.2Y-86.6G85X145.2Y-87.7
G05
X154.75Y-86.6G85X154.75Y-87.7
G05
X168.25Y-86.6G85X168.25Y-87.7
G05
M30
