M48
; DRILL file {KiCad 7.0.6} date Fri Dec  8 17:53:41 2023
; FORMAT={-:-/ absolute / metric / decimal}
; #@! TF.CreationDate,2023-12-08T17:53:41-05:00
; #@! TF.GenerationSoftware,Kicad,Pcbnew,7.0.6
; #@! TF.FileFunction,Plated,1,4,PTH
FMAT,2
METRIC
; #@! TA.AperFunction,Plated,PTH,ViaDrill
T1C0.400
; #@! TA.AperFunction,Plated,PTH,ComponentDrill
T2C0.600
; #@! TA.AperFunction,Plated,PTH,ComponentDrill
T3C0.950
; #@! TA.AperFunction,Plated,PTH,ComponentDrill
T4C1.020
; #@! TA.AperFunction,Plated,PTH,ComponentDrill
T5C1.200
; #@! TA.AperFunction,Plated,PTH,ComponentDrill
T6C2.700
; #@! TA.AperFunction,Plated,PTH,ComponentDrill
T7C4.300
%
G90
G05
T1
X109.5Y-105.5
X110.0Y-90.0
X110.0Y-103.0
X110.0Y-108.0
X114.1Y-53.9
X114.1Y-55.3
X114.1Y-58.8
X114.1Y-60.7
X114.1Y-64.0
X114.1Y-65.4
X115.5Y-53.9
X115.5Y-55.3
X115.5Y-58.8
X115.5Y-60.7
X115.5Y-64.0
X115.5Y-65.4
X117.2Y-52.9
X117.3Y-66.7
X118.6Y-142.6
X118.7Y-52.9
X118.8Y-66.7
X120.3Y-52.9
X120.4Y-66.7
X121.5Y-144.0
X121.95Y-105.45
X124.0Y-131.5
X124.0Y-142.6
X125.0Y-55.7
X125.0Y-57.4
X125.0Y-59.0
X125.1Y-62.6
X125.1Y-63.9
X125.1Y-65.2
X126.2Y-62.6
X126.2Y-63.9
X126.2Y-65.2
X126.2Y-105.6
X126.3Y-55.7
X126.3Y-57.4
X126.3Y-59.0
X126.924Y-106.8
X127.3Y-62.6
X127.3Y-63.9
X127.3Y-65.2
X127.4Y-59.0
X127.5Y-55.7
X127.5Y-57.4
X127.907Y-105.924
X128.6Y-60.8
X129.2Y-102.1
X129.2Y-111.6
X129.4Y-125.0
X129.4Y-126.8
X130.2Y-106.825
X130.2Y-124.0
X130.8Y-131.4
X131.0Y-114.0
X134.0Y-133.8
X134.8Y-111.6
X135.0Y-128.8
X140.4Y-112.7
X140.4Y-130.0
X140.9Y-135.9
X141.0Y-134.4
X141.2Y-117.0
X141.4Y-112.7
X141.6Y-130.0
X142.0Y-52.7
X145.0Y-98.3
X145.0Y-100.2
X145.0Y-102.2
X145.9Y-99.2
X145.9Y-101.2
X146.8Y-98.3
X146.8Y-100.3
X146.8Y-102.2
X150.6Y-107.2
X150.6Y-127.5
X151.6Y-111.6
X151.7Y-131.8
X152.8Y-97.0
X152.8Y-98.8
X152.8Y-100.9
X153.576Y-116.3
X154.325Y-117.0
X154.4Y-131.8
X154.8Y-126.2
X154.8Y-128.4
X155.4Y-97.0
X155.4Y-102.6
X155.5Y-135.2
X158.2Y-97.0
X158.2Y-98.8
X158.2Y-100.8
X158.2Y-102.6
X159.0Y-117.2
X159.0Y-118.4
X159.0Y-119.6
X159.0Y-121.0
X161.0Y-122.6
X161.0Y-123.6
X161.0Y-128.3
X161.7Y-96.9
X161.7Y-98.8
X161.7Y-100.8
X161.7Y-102.6
X162.0Y-145.6
X162.2Y-131.4
X162.3Y-142.841
X162.3Y-143.77
X162.3Y-144.7
X162.8Y-141.8
X163.6Y-122.6
X163.6Y-123.6
X163.6Y-141.0
X164.5Y-142.9
X164.5Y-143.8
X164.5Y-144.7
X164.6Y-127.2
X164.6Y-140.8
X164.7Y-96.9
X164.8Y-102.6
X164.8Y-145.6
X166.2Y-122.6
X166.2Y-123.6
X167.4Y-137.0
X167.8Y-96.9
X167.8Y-98.8
X167.8Y-100.8
X167.9Y-140.8
X168.2Y-117.2
X168.2Y-118.4
X168.2Y-119.6
X168.2Y-121.0
X170.3Y-51.0
X171.6Y-55.0
X172.8Y-58.4
X174.8Y-127.4
X176.2Y-143.0
X176.8Y-56.8
X176.9Y-58.2
X176.9Y-59.5
X178.0Y-127.0
X178.2Y-124.6
X178.9Y-82.1
X180.2Y-102.0
X180.4Y-100.0
X181.5Y-80.4
X181.8Y-59.2
X181.875Y-129.5
X182.2Y-104.3
X182.224Y-88.2
X182.6Y-136.4
X183.3Y-114.7
X183.4Y-79.8
X183.4Y-141.1
X184.4Y-124.5
X184.5Y-115.8
X185.8Y-85.3
X186.5Y-82.7
X187.287Y-96.987
X187.4Y-100.015
X187.5Y-130.0
X188.7Y-121.3
X189.2Y-65.4
X189.7Y-130.0
X189.8Y-85.0
X189.8Y-89.2
X191.5Y-130.0
X192.2Y-67.2
X192.2Y-122.1
X195.2Y-66.4
X197.9Y-124.7
T3
X103.25Y-59.9
X104.5Y-68.5
X104.5Y-71.0
X104.5Y-73.5
X104.5Y-76.0
X104.5Y-83.0
X104.5Y-85.5
X104.5Y-88.0
X104.5Y-98.0
X104.5Y-100.5
X104.5Y-103.0
X104.5Y-105.5
X104.5Y-108.0
X104.762Y-116.0
X104.762Y-118.5
X104.762Y-121.0
X105.75Y-59.9
X108.25Y-59.9
X110.75Y-59.9
X189.25Y-59.9
X191.75Y-59.9
X194.25Y-59.9
X196.75Y-59.9
T4
X172.1Y-76.455
X172.1Y-78.995
X172.1Y-81.535
X172.1Y-84.075
X172.1Y-86.615
X172.1Y-89.155
X172.1Y-91.695
X172.1Y-94.235
X172.1Y-96.775
X172.1Y-99.315
X172.1Y-101.855
X172.1Y-104.395
X172.1Y-106.935
X172.1Y-109.475
X172.1Y-112.015
X197.5Y-76.455
X197.5Y-78.995
X197.5Y-81.535
X197.5Y-84.075
X197.5Y-86.615
X197.5Y-89.155
X197.5Y-91.695
X197.5Y-94.235
X197.5Y-96.775
X197.5Y-99.315
X197.5Y-101.855
X197.5Y-104.395
X197.5Y-106.935
X197.5Y-109.475
X197.5Y-112.015
T5
X136.6Y-146.73
X139.1Y-146.73
X141.6Y-146.73
T6
X117.65Y-73.05
X124.85Y-73.05
X134.85Y-93.15
X142.05Y-93.15
X149.9Y-79.0
X149.9Y-84.0
X157.9Y-93.15
X165.1Y-93.15
T7
X150.0Y-58.0
X150.0Y-142.0
T2
X114.5Y-79.6G85X114.5Y-78.5
G05
X128.0Y-79.6G85X128.0Y-78.5
G05
X131.7Y-86.6G85X131.7Y-87.7
G05
X145.2Y-86.6G85X145.2Y-87.7
G05
X154.75Y-86.6G85X154.75Y-87.7
G05
X168.25Y-86.6G85X168.25Y-87.7
G05
T0
M30
