G04 #@! TF.GenerationSoftware,KiCad,Pcbnew,7.0.6*
G04 #@! TF.CreationDate,2023-12-08T17:53:02-05:00*
G04 #@! TF.ProjectId,LED_Snowboard_V4,4c45445f-536e-46f7-9762-6f6172645f56,rev?*
G04 #@! TF.SameCoordinates,Original*
G04 #@! TF.FileFunction,Paste,Top*
G04 #@! TF.FilePolarity,Positive*
%FSLAX46Y46*%
G04 Gerber Fmt 4.6, Leading zero omitted, Abs format (unit mm)*
G04 Created by KiCad (PCBNEW 7.0.6) date 2023-12-08 17:53:02*
%MOMM*%
%LPD*%
G01*
G04 APERTURE LIST*
G04 Aperture macros list*
%AMRoundRect*
0 Rectangle with rounded corners*
0 $1 Rounding radius*
0 $2 $3 $4 $5 $6 $7 $8 $9 X,Y pos of 4 corners*
0 Add a 4 corners polygon primitive as box body*
4,1,4,$2,$3,$4,$5,$6,$7,$8,$9,$2,$3,0*
0 Add four circle primitives for the rounded corners*
1,1,$1+$1,$2,$3*
1,1,$1+$1,$4,$5*
1,1,$1+$1,$6,$7*
1,1,$1+$1,$8,$9*
0 Add four rect primitives between the rounded corners*
20,1,$1+$1,$2,$3,$4,$5,0*
20,1,$1+$1,$4,$5,$6,$7,0*
20,1,$1+$1,$6,$7,$8,$9,0*
20,1,$1+$1,$8,$9,$2,$3,0*%
G04 Aperture macros list end*
%ADD10RoundRect,0.237500X0.237500X-0.250000X0.237500X0.250000X-0.237500X0.250000X-0.237500X-0.250000X0*%
%ADD11RoundRect,0.237500X0.300000X0.237500X-0.300000X0.237500X-0.300000X-0.237500X0.300000X-0.237500X0*%
%ADD12RoundRect,0.237500X0.250000X0.237500X-0.250000X0.237500X-0.250000X-0.237500X0.250000X-0.237500X0*%
%ADD13RoundRect,0.237500X-0.300000X-0.237500X0.300000X-0.237500X0.300000X0.237500X-0.300000X0.237500X0*%
%ADD14RoundRect,0.225000X0.225000X0.375000X-0.225000X0.375000X-0.225000X-0.375000X0.225000X-0.375000X0*%
%ADD15R,1.000000X1.050000*%
%ADD16R,1.050000X2.200000*%
%ADD17R,1.980000X4.200000*%
%ADD18RoundRect,0.162500X1.462500X1.552500X-1.462500X1.552500X-1.462500X-1.552500X1.462500X-1.552500X0*%
%ADD19RoundRect,0.237500X-0.287500X-0.237500X0.287500X-0.237500X0.287500X0.237500X-0.287500X0.237500X0*%
%ADD20RoundRect,0.250000X0.300000X-2.050000X0.300000X2.050000X-0.300000X2.050000X-0.300000X-2.050000X0*%
%ADD21RoundRect,0.250000X2.375000X-2.025000X2.375000X2.025000X-2.375000X2.025000X-2.375000X-2.025000X0*%
%ADD22RoundRect,0.112500X-0.187500X-0.112500X0.187500X-0.112500X0.187500X0.112500X-0.187500X0.112500X0*%
%ADD23RoundRect,0.250000X0.350000X-0.850000X0.350000X0.850000X-0.350000X0.850000X-0.350000X-0.850000X0*%
%ADD24RoundRect,0.250000X1.125000X-1.275000X1.125000X1.275000X-1.125000X1.275000X-1.125000X-1.275000X0*%
%ADD25RoundRect,0.237500X-0.237500X0.250000X-0.237500X-0.250000X0.237500X-0.250000X0.237500X0.250000X0*%
%ADD26RoundRect,0.237500X0.237500X-0.300000X0.237500X0.300000X-0.237500X0.300000X-0.237500X-0.300000X0*%
%ADD27RoundRect,0.237500X-0.250000X-0.237500X0.250000X-0.237500X0.250000X0.237500X-0.250000X0.237500X0*%
%ADD28R,0.600000X0.900000*%
%ADD29R,0.900000X0.600000*%
%ADD30RoundRect,0.125000X-0.400000X0.175000X-0.400000X-0.175000X0.400000X-0.175000X0.400000X0.175000X0*%
%ADD31RoundRect,0.150000X-0.512500X-0.150000X0.512500X-0.150000X0.512500X0.150000X-0.512500X0.150000X0*%
%ADD32RoundRect,0.112500X0.112500X-0.187500X0.112500X0.187500X-0.112500X0.187500X-0.112500X-0.187500X0*%
%ADD33RoundRect,0.112500X-0.112500X0.187500X-0.112500X-0.187500X0.112500X-0.187500X0.112500X0.187500X0*%
%ADD34RoundRect,0.075000X-0.350000X-0.075000X0.350000X-0.075000X0.350000X0.075000X-0.350000X0.075000X0*%
%ADD35RoundRect,0.075000X0.075000X-0.350000X0.075000X0.350000X-0.075000X0.350000X-0.075000X-0.350000X0*%
%ADD36RoundRect,0.090000X-0.895000X-0.210000X0.895000X-0.210000X0.895000X0.210000X-0.895000X0.210000X0*%
%ADD37R,1.495000X0.700000*%
%ADD38R,1.495000X2.950000*%
%ADD39RoundRect,0.011200X0.723800X0.128800X-0.723800X0.128800X-0.723800X-0.128800X0.723800X-0.128800X0*%
%ADD40RoundRect,0.150000X0.825000X0.150000X-0.825000X0.150000X-0.825000X-0.150000X0.825000X-0.150000X0*%
%ADD41RoundRect,0.112500X0.187500X0.112500X-0.187500X0.112500X-0.187500X-0.112500X0.187500X-0.112500X0*%
%ADD42RoundRect,0.200000X-0.700000X-0.200000X0.700000X-0.200000X0.700000X0.200000X-0.700000X0.200000X0*%
%ADD43RoundRect,0.150000X-0.825000X-0.150000X0.825000X-0.150000X0.825000X0.150000X-0.825000X0.150000X0*%
%ADD44R,0.700000X1.200000*%
%ADD45R,1.000000X0.800000*%
%ADD46R,1.000000X1.200000*%
%ADD47R,1.000000X2.800000*%
%ADD48R,1.300000X1.900000*%
G04 APERTURE END LIST*
D10*
X193500000Y-65412500D03*
X193500000Y-63587500D03*
D11*
X160362500Y-127000000D03*
X158637500Y-127000000D03*
X139262500Y-136925000D03*
X137537500Y-136925000D03*
D12*
X171912500Y-53500000D03*
X170087500Y-53500000D03*
D13*
X154637500Y-134000000D03*
X156362500Y-134000000D03*
D14*
X113600000Y-137040000D03*
X110300000Y-137040000D03*
D15*
X163400000Y-146350000D03*
D16*
X164875000Y-147875000D03*
X161925000Y-147875000D03*
D17*
X136775000Y-125925000D03*
X139925000Y-125925000D03*
D18*
X164775000Y-99900000D03*
X155425000Y-99900000D03*
D19*
X137475000Y-112650000D03*
X139225000Y-112650000D03*
D12*
X171912500Y-60000000D03*
X170087500Y-60000000D03*
D11*
X133287500Y-106000000D03*
X131562500Y-106000000D03*
D20*
X161035000Y-119025000D03*
X163575000Y-119025000D03*
D21*
X160800000Y-112300000D03*
X166350000Y-112300000D03*
X160800000Y-107450000D03*
X166350000Y-107450000D03*
D20*
X166115000Y-119025000D03*
D22*
X151950000Y-130000000D03*
X154050000Y-130000000D03*
D12*
X127212500Y-60200000D03*
X125387500Y-60200000D03*
D23*
X143095000Y-132900000D03*
D24*
X143850000Y-128275000D03*
X146900000Y-128275000D03*
X143850000Y-124925000D03*
X146900000Y-124925000D03*
D23*
X147655000Y-132900000D03*
D25*
X196500000Y-63587500D03*
X196500000Y-65412500D03*
D13*
X118087500Y-144040000D03*
X119812500Y-144040000D03*
D26*
X161000000Y-131362500D03*
X161000000Y-129637500D03*
D14*
X113450000Y-132040000D03*
X110150000Y-132040000D03*
D27*
X143087500Y-52600000D03*
X144912500Y-52600000D03*
D11*
X132925000Y-111650000D03*
X131200000Y-111650000D03*
D12*
X127212500Y-52700000D03*
X125387500Y-52700000D03*
D22*
X184450000Y-126000000D03*
X186550000Y-126000000D03*
D11*
X139075000Y-119375000D03*
X137350000Y-119375000D03*
D25*
X190500000Y-63587500D03*
X190500000Y-65412500D03*
D28*
X120650000Y-57500000D03*
X120650000Y-56350000D03*
X120650000Y-55200000D03*
X119800000Y-57500000D03*
X119800000Y-56350000D03*
X119800000Y-55200000D03*
X118950000Y-57500000D03*
X118950000Y-56350000D03*
X118950000Y-55200000D03*
X118100000Y-57500000D03*
X118100000Y-56350000D03*
X118100000Y-55200000D03*
D29*
X117100000Y-58255000D03*
X117100000Y-56985000D03*
X117100000Y-55715000D03*
X117100000Y-54445000D03*
D30*
X122825000Y-58255000D03*
X122825000Y-56985000D03*
X122825000Y-55715000D03*
X122825000Y-54445000D03*
D17*
X136775000Y-108650000D03*
X139925000Y-108650000D03*
D11*
X159862500Y-134000000D03*
X158137500Y-134000000D03*
D14*
X140000000Y-115150000D03*
X136700000Y-115150000D03*
D27*
X111037500Y-134040000D03*
X112862500Y-134040000D03*
D28*
X120600000Y-64350000D03*
X120600000Y-63200000D03*
X120600000Y-62050000D03*
X119750000Y-64350000D03*
X119750000Y-63200000D03*
X119750000Y-62050000D03*
X118900000Y-64350000D03*
X118900000Y-63200000D03*
X118900000Y-62050000D03*
X118050000Y-64350000D03*
X118050000Y-63200000D03*
X118050000Y-62050000D03*
D29*
X117050000Y-65105000D03*
X117050000Y-63835000D03*
X117050000Y-62565000D03*
X117050000Y-61295000D03*
D30*
X122775000Y-65105000D03*
X122775000Y-63835000D03*
X122775000Y-62565000D03*
X122775000Y-61295000D03*
D26*
X129925000Y-116650000D03*
X129925000Y-114925000D03*
D27*
X170087500Y-63000000D03*
X171912500Y-63000000D03*
X120587500Y-131540000D03*
X122412500Y-131540000D03*
D22*
X188450000Y-126000000D03*
X190550000Y-126000000D03*
D26*
X131925000Y-116650000D03*
X131925000Y-114925000D03*
D31*
X131075000Y-107750000D03*
X131075000Y-108700000D03*
X131075000Y-109650000D03*
X133350000Y-109650000D03*
X133350000Y-108700000D03*
X133350000Y-107750000D03*
D13*
X174775000Y-126000000D03*
X176500000Y-126000000D03*
D32*
X180600000Y-84150000D03*
X180600000Y-82050000D03*
D11*
X133212500Y-122925000D03*
X131487500Y-122925000D03*
D19*
X137475000Y-129925000D03*
X139225000Y-129925000D03*
D14*
X113600000Y-142040000D03*
X110300000Y-142040000D03*
D32*
X155100000Y-113900000D03*
X155100000Y-111800000D03*
D27*
X137487500Y-134925000D03*
X139312500Y-134925000D03*
D33*
X180500000Y-127450000D03*
X180500000Y-129550000D03*
D32*
X153000000Y-113900000D03*
X153000000Y-111800000D03*
D31*
X131212500Y-124975000D03*
X131212500Y-125925000D03*
X131212500Y-126875000D03*
X133487500Y-126875000D03*
X133487500Y-125925000D03*
X133487500Y-124975000D03*
D11*
X124812500Y-144040000D03*
X123087500Y-144040000D03*
D10*
X190500000Y-69412500D03*
X190500000Y-67587500D03*
D27*
X111125000Y-139040000D03*
X112950000Y-139040000D03*
D34*
X155550000Y-129250000D03*
X155550000Y-129750000D03*
X155550000Y-130250000D03*
X155550000Y-130750000D03*
X155550000Y-131250000D03*
X155550000Y-131750000D03*
D35*
X156250000Y-132450000D03*
X156750000Y-132450000D03*
X157250000Y-132450000D03*
X157750000Y-132450000D03*
X158250000Y-132450000D03*
X158750000Y-132450000D03*
D34*
X159450000Y-131750000D03*
X159450000Y-131250000D03*
X159450000Y-130750000D03*
X159450000Y-130250000D03*
X159450000Y-129750000D03*
X159450000Y-129250000D03*
D35*
X158750000Y-128550000D03*
X158250000Y-128550000D03*
X157750000Y-128550000D03*
X157250000Y-128550000D03*
X156750000Y-128550000D03*
X156250000Y-128550000D03*
D27*
X183087500Y-59500000D03*
X184912500Y-59500000D03*
D36*
X175000000Y-54150000D03*
X175000000Y-55420000D03*
X175000000Y-56690000D03*
X175000000Y-57960000D03*
X175000000Y-59230000D03*
X175000000Y-60500000D03*
X175000000Y-61770000D03*
X179950000Y-61770000D03*
X179950000Y-60500000D03*
X179950000Y-59230000D03*
X179950000Y-57960000D03*
X179950000Y-56690000D03*
X179950000Y-55420000D03*
X179950000Y-54150000D03*
D11*
X152325000Y-106000000D03*
X150600000Y-106000000D03*
D14*
X140000000Y-132425000D03*
X136700000Y-132425000D03*
D27*
X110950000Y-144040000D03*
X112775000Y-144040000D03*
X170087500Y-56500000D03*
X171912500Y-56500000D03*
D32*
X180500000Y-138600000D03*
X180500000Y-136500000D03*
D26*
X131850000Y-133925000D03*
X131850000Y-132200000D03*
D37*
X151052500Y-102125000D03*
D38*
X151052500Y-99800000D03*
X148947500Y-99800000D03*
D37*
X148947500Y-102125000D03*
D33*
X191300000Y-80850000D03*
X191300000Y-82950000D03*
D26*
X129850000Y-133925000D03*
X129850000Y-132200000D03*
D22*
X151900000Y-127500000D03*
X154000000Y-127500000D03*
D25*
X109500000Y-96500000D03*
X109500000Y-98325000D03*
D39*
X154750000Y-110000000D03*
X154750000Y-109500000D03*
X154750000Y-109000000D03*
X154750000Y-108500000D03*
X154750000Y-108000000D03*
X150450000Y-108000000D03*
X150450000Y-108500000D03*
X150450000Y-109000000D03*
X150450000Y-109500000D03*
X150450000Y-110000000D03*
D27*
X137300000Y-117375000D03*
X139125000Y-117375000D03*
D11*
X133212500Y-128925000D03*
X131487500Y-128925000D03*
D10*
X193500000Y-69412500D03*
X193500000Y-67587500D03*
D22*
X184750000Y-88100000D03*
X186850000Y-88100000D03*
D23*
X143045000Y-115625000D03*
D24*
X143800000Y-111000000D03*
X146850000Y-111000000D03*
X143800000Y-107650000D03*
X146850000Y-107650000D03*
D23*
X147605000Y-115625000D03*
D40*
X123950000Y-141310000D03*
X123950000Y-140040000D03*
X123950000Y-138770000D03*
X123950000Y-137500000D03*
X123950000Y-136230000D03*
X123950000Y-134960000D03*
X123950000Y-133690000D03*
X119000000Y-133690000D03*
X119000000Y-134960000D03*
X119000000Y-136230000D03*
X119000000Y-137500000D03*
X119000000Y-138770000D03*
X119000000Y-140040000D03*
X119000000Y-141310000D03*
D41*
X196600000Y-126000000D03*
X194500000Y-126000000D03*
D10*
X196500000Y-69325000D03*
X196500000Y-67500000D03*
D42*
X166000000Y-129000000D03*
X166000000Y-130100000D03*
X166000000Y-131200000D03*
X166000000Y-132300000D03*
X166000000Y-133400000D03*
X166000000Y-134500000D03*
X166000000Y-135600000D03*
X166000000Y-138600000D03*
X166000000Y-139700000D03*
X166000000Y-140800000D03*
X166000000Y-141900000D03*
X166000000Y-143000000D03*
X178000000Y-143000000D03*
X178000000Y-141900000D03*
X178000000Y-140800000D03*
X178000000Y-139700000D03*
X178000000Y-138600000D03*
X178000000Y-135600000D03*
X178000000Y-134500000D03*
X178000000Y-133400000D03*
X178000000Y-132300000D03*
X178000000Y-131200000D03*
X178000000Y-130100000D03*
X178000000Y-129000000D03*
D12*
X184825000Y-62500000D03*
X183000000Y-62500000D03*
D43*
X183225000Y-81395000D03*
X183225000Y-82665000D03*
X183225000Y-83935000D03*
X183225000Y-85205000D03*
X188175000Y-85205000D03*
X188175000Y-83935000D03*
X188175000Y-82665000D03*
X188175000Y-81395000D03*
D44*
X194100000Y-128500000D03*
X193000000Y-128500000D03*
X191900000Y-128500000D03*
X190800000Y-128500000D03*
X189700000Y-128500000D03*
X188600000Y-128500000D03*
X187500000Y-128500000D03*
X186400000Y-128500000D03*
X185450000Y-128500000D03*
D45*
X184500000Y-139000000D03*
D46*
X184500000Y-132800000D03*
D47*
X184500000Y-143150000D03*
D46*
X195650000Y-128500000D03*
D48*
X198000000Y-143600000D03*
M02*
