G04 #@! TF.GenerationSoftware,KiCad,Pcbnew,7.0.6*
G04 #@! TF.CreationDate,2024-11-03T17:15:59-05:00*
G04 #@! TF.ProjectId,Center_Flex_V1,43656e74-6572-45f4-966c-65785f56312e,rev?*
G04 #@! TF.SameCoordinates,Original*
G04 #@! TF.FileFunction,Paste,Top*
G04 #@! TF.FilePolarity,Positive*
%FSLAX46Y46*%
G04 Gerber Fmt 4.6, Leading zero omitted, Abs format (unit mm)*
G04 Created by KiCad (PCBNEW 7.0.6) date 2024-11-03 17:15:59*
%MOMM*%
%LPD*%
G01*
G04 APERTURE LIST*
G04 Aperture macros list*
%AMRoundRect*
0 Rectangle with rounded corners*
0 $1 Rounding radius*
0 $2 $3 $4 $5 $6 $7 $8 $9 X,Y pos of 4 corners*
0 Add a 4 corners polygon primitive as box body*
4,1,4,$2,$3,$4,$5,$6,$7,$8,$9,$2,$3,0*
0 Add four circle primitives for the rounded corners*
1,1,$1+$1,$2,$3*
1,1,$1+$1,$4,$5*
1,1,$1+$1,$6,$7*
1,1,$1+$1,$8,$9*
0 Add four rect primitives between the rounded corners*
20,1,$1+$1,$2,$3,$4,$5,0*
20,1,$1+$1,$4,$5,$6,$7,0*
20,1,$1+$1,$6,$7,$8,$9,0*
20,1,$1+$1,$8,$9,$2,$3,0*%
G04 Aperture macros list end*
%ADD10RoundRect,0.085000X-0.765000X-1.165000X0.765000X-1.165000X0.765000X1.165000X-0.765000X1.165000X0*%
%ADD11RoundRect,0.100000X-0.900000X-1.150000X0.900000X-1.150000X0.900000X1.150000X-0.900000X1.150000X0*%
%ADD12RoundRect,0.100000X0.900000X1.150000X-0.900000X1.150000X-0.900000X-1.150000X0.900000X-1.150000X0*%
%ADD13RoundRect,0.085000X-0.765000X-2.415000X0.765000X-2.415000X0.765000X2.415000X-0.765000X2.415000X0*%
%ADD14RoundRect,0.016000X0.144000X-0.334000X0.144000X0.334000X-0.144000X0.334000X-0.144000X-0.334000X0*%
%ADD15RoundRect,0.016000X-0.144000X0.334000X-0.144000X-0.334000X0.144000X-0.334000X0.144000X0.334000X0*%
%ADD16RoundRect,0.100000X-0.900000X-2.400000X0.900000X-2.400000X0.900000X2.400000X-0.900000X2.400000X0*%
%ADD17C,4.000000*%
G04 APERTURE END LIST*
D10*
X617150000Y-673500000D03*
X617150000Y-673500000D03*
X619850000Y-673500000D03*
X619850000Y-673500000D03*
X611350000Y-673500000D03*
X611350000Y-673500000D03*
X614050000Y-673500000D03*
X614050000Y-673500000D03*
X412950000Y-673500000D03*
X412950000Y-673500000D03*
X415650000Y-673500000D03*
X415650000Y-673500000D03*
X407050000Y-673500000D03*
X407050000Y-673500000D03*
X409750000Y-673500000D03*
X409750000Y-673500000D03*
D11*
X602500000Y-673500000D03*
X602500000Y-673500000D03*
X593300000Y-673500000D03*
X593300000Y-673500000D03*
X574900000Y-673500000D03*
X574900000Y-673500000D03*
X556500000Y-673500000D03*
X556500000Y-673500000D03*
X513800000Y-673500000D03*
X513800000Y-673500000D03*
X470900000Y-673525000D03*
X470900000Y-673525000D03*
X452500000Y-673500000D03*
X452500000Y-673500000D03*
X434100000Y-673500000D03*
X434100000Y-673500000D03*
X584100000Y-673500000D03*
X584100000Y-673500000D03*
X565700000Y-673500000D03*
X565700000Y-673500000D03*
X547300000Y-673490000D03*
X547300000Y-673490000D03*
X480100000Y-673490000D03*
X480100000Y-673490000D03*
X461700000Y-673500000D03*
X461700000Y-673500000D03*
X443300000Y-673500000D03*
X443300000Y-673500000D03*
X424900000Y-673500000D03*
X424900000Y-673500000D03*
D12*
X502300000Y-673485000D03*
X502300000Y-673485000D03*
X491100000Y-673485000D03*
X491100000Y-673485000D03*
X535800000Y-673500000D03*
X535800000Y-673500000D03*
X524600000Y-673500000D03*
X524600000Y-673500000D03*
D10*
X559550000Y-673485000D03*
X559550000Y-673485000D03*
X562250000Y-673485000D03*
X562250000Y-673485000D03*
X550350000Y-673485000D03*
X550350000Y-673485000D03*
X553050000Y-673485000D03*
X553050000Y-673485000D03*
X540150000Y-673485000D03*
X540150000Y-673485000D03*
X542850000Y-673485000D03*
X542850000Y-673485000D03*
X528850000Y-673500000D03*
X528850000Y-673500000D03*
X531550000Y-673500000D03*
X531550000Y-673500000D03*
X517850000Y-673485000D03*
X517850000Y-673485000D03*
X520550000Y-673485000D03*
X520550000Y-673485000D03*
X506550000Y-673485000D03*
X506550000Y-673485000D03*
X509250000Y-673485000D03*
X509250000Y-673485000D03*
X495350000Y-673485000D03*
X495350000Y-673485000D03*
X498050000Y-673485000D03*
X498050000Y-673485000D03*
X484150000Y-673485000D03*
X484150000Y-673485000D03*
X486850000Y-673485000D03*
X486850000Y-673485000D03*
X473950000Y-673485000D03*
X473950000Y-673485000D03*
X476650000Y-673485000D03*
X476650000Y-673485000D03*
X464750000Y-673485000D03*
X464750000Y-673485000D03*
X467450000Y-673485000D03*
X467450000Y-673485000D03*
X455550000Y-673485000D03*
X455550000Y-673485000D03*
X458250000Y-673485000D03*
X458250000Y-673485000D03*
X446350000Y-673485000D03*
X446350000Y-673485000D03*
X449050000Y-673485000D03*
X449050000Y-673485000D03*
X437150000Y-673485000D03*
X437150000Y-673485000D03*
X439850000Y-673485000D03*
X439850000Y-673485000D03*
X427950000Y-673485000D03*
X427950000Y-673485000D03*
X430650000Y-673485000D03*
X430650000Y-673485000D03*
X418750000Y-673485000D03*
X418750000Y-673485000D03*
X421450000Y-673485000D03*
X421450000Y-673485000D03*
X605550000Y-673485000D03*
X605550000Y-673485000D03*
X608250000Y-673485000D03*
X608250000Y-673485000D03*
X596350000Y-673485000D03*
X596350000Y-673485000D03*
X599050000Y-673485000D03*
X599050000Y-673485000D03*
X587150000Y-673485000D03*
X587150000Y-673485000D03*
X589850000Y-673485000D03*
X589850000Y-673485000D03*
X577950000Y-673485000D03*
X577950000Y-673485000D03*
X580650000Y-673485000D03*
X580650000Y-673485000D03*
X568750000Y-673485000D03*
X568750000Y-673485000D03*
X571450000Y-673485000D03*
X571450000Y-673485000D03*
D13*
X617050000Y-204500000D03*
X617050000Y-204500000D03*
X619750000Y-204500000D03*
X619750000Y-204500000D03*
X412850000Y-204500000D03*
X412850000Y-204500000D03*
X415550000Y-204500000D03*
X415550000Y-204500000D03*
X407050000Y-204500000D03*
X407050000Y-204500000D03*
X409750000Y-204500000D03*
X409750000Y-204500000D03*
D14*
X518370000Y-278110000D03*
X519000000Y-278110000D03*
X519630000Y-278110000D03*
X519630000Y-276220000D03*
X519000000Y-276220000D03*
X518370000Y-276220000D03*
D15*
X620430000Y-645890000D03*
X619800000Y-645890000D03*
X619170000Y-645890000D03*
X619170000Y-647780000D03*
X619800000Y-647780000D03*
X620430000Y-647780000D03*
D14*
X563170000Y-513310000D03*
X563800000Y-513310000D03*
X564430000Y-513310000D03*
X564430000Y-511420000D03*
X563800000Y-511420000D03*
X563170000Y-511420000D03*
D15*
X575630000Y-298690000D03*
X575000000Y-298690000D03*
X574370000Y-298690000D03*
X574370000Y-300580000D03*
X575000000Y-300580000D03*
X575630000Y-300580000D03*
X407630000Y-634690000D03*
X407000000Y-634690000D03*
X406370000Y-634690000D03*
X406370000Y-636580000D03*
X407000000Y-636580000D03*
X407630000Y-636580000D03*
D14*
X607970000Y-345310000D03*
X608600000Y-345310000D03*
X609230000Y-345310000D03*
X609230000Y-343420000D03*
X608600000Y-343420000D03*
X607970000Y-343420000D03*
D15*
X530830000Y-556290000D03*
X530200000Y-556290000D03*
X529570000Y-556290000D03*
X529570000Y-558180000D03*
X530200000Y-558180000D03*
X530830000Y-558180000D03*
D14*
X484770000Y-569310000D03*
X485400000Y-569310000D03*
X486030000Y-569310000D03*
X486030000Y-567420000D03*
X485400000Y-567420000D03*
X484770000Y-567420000D03*
D15*
X497230000Y-410690000D03*
X496600000Y-410690000D03*
X495970000Y-410690000D03*
X495970000Y-412580000D03*
X496600000Y-412580000D03*
X497230000Y-412580000D03*
X407630000Y-601090000D03*
X407000000Y-601090000D03*
X406370000Y-601090000D03*
X406370000Y-602980000D03*
X407000000Y-602980000D03*
X407630000Y-602980000D03*
X620430000Y-489090000D03*
X619800000Y-489090000D03*
X619170000Y-489090000D03*
X619170000Y-490980000D03*
X619800000Y-490980000D03*
X620430000Y-490980000D03*
X553230000Y-489089999D03*
X552600000Y-489089999D03*
X551970000Y-489089999D03*
X551970000Y-490979999D03*
X552600000Y-490979999D03*
X553230000Y-490979999D03*
X575630000Y-388290001D03*
X575000000Y-388290001D03*
X574370000Y-388290001D03*
X574370000Y-390180001D03*
X575000000Y-390180001D03*
X575630000Y-390180001D03*
D14*
X484770000Y-670110000D03*
X485400000Y-670110000D03*
X486030000Y-670110000D03*
X486030000Y-668220000D03*
X485400000Y-668220000D03*
X484770000Y-668220000D03*
X484770000Y-278110000D03*
X485400000Y-278110000D03*
X486030000Y-278110000D03*
X486030000Y-276220000D03*
X485400000Y-276220000D03*
X484770000Y-276220000D03*
X507170000Y-401310000D03*
X507800000Y-401310000D03*
X508430000Y-401310000D03*
X508430000Y-399420000D03*
X507800000Y-399420000D03*
X507170000Y-399420000D03*
X540770000Y-602910000D03*
X541400000Y-602910000D03*
X542030000Y-602910000D03*
X542030000Y-601020000D03*
X541400000Y-601020000D03*
X540770000Y-601020000D03*
X484770000Y-647710000D03*
X485400000Y-647710000D03*
X486030000Y-647710000D03*
X486030000Y-645820000D03*
X485400000Y-645820000D03*
X484770000Y-645820000D03*
X585570000Y-625310000D03*
X586200000Y-625310000D03*
X586830000Y-625310000D03*
X586830000Y-623420000D03*
X586200000Y-623420000D03*
X585570000Y-623420000D03*
X462370000Y-513310000D03*
X463000000Y-513310000D03*
X463630000Y-513310000D03*
X463630000Y-511420000D03*
X463000000Y-511420000D03*
X462370000Y-511420000D03*
X607970000Y-356510000D03*
X608600000Y-356510000D03*
X609230000Y-356510000D03*
X609230000Y-354620000D03*
X608600000Y-354620000D03*
X607970000Y-354620000D03*
X563170000Y-502109999D03*
X563800000Y-502109999D03*
X564430000Y-502109999D03*
X564430000Y-500219999D03*
X563800000Y-500219999D03*
X563170000Y-500219999D03*
X507170000Y-535710000D03*
X507800000Y-535710000D03*
X508430000Y-535710000D03*
X508430000Y-533820000D03*
X507800000Y-533820000D03*
X507170000Y-533820000D03*
X585570000Y-345310000D03*
X586200000Y-345310000D03*
X586830000Y-345310000D03*
X586830000Y-343420000D03*
X586200000Y-343420000D03*
X585570000Y-343420000D03*
D15*
X598030000Y-410690000D03*
X597400000Y-410690000D03*
X596770000Y-410690000D03*
X596770000Y-412580000D03*
X597400000Y-412580000D03*
X598030000Y-412580000D03*
X530830000Y-589890000D03*
X530200000Y-589890000D03*
X529570000Y-589890000D03*
X529570000Y-591780000D03*
X530200000Y-591780000D03*
X530830000Y-591780000D03*
D14*
X540770000Y-513310000D03*
X541400000Y-513310000D03*
X542030000Y-513310000D03*
X542030000Y-511420000D03*
X541400000Y-511420000D03*
X540770000Y-511420000D03*
D15*
X407630000Y-589890001D03*
X407000000Y-589890001D03*
X406370000Y-589890001D03*
X406370000Y-591780001D03*
X407000000Y-591780001D03*
X407630000Y-591780001D03*
D14*
X563170000Y-602910000D03*
X563800000Y-602910000D03*
X564430000Y-602910000D03*
X564430000Y-601020000D03*
X563800000Y-601020000D03*
X563170000Y-601020000D03*
X439970000Y-658910000D03*
X440600000Y-658910000D03*
X441230000Y-658910000D03*
X441230000Y-657020000D03*
X440600000Y-657020000D03*
X439970000Y-657020000D03*
D16*
X556200000Y-204500000D03*
X556200000Y-204500000D03*
D15*
X553230000Y-522690000D03*
X552600000Y-522690000D03*
X551970000Y-522690000D03*
X551970000Y-524580000D03*
X552600000Y-524580000D03*
X553230000Y-524580000D03*
D14*
X484770000Y-513310000D03*
X485400000Y-513310000D03*
X486030000Y-513310000D03*
X486030000Y-511420000D03*
X485400000Y-511420000D03*
X484770000Y-511420000D03*
D15*
X598030000Y-209090000D03*
X597400000Y-209090000D03*
X596770000Y-209090000D03*
X596770000Y-210980000D03*
X597400000Y-210980000D03*
X598030000Y-210980000D03*
D17*
X614500000Y-227000000D03*
D15*
X497230000Y-444290000D03*
X496600000Y-444290000D03*
X495970000Y-444290000D03*
X495970000Y-446180000D03*
X496600000Y-446180000D03*
X497230000Y-446180000D03*
D14*
X540770000Y-233310000D03*
X541400000Y-233310000D03*
X542030000Y-233310000D03*
X542030000Y-231420000D03*
X541400000Y-231420000D03*
X540770000Y-231420000D03*
D15*
X598030000Y-578690000D03*
X597400000Y-578690000D03*
X596770000Y-578690000D03*
X596770000Y-580580000D03*
X597400000Y-580580000D03*
X598030000Y-580580000D03*
D14*
X507170000Y-210910000D03*
X507800000Y-210910000D03*
X508430000Y-210910000D03*
X508430000Y-209020000D03*
X507800000Y-209020000D03*
X507170000Y-209020000D03*
X563170000Y-311710000D03*
X563800000Y-311710000D03*
X564430000Y-311710000D03*
X564430000Y-309820000D03*
X563800000Y-309820000D03*
X563170000Y-309820000D03*
X585570000Y-614110000D03*
X586200000Y-614110000D03*
X586830000Y-614110000D03*
X586830000Y-612220000D03*
X586200000Y-612220000D03*
X585570000Y-612220000D03*
D16*
X547000000Y-204515000D03*
X547000000Y-204515000D03*
D14*
X585570000Y-289310000D03*
X586200000Y-289310000D03*
X586830000Y-289310000D03*
X586830000Y-287420000D03*
X586200000Y-287420000D03*
X585570000Y-287420000D03*
D15*
X575630000Y-433090000D03*
X575000000Y-433090000D03*
X574370000Y-433090000D03*
X574370000Y-434980000D03*
X575000000Y-434980000D03*
X575630000Y-434980000D03*
X620430000Y-466690000D03*
X619800000Y-466690000D03*
X619170000Y-466690000D03*
X619170000Y-468580000D03*
X619800000Y-468580000D03*
X620430000Y-468580000D03*
D14*
X607970000Y-502110000D03*
X608600000Y-502110000D03*
X609230000Y-502110000D03*
X609230000Y-500220000D03*
X608600000Y-500220000D03*
X607970000Y-500220000D03*
D15*
X620430000Y-276290000D03*
X619800000Y-276290000D03*
X619170000Y-276290000D03*
X619170000Y-278180000D03*
X619800000Y-278180000D03*
X620430000Y-278180000D03*
X575630000Y-321090001D03*
X575000000Y-321090001D03*
X574370000Y-321090001D03*
X574370000Y-322980001D03*
X575000000Y-322980001D03*
X575630000Y-322980001D03*
X530830000Y-309890000D03*
X530200000Y-309890000D03*
X529570000Y-309890000D03*
X529570000Y-311780000D03*
X530200000Y-311780000D03*
X530830000Y-311780000D03*
D14*
X563170000Y-614110000D03*
X563800000Y-614110000D03*
X564430000Y-614110000D03*
X564430000Y-612220000D03*
X563800000Y-612220000D03*
X563170000Y-612220000D03*
D15*
X553230000Y-220289999D03*
X552600000Y-220289999D03*
X551970000Y-220289999D03*
X551970000Y-222179999D03*
X552600000Y-222179999D03*
X553230000Y-222179999D03*
D17*
X614500000Y-518000000D03*
D14*
X518370000Y-378910000D03*
X519000000Y-378910000D03*
X519630000Y-378910000D03*
X519630000Y-377020000D03*
X519000000Y-377020000D03*
X518370000Y-377020000D03*
X540770000Y-490909999D03*
X541400000Y-490909999D03*
X542030000Y-490909999D03*
X542030000Y-489019999D03*
X541400000Y-489019999D03*
X540770000Y-489019999D03*
D15*
X530830000Y-623490000D03*
X530200000Y-623490000D03*
X529570000Y-623490000D03*
X529570000Y-625380000D03*
X530200000Y-625380000D03*
X530830000Y-625380000D03*
D14*
X462370000Y-625310000D03*
X463000000Y-625310000D03*
X463630000Y-625310000D03*
X463630000Y-623420000D03*
X463000000Y-623420000D03*
X462370000Y-623420000D03*
D15*
X430030000Y-220290000D03*
X429400000Y-220290000D03*
X428770000Y-220290000D03*
X428770000Y-222180000D03*
X429400000Y-222180000D03*
X430030000Y-222180000D03*
D14*
X540770000Y-289310000D03*
X541400000Y-289310000D03*
X542030000Y-289310000D03*
X542030000Y-287420000D03*
X541400000Y-287420000D03*
X540770000Y-287420000D03*
X484770000Y-322910000D03*
X485400000Y-322910000D03*
X486030000Y-322910000D03*
X486030000Y-321020000D03*
X485400000Y-321020000D03*
X484770000Y-321020000D03*
D15*
X553230000Y-253890000D03*
X552600000Y-253890000D03*
X551970000Y-253890000D03*
X551970000Y-255780000D03*
X552600000Y-255780000D03*
X553230000Y-255780000D03*
D14*
X417570000Y-378910001D03*
X418200000Y-378910001D03*
X418830000Y-378910001D03*
X418830000Y-377020001D03*
X418200000Y-377020001D03*
X417570000Y-377020001D03*
X507170000Y-289309999D03*
X507800000Y-289309999D03*
X508430000Y-289309999D03*
X508430000Y-287419999D03*
X507800000Y-287419999D03*
X507170000Y-287419999D03*
D15*
X474830000Y-242690000D03*
X474200000Y-242690000D03*
X473570000Y-242690000D03*
X473570000Y-244580000D03*
X474200000Y-244580000D03*
X474830000Y-244580000D03*
D14*
X417570000Y-658910001D03*
X418200000Y-658910001D03*
X418830000Y-658910001D03*
X418830000Y-657020001D03*
X418200000Y-657020001D03*
X417570000Y-657020001D03*
D15*
X497230000Y-321090000D03*
X496600000Y-321090000D03*
X495970000Y-321090000D03*
X495970000Y-322980000D03*
X496600000Y-322980000D03*
X497230000Y-322980000D03*
X598030000Y-533890000D03*
X597400000Y-533890000D03*
X596770000Y-533890000D03*
X596770000Y-535780000D03*
X597400000Y-535780000D03*
X598030000Y-535780000D03*
X553230000Y-589890000D03*
X552600000Y-589890000D03*
X551970000Y-589890000D03*
X551970000Y-591780000D03*
X552600000Y-591780000D03*
X553230000Y-591780000D03*
X598030000Y-623490000D03*
X597400000Y-623490000D03*
X596770000Y-623490000D03*
X596770000Y-625380000D03*
X597400000Y-625380000D03*
X598030000Y-625380000D03*
D14*
X518370000Y-390110000D03*
X519000000Y-390110000D03*
X519630000Y-390110000D03*
X519630000Y-388220000D03*
X519000000Y-388220000D03*
X518370000Y-388220000D03*
D15*
X497230000Y-567489999D03*
X496600000Y-567489999D03*
X495970000Y-567489999D03*
X495970000Y-569379999D03*
X496600000Y-569379999D03*
X497230000Y-569379999D03*
D14*
X439970000Y-636510000D03*
X440600000Y-636510000D03*
X441230000Y-636510000D03*
X441230000Y-634620000D03*
X440600000Y-634620000D03*
X439970000Y-634620000D03*
X484770000Y-490909999D03*
X485400000Y-490909999D03*
X486030000Y-490909999D03*
X486030000Y-489019999D03*
X485400000Y-489019999D03*
X484770000Y-489019999D03*
X607970000Y-266910000D03*
X608600000Y-266910000D03*
X609230000Y-266910000D03*
X609230000Y-265020000D03*
X608600000Y-265020000D03*
X607970000Y-265020000D03*
D15*
X452430000Y-444290000D03*
X451800000Y-444290000D03*
X451170000Y-444290000D03*
X451170000Y-446180000D03*
X451800000Y-446180000D03*
X452430000Y-446180000D03*
D14*
X563170000Y-670110000D03*
X563800000Y-670110000D03*
X564430000Y-670110000D03*
X564430000Y-668220000D03*
X563800000Y-668220000D03*
X563170000Y-668220000D03*
X462370000Y-222110000D03*
X463000000Y-222110000D03*
X463630000Y-222110000D03*
X463630000Y-220220000D03*
X463000000Y-220220000D03*
X462370000Y-220220000D03*
X540770000Y-345310000D03*
X541400000Y-345310000D03*
X542030000Y-345310000D03*
X542030000Y-343420000D03*
X541400000Y-343420000D03*
X540770000Y-343420000D03*
X585570000Y-322910001D03*
X586200000Y-322910001D03*
X586830000Y-322910001D03*
X586830000Y-321020001D03*
X586200000Y-321020001D03*
X585570000Y-321020001D03*
D15*
X575630000Y-410690000D03*
X575000000Y-410690000D03*
X574370000Y-410690000D03*
X574370000Y-412580000D03*
X575000000Y-412580000D03*
X575630000Y-412580000D03*
D14*
X585570000Y-591710000D03*
X586200000Y-591710000D03*
X586830000Y-591710000D03*
X586830000Y-589820000D03*
X586200000Y-589820000D03*
X585570000Y-589820000D03*
D15*
X430030000Y-242690000D03*
X429400000Y-242690000D03*
X428770000Y-242690000D03*
X428770000Y-244580000D03*
X429400000Y-244580000D03*
X430030000Y-244580000D03*
D14*
X563170000Y-625309999D03*
X563800000Y-625309999D03*
X564430000Y-625309999D03*
X564430000Y-623419999D03*
X563800000Y-623419999D03*
X563170000Y-623419999D03*
X507170000Y-367709999D03*
X507800000Y-367709999D03*
X508430000Y-367709999D03*
X508430000Y-365819999D03*
X507800000Y-365819999D03*
X507170000Y-365819999D03*
D15*
X530830000Y-634690000D03*
X530200000Y-634690000D03*
X529570000Y-634690000D03*
X529570000Y-636580000D03*
X530200000Y-636580000D03*
X530830000Y-636580000D03*
D14*
X585570000Y-569310000D03*
X586200000Y-569310000D03*
X586830000Y-569310000D03*
X586830000Y-567420000D03*
X586200000Y-567420000D03*
X585570000Y-567420000D03*
X540770000Y-278110000D03*
X541400000Y-278110000D03*
X542030000Y-278110000D03*
X542030000Y-276220000D03*
X541400000Y-276220000D03*
X540770000Y-276220000D03*
X484770000Y-244510000D03*
X485400000Y-244510000D03*
X486030000Y-244510000D03*
X486030000Y-242620000D03*
X485400000Y-242620000D03*
X484770000Y-242620000D03*
D15*
X553230000Y-500289999D03*
X552600000Y-500289999D03*
X551970000Y-500289999D03*
X551970000Y-502179999D03*
X552600000Y-502179999D03*
X553230000Y-502179999D03*
D14*
X563170000Y-210910000D03*
X563800000Y-210910000D03*
X564430000Y-210910000D03*
X564430000Y-209020000D03*
X563800000Y-209020000D03*
X563170000Y-209020000D03*
X607970000Y-210910000D03*
X608600000Y-210910000D03*
X609230000Y-210910000D03*
X609230000Y-209020000D03*
X608600000Y-209020000D03*
X607970000Y-209020000D03*
X507170000Y-636509999D03*
X507800000Y-636509999D03*
X508430000Y-636509999D03*
X508430000Y-634619999D03*
X507800000Y-634619999D03*
X507170000Y-634619999D03*
D15*
X497230000Y-343490000D03*
X496600000Y-343490000D03*
X495970000Y-343490000D03*
X495970000Y-345380000D03*
X496600000Y-345380000D03*
X497230000Y-345380000D03*
X530830000Y-365890000D03*
X530200000Y-365890000D03*
X529570000Y-365890000D03*
X529570000Y-367780000D03*
X530200000Y-367780000D03*
X530830000Y-367780000D03*
D14*
X484770000Y-502110000D03*
X485400000Y-502110000D03*
X486030000Y-502110000D03*
X486030000Y-500220000D03*
X485400000Y-500220000D03*
X484770000Y-500220000D03*
X563170000Y-434909999D03*
X563800000Y-434909999D03*
X564430000Y-434909999D03*
X564430000Y-433019999D03*
X563800000Y-433019999D03*
X563170000Y-433019999D03*
X518370000Y-569310000D03*
X519000000Y-569310000D03*
X519630000Y-569310000D03*
X519630000Y-567420000D03*
X519000000Y-567420000D03*
X518370000Y-567420000D03*
D15*
X497230000Y-511490000D03*
X496600000Y-511490000D03*
X495970000Y-511490000D03*
X495970000Y-513380000D03*
X496600000Y-513380000D03*
X497230000Y-513380000D03*
X474830000Y-399490000D03*
X474200000Y-399490000D03*
X473570000Y-399490000D03*
X473570000Y-401380000D03*
X474200000Y-401380000D03*
X474830000Y-401380000D03*
X430030000Y-578690000D03*
X429400000Y-578690000D03*
X428770000Y-578690000D03*
X428770000Y-580580000D03*
X429400000Y-580580000D03*
X430030000Y-580580000D03*
X620430000Y-388290000D03*
X619800000Y-388290000D03*
X619170000Y-388290000D03*
X619170000Y-390180000D03*
X619800000Y-390180000D03*
X620430000Y-390180000D03*
D14*
X507170000Y-423709999D03*
X507800000Y-423709999D03*
X508430000Y-423709999D03*
X508430000Y-421819999D03*
X507800000Y-421819999D03*
X507170000Y-421819999D03*
D15*
X620430000Y-253890000D03*
X619800000Y-253890000D03*
X619170000Y-253890000D03*
X619170000Y-255780000D03*
X619800000Y-255780000D03*
X620430000Y-255780000D03*
D14*
X563170000Y-278110000D03*
X563800000Y-278110000D03*
X564430000Y-278110000D03*
X564430000Y-276220000D03*
X563800000Y-276220000D03*
X563170000Y-276220000D03*
D15*
X474830000Y-533890000D03*
X474200000Y-533890000D03*
X473570000Y-533890000D03*
X473570000Y-535780000D03*
X474200000Y-535780000D03*
X474830000Y-535780000D03*
X474830000Y-511490000D03*
X474200000Y-511490000D03*
X473570000Y-511490000D03*
X473570000Y-513380000D03*
X474200000Y-513380000D03*
X474830000Y-513380000D03*
D14*
X607970000Y-546910000D03*
X608600000Y-546910000D03*
X609230000Y-546910000D03*
X609230000Y-545020000D03*
X608600000Y-545020000D03*
X607970000Y-545020000D03*
X585570000Y-233310000D03*
X586200000Y-233310000D03*
X586830000Y-233310000D03*
X586830000Y-231420000D03*
X586200000Y-231420000D03*
X585570000Y-231420000D03*
X585570000Y-244510001D03*
X586200000Y-244510001D03*
X586830000Y-244510001D03*
X586830000Y-242620001D03*
X586200000Y-242620001D03*
X585570000Y-242620001D03*
X417570000Y-591710001D03*
X418200000Y-591710001D03*
X418830000Y-591710001D03*
X418830000Y-589820001D03*
X418200000Y-589820001D03*
X417570000Y-589820001D03*
X484770000Y-311710000D03*
X485400000Y-311710000D03*
X486030000Y-311710000D03*
X486030000Y-309820000D03*
X485400000Y-309820000D03*
X484770000Y-309820000D03*
D15*
X452430000Y-601090000D03*
X451800000Y-601090000D03*
X451170000Y-601090000D03*
X451170000Y-602980000D03*
X451800000Y-602980000D03*
X452430000Y-602980000D03*
D14*
X540770000Y-591710000D03*
X541400000Y-591710000D03*
X542030000Y-591710000D03*
X542030000Y-589820000D03*
X541400000Y-589820000D03*
X540770000Y-589820000D03*
X518370000Y-367710000D03*
X519000000Y-367710000D03*
X519630000Y-367710000D03*
X519630000Y-365820000D03*
X519000000Y-365820000D03*
X518370000Y-365820000D03*
X462370000Y-322910000D03*
X463000000Y-322910000D03*
X463630000Y-322910000D03*
X463630000Y-321020000D03*
X463000000Y-321020000D03*
X462370000Y-321020000D03*
D15*
X553230000Y-444290000D03*
X552600000Y-444290000D03*
X551970000Y-444290000D03*
X551970000Y-446180000D03*
X552600000Y-446180000D03*
X553230000Y-446180000D03*
D14*
X507170000Y-457310000D03*
X507800000Y-457310000D03*
X508430000Y-457310000D03*
X508430000Y-455420000D03*
X507800000Y-455420000D03*
X507170000Y-455420000D03*
D15*
X620430000Y-231490000D03*
X619800000Y-231490000D03*
X619170000Y-231490000D03*
X619170000Y-233380000D03*
X619800000Y-233380000D03*
X620430000Y-233380000D03*
X530830000Y-466690000D03*
X530200000Y-466690000D03*
X529570000Y-466690000D03*
X529570000Y-468580000D03*
X530200000Y-468580000D03*
X530830000Y-468580000D03*
X430030000Y-321090001D03*
X429400000Y-321090001D03*
X428770000Y-321090001D03*
X428770000Y-322980001D03*
X429400000Y-322980001D03*
X430030000Y-322980001D03*
D14*
X484770000Y-658910000D03*
X485400000Y-658910000D03*
X486030000Y-658910000D03*
X486030000Y-657020000D03*
X485400000Y-657020000D03*
X484770000Y-657020000D03*
D15*
X430030000Y-455490001D03*
X429400000Y-455490001D03*
X428770000Y-455490001D03*
X428770000Y-457380001D03*
X429400000Y-457380001D03*
X430030000Y-457380001D03*
X430030000Y-522690001D03*
X429400000Y-522690001D03*
X428770000Y-522690001D03*
X428770000Y-524580001D03*
X429400000Y-524580001D03*
X430030000Y-524580001D03*
D14*
X585570000Y-490910000D03*
X586200000Y-490910000D03*
X586830000Y-490910000D03*
X586830000Y-489020000D03*
X586200000Y-489020000D03*
X585570000Y-489020000D03*
X462370000Y-334110000D03*
X463000000Y-334110000D03*
X463630000Y-334110000D03*
X463630000Y-332220000D03*
X463000000Y-332220000D03*
X462370000Y-332220000D03*
D15*
X407630000Y-668290000D03*
X407000000Y-668290000D03*
X406370000Y-668290000D03*
X406370000Y-670180000D03*
X407000000Y-670180000D03*
X407630000Y-670180000D03*
D14*
X540770000Y-457310000D03*
X541400000Y-457310000D03*
X542030000Y-457310000D03*
X542030000Y-455420000D03*
X541400000Y-455420000D03*
X540770000Y-455420000D03*
D15*
X553230000Y-612290000D03*
X552600000Y-612290000D03*
X551970000Y-612290000D03*
X551970000Y-614180000D03*
X552600000Y-614180000D03*
X553230000Y-614180000D03*
X553230000Y-377090000D03*
X552600000Y-377090000D03*
X551970000Y-377090000D03*
X551970000Y-378980000D03*
X552600000Y-378980000D03*
X553230000Y-378980000D03*
X598030000Y-500290000D03*
X597400000Y-500290000D03*
X596770000Y-500290000D03*
X596770000Y-502180000D03*
X597400000Y-502180000D03*
X598030000Y-502180000D03*
X430030000Y-489090000D03*
X429400000Y-489090000D03*
X428770000Y-489090000D03*
X428770000Y-490980000D03*
X429400000Y-490980000D03*
X430030000Y-490980000D03*
X620430000Y-545090000D03*
X619800000Y-545090000D03*
X619170000Y-545090000D03*
X619170000Y-546980000D03*
X619800000Y-546980000D03*
X620430000Y-546980000D03*
X407630000Y-209090000D03*
X407000000Y-209090000D03*
X406370000Y-209090000D03*
X406370000Y-210980000D03*
X407000000Y-210980000D03*
X407630000Y-210980000D03*
D14*
X417570000Y-546910000D03*
X418200000Y-546910000D03*
X418830000Y-546910000D03*
X418830000Y-545020000D03*
X418200000Y-545020000D03*
X417570000Y-545020000D03*
X518370000Y-502110000D03*
X519000000Y-502110000D03*
X519630000Y-502110000D03*
X519630000Y-500220000D03*
X519000000Y-500220000D03*
X518370000Y-500220000D03*
X507170000Y-468510000D03*
X507800000Y-468510000D03*
X508430000Y-468510000D03*
X508430000Y-466620000D03*
X507800000Y-466620000D03*
X507170000Y-466620000D03*
X507170000Y-356509999D03*
X507800000Y-356509999D03*
X508430000Y-356509999D03*
X508430000Y-354619999D03*
X507800000Y-354619999D03*
X507170000Y-354619999D03*
X518370000Y-434910000D03*
X519000000Y-434910000D03*
X519630000Y-434910000D03*
X519630000Y-433020000D03*
X519000000Y-433020000D03*
X518370000Y-433020000D03*
D15*
X620430000Y-399490000D03*
X619800000Y-399490000D03*
X619170000Y-399490000D03*
X619170000Y-401380000D03*
X619800000Y-401380000D03*
X620430000Y-401380000D03*
D14*
X484770000Y-401310000D03*
X485400000Y-401310000D03*
X486030000Y-401310000D03*
X486030000Y-399420000D03*
X485400000Y-399420000D03*
X484770000Y-399420000D03*
D15*
X553230000Y-231489999D03*
X552600000Y-231489999D03*
X551970000Y-231489999D03*
X551970000Y-233379999D03*
X552600000Y-233379999D03*
X553230000Y-233379999D03*
D14*
X607970000Y-558110000D03*
X608600000Y-558110000D03*
X609230000Y-558110000D03*
X609230000Y-556220000D03*
X608600000Y-556220000D03*
X607970000Y-556220000D03*
X607970000Y-457310000D03*
X608600000Y-457310000D03*
X609230000Y-457310000D03*
X609230000Y-455420000D03*
X608600000Y-455420000D03*
X607970000Y-455420000D03*
D16*
X424600000Y-204500000D03*
X424600000Y-204500000D03*
D14*
X540770000Y-222109999D03*
X541400000Y-222109999D03*
X542030000Y-222109999D03*
X542030000Y-220219999D03*
X541400000Y-220219999D03*
X540770000Y-220219999D03*
X507170000Y-558109999D03*
X507800000Y-558109999D03*
X508430000Y-558109999D03*
X508430000Y-556219999D03*
X507800000Y-556219999D03*
X507170000Y-556219999D03*
X518370000Y-647710000D03*
X519000000Y-647710000D03*
X519630000Y-647710000D03*
X519630000Y-645820000D03*
X519000000Y-645820000D03*
X518370000Y-645820000D03*
D15*
X575630000Y-231490000D03*
X575000000Y-231490000D03*
X574370000Y-231490000D03*
X574370000Y-233380000D03*
X575000000Y-233380000D03*
X575630000Y-233380000D03*
D14*
X540770000Y-658910000D03*
X541400000Y-658910000D03*
X542030000Y-658910000D03*
X542030000Y-657020000D03*
X541400000Y-657020000D03*
X540770000Y-657020000D03*
X563170000Y-490909999D03*
X563800000Y-490909999D03*
X564430000Y-490909999D03*
X564430000Y-489019999D03*
X563800000Y-489019999D03*
X563170000Y-489019999D03*
D15*
X407630000Y-545090000D03*
X407000000Y-545090000D03*
X406370000Y-545090000D03*
X406370000Y-546980000D03*
X407000000Y-546980000D03*
X407630000Y-546980000D03*
X497230000Y-545090000D03*
X496600000Y-545090000D03*
X495970000Y-545090000D03*
X495970000Y-546980000D03*
X496600000Y-546980000D03*
X497230000Y-546980000D03*
D14*
X484770000Y-255710000D03*
X485400000Y-255710000D03*
X486030000Y-255710000D03*
X486030000Y-253820000D03*
X485400000Y-253820000D03*
X484770000Y-253820000D03*
X585570000Y-457310000D03*
X586200000Y-457310000D03*
X586830000Y-457310000D03*
X586830000Y-455420000D03*
X586200000Y-455420000D03*
X585570000Y-455420000D03*
X607970000Y-658910000D03*
X608600000Y-658910000D03*
X609230000Y-658910000D03*
X609230000Y-657020000D03*
X608600000Y-657020000D03*
X607970000Y-657020000D03*
X439970000Y-266910000D03*
X440600000Y-266910000D03*
X441230000Y-266910000D03*
X441230000Y-265020000D03*
X440600000Y-265020000D03*
X439970000Y-265020000D03*
D15*
X553230000Y-668290000D03*
X552600000Y-668290000D03*
X551970000Y-668290000D03*
X551970000Y-670180000D03*
X552600000Y-670180000D03*
X553230000Y-670180000D03*
D14*
X439970000Y-233310000D03*
X440600000Y-233310000D03*
X441230000Y-233310000D03*
X441230000Y-231420000D03*
X440600000Y-231420000D03*
X439970000Y-231420000D03*
X484770000Y-434910000D03*
X485400000Y-434910000D03*
X486030000Y-434910000D03*
X486030000Y-433020000D03*
X485400000Y-433020000D03*
X484770000Y-433020000D03*
X585570000Y-524510000D03*
X586200000Y-524510000D03*
X586830000Y-524510000D03*
X586830000Y-522620000D03*
X586200000Y-522620000D03*
X585570000Y-522620000D03*
D15*
X407630000Y-265090000D03*
X407000000Y-265090000D03*
X406370000Y-265090000D03*
X406370000Y-266980000D03*
X407000000Y-266980000D03*
X407630000Y-266980000D03*
X620430000Y-444290000D03*
X619800000Y-444290000D03*
X619170000Y-444290000D03*
X619170000Y-446180000D03*
X619800000Y-446180000D03*
X620430000Y-446180000D03*
X620430000Y-533890000D03*
X619800000Y-533890000D03*
X619170000Y-533890000D03*
X619170000Y-535780000D03*
X619800000Y-535780000D03*
X620430000Y-535780000D03*
X497230000Y-589890000D03*
X496600000Y-589890000D03*
X495970000Y-589890000D03*
X495970000Y-591780000D03*
X496600000Y-591780000D03*
X497230000Y-591780000D03*
X474830000Y-645890000D03*
X474200000Y-645890000D03*
X473570000Y-645890000D03*
X473570000Y-647780000D03*
X474200000Y-647780000D03*
X474830000Y-647780000D03*
X575630000Y-634690000D03*
X575000000Y-634690000D03*
X574370000Y-634690000D03*
X574370000Y-636580000D03*
X575000000Y-636580000D03*
X575630000Y-636580000D03*
X452430000Y-332290000D03*
X451800000Y-332290000D03*
X451170000Y-332290000D03*
X451170000Y-334180000D03*
X451800000Y-334180000D03*
X452430000Y-334180000D03*
D14*
X563170000Y-300510000D03*
X563800000Y-300510000D03*
X564430000Y-300510000D03*
X564430000Y-298620000D03*
X563800000Y-298620000D03*
X563170000Y-298620000D03*
D15*
X474830000Y-321090000D03*
X474200000Y-321090000D03*
X473570000Y-321090000D03*
X473570000Y-322980000D03*
X474200000Y-322980000D03*
X474830000Y-322980000D03*
D13*
X568650000Y-204485000D03*
X568650000Y-204485000D03*
X571350000Y-204485000D03*
X571350000Y-204485000D03*
D14*
X607970000Y-311710000D03*
X608600000Y-311710000D03*
X609230000Y-311710000D03*
X609230000Y-309820000D03*
X608600000Y-309820000D03*
X607970000Y-309820000D03*
D15*
X407630000Y-309890001D03*
X407000000Y-309890001D03*
X406370000Y-309890001D03*
X406370000Y-311780001D03*
X407000000Y-311780001D03*
X407630000Y-311780001D03*
D14*
X507170000Y-322910000D03*
X507800000Y-322910000D03*
X508430000Y-322910000D03*
X508430000Y-321020000D03*
X507800000Y-321020000D03*
X507170000Y-321020000D03*
X507170000Y-300509999D03*
X507800000Y-300509999D03*
X508430000Y-300509999D03*
X508430000Y-298619999D03*
X507800000Y-298619999D03*
X507170000Y-298619999D03*
X540770000Y-434910000D03*
X541400000Y-434910000D03*
X542030000Y-434910000D03*
X542030000Y-433020000D03*
X541400000Y-433020000D03*
X540770000Y-433020000D03*
D15*
X430030000Y-287490000D03*
X429400000Y-287490000D03*
X428770000Y-287490000D03*
X428770000Y-289380000D03*
X429400000Y-289380000D03*
X430030000Y-289380000D03*
X553230000Y-242690000D03*
X552600000Y-242690000D03*
X551970000Y-242690000D03*
X551970000Y-244580000D03*
X552600000Y-244580000D03*
X553230000Y-244580000D03*
X598030000Y-421890000D03*
X597400000Y-421890000D03*
X596770000Y-421890000D03*
X596770000Y-423780000D03*
X597400000Y-423780000D03*
X598030000Y-423780000D03*
D14*
X439970000Y-558110000D03*
X440600000Y-558110000D03*
X441230000Y-558110000D03*
X441230000Y-556220000D03*
X440600000Y-556220000D03*
X439970000Y-556220000D03*
X607970000Y-625310000D03*
X608600000Y-625310000D03*
X609230000Y-625310000D03*
X609230000Y-623420000D03*
X608600000Y-623420000D03*
X607970000Y-623420000D03*
X484770000Y-423709999D03*
X485400000Y-423709999D03*
X486030000Y-423709999D03*
X486030000Y-421819999D03*
X485400000Y-421819999D03*
X484770000Y-421819999D03*
X607970000Y-636510000D03*
X608600000Y-636510000D03*
X609230000Y-636510000D03*
X609230000Y-634620000D03*
X608600000Y-634620000D03*
X607970000Y-634620000D03*
X417570000Y-490910000D03*
X418200000Y-490910000D03*
X418830000Y-490910000D03*
X418830000Y-489020000D03*
X418200000Y-489020000D03*
X417570000Y-489020000D03*
X518370000Y-546910000D03*
X519000000Y-546910000D03*
X519630000Y-546910000D03*
X519630000Y-545020000D03*
X519000000Y-545020000D03*
X518370000Y-545020000D03*
X518370000Y-468510000D03*
X519000000Y-468510000D03*
X519630000Y-468510000D03*
X519630000Y-466620000D03*
X519000000Y-466620000D03*
X518370000Y-466620000D03*
D15*
X575630000Y-343490000D03*
X575000000Y-343490000D03*
X574370000Y-343490000D03*
X574370000Y-345380000D03*
X575000000Y-345380000D03*
X575630000Y-345380000D03*
D14*
X540770000Y-614110000D03*
X541400000Y-614110000D03*
X542030000Y-614110000D03*
X542030000Y-612220000D03*
X541400000Y-612220000D03*
X540770000Y-612220000D03*
X563170000Y-558109999D03*
X563800000Y-558109999D03*
X564430000Y-558109999D03*
X564430000Y-556219999D03*
X563800000Y-556219999D03*
X563170000Y-556219999D03*
X462370000Y-233310000D03*
X463000000Y-233310000D03*
X463630000Y-233310000D03*
X463630000Y-231420000D03*
X463000000Y-231420000D03*
X462370000Y-231420000D03*
X484770000Y-457310000D03*
X485400000Y-457310000D03*
X486030000Y-457310000D03*
X486030000Y-455420000D03*
X485400000Y-455420000D03*
X484770000Y-455420000D03*
D15*
X575630000Y-365890000D03*
X575000000Y-365890000D03*
X574370000Y-365890000D03*
X574370000Y-367780000D03*
X575000000Y-367780000D03*
X575630000Y-367780000D03*
D14*
X462370000Y-468510000D03*
X463000000Y-468510000D03*
X463630000Y-468510000D03*
X463630000Y-466620000D03*
X463000000Y-466620000D03*
X462370000Y-466620000D03*
D16*
X443000000Y-204500000D03*
X443000000Y-204500000D03*
D14*
X585570000Y-222110000D03*
X586200000Y-222110000D03*
X586830000Y-222110000D03*
X586830000Y-220220000D03*
X586200000Y-220220000D03*
X585570000Y-220220000D03*
X507170000Y-255710000D03*
X507800000Y-255710000D03*
X508430000Y-255710000D03*
X508430000Y-253820000D03*
X507800000Y-253820000D03*
X507170000Y-253820000D03*
D15*
X598030000Y-388290001D03*
X597400000Y-388290001D03*
X596770000Y-388290001D03*
X596770000Y-390180001D03*
X597400000Y-390180001D03*
X598030000Y-390180001D03*
X474830000Y-231490000D03*
X474200000Y-231490000D03*
X473570000Y-231490000D03*
X473570000Y-233380000D03*
X474200000Y-233380000D03*
X474830000Y-233380000D03*
X598030000Y-433090000D03*
X597400000Y-433090000D03*
X596770000Y-433090000D03*
X596770000Y-434980000D03*
X597400000Y-434980000D03*
X598030000Y-434980000D03*
D16*
X593000000Y-204500000D03*
X593000000Y-204500000D03*
D15*
X553230000Y-433089999D03*
X552600000Y-433089999D03*
X551970000Y-433089999D03*
X551970000Y-434979999D03*
X552600000Y-434979999D03*
X553230000Y-434979999D03*
X553230000Y-287490000D03*
X552600000Y-287490000D03*
X551970000Y-287490000D03*
X551970000Y-289380000D03*
X552600000Y-289380000D03*
X553230000Y-289380000D03*
X575630000Y-332290000D03*
X575000000Y-332290000D03*
X574370000Y-332290000D03*
X574370000Y-334180000D03*
X575000000Y-334180000D03*
X575630000Y-334180000D03*
X530830000Y-276290000D03*
X530200000Y-276290000D03*
X529570000Y-276290000D03*
X529570000Y-278180000D03*
X530200000Y-278180000D03*
X530830000Y-278180000D03*
D14*
X484770000Y-546910000D03*
X485400000Y-546910000D03*
X486030000Y-546910000D03*
X486030000Y-545020000D03*
X485400000Y-545020000D03*
X484770000Y-545020000D03*
D15*
X598030000Y-668290000D03*
X597400000Y-668290000D03*
X596770000Y-668290000D03*
X596770000Y-670180000D03*
X597400000Y-670180000D03*
X598030000Y-670180000D03*
D14*
X563170000Y-636509999D03*
X563800000Y-636509999D03*
X564430000Y-636509999D03*
X564430000Y-634619999D03*
X563800000Y-634619999D03*
X563170000Y-634619999D03*
X417570000Y-524510001D03*
X418200000Y-524510001D03*
X418830000Y-524510001D03*
X418830000Y-522620001D03*
X418200000Y-522620001D03*
X417570000Y-522620001D03*
D15*
X407630000Y-276290000D03*
X407000000Y-276290000D03*
X406370000Y-276290000D03*
X406370000Y-278180000D03*
X407000000Y-278180000D03*
X407630000Y-278180000D03*
X553230000Y-332290000D03*
X552600000Y-332290000D03*
X551970000Y-332290000D03*
X551970000Y-334180000D03*
X552600000Y-334180000D03*
X553230000Y-334180000D03*
X553230000Y-477890000D03*
X552600000Y-477890000D03*
X551970000Y-477890000D03*
X551970000Y-479780000D03*
X552600000Y-479780000D03*
X553230000Y-479780000D03*
X430030000Y-365890000D03*
X429400000Y-365890000D03*
X428770000Y-365890000D03*
X428770000Y-367780000D03*
X429400000Y-367780000D03*
X430030000Y-367780000D03*
D13*
X540050000Y-204485000D03*
X540050000Y-204485000D03*
X542750000Y-204485000D03*
X542750000Y-204485000D03*
D14*
X484770000Y-356509999D03*
X485400000Y-356509999D03*
X486030000Y-356509999D03*
X486030000Y-354619999D03*
X485400000Y-354619999D03*
X484770000Y-354619999D03*
X518370000Y-580510000D03*
X519000000Y-580510000D03*
X519630000Y-580510000D03*
X519630000Y-578620000D03*
X519000000Y-578620000D03*
X518370000Y-578620000D03*
X607970000Y-647710000D03*
X608600000Y-647710000D03*
X609230000Y-647710000D03*
X609230000Y-645820000D03*
X608600000Y-645820000D03*
X607970000Y-645820000D03*
D15*
X575630000Y-399490000D03*
X575000000Y-399490000D03*
X574370000Y-399490000D03*
X574370000Y-401380000D03*
X575000000Y-401380000D03*
X575630000Y-401380000D03*
X497230000Y-489089999D03*
X496600000Y-489089999D03*
X495970000Y-489089999D03*
X495970000Y-490979999D03*
X496600000Y-490979999D03*
X497230000Y-490979999D03*
D14*
X585570000Y-580510000D03*
X586200000Y-580510000D03*
X586830000Y-580510000D03*
X586830000Y-578620000D03*
X586200000Y-578620000D03*
X585570000Y-578620000D03*
D15*
X430030000Y-421890000D03*
X429400000Y-421890000D03*
X428770000Y-421890000D03*
X428770000Y-423780000D03*
X429400000Y-423780000D03*
X430030000Y-423780000D03*
D14*
X563170000Y-412510000D03*
X563800000Y-412510000D03*
X564430000Y-412510000D03*
X564430000Y-410620000D03*
X563800000Y-410620000D03*
X563170000Y-410620000D03*
D15*
X530830000Y-242690000D03*
X530200000Y-242690000D03*
X529570000Y-242690000D03*
X529570000Y-244580000D03*
X530200000Y-244580000D03*
X530830000Y-244580000D03*
X620430000Y-500290000D03*
X619800000Y-500290000D03*
X619170000Y-500290000D03*
X619170000Y-502180000D03*
X619800000Y-502180000D03*
X620430000Y-502180000D03*
X598030000Y-253890001D03*
X597400000Y-253890001D03*
X596770000Y-253890001D03*
X596770000Y-255780001D03*
X597400000Y-255780001D03*
X598030000Y-255780001D03*
D14*
X607970000Y-446110000D03*
X608600000Y-446110000D03*
X609230000Y-446110000D03*
X609230000Y-444220000D03*
X608600000Y-444220000D03*
X607970000Y-444220000D03*
D15*
X530830000Y-545090000D03*
X530200000Y-545090000D03*
X529570000Y-545090000D03*
X529570000Y-546980000D03*
X530200000Y-546980000D03*
X530830000Y-546980000D03*
X474830000Y-477890000D03*
X474200000Y-477890000D03*
X473570000Y-477890000D03*
X473570000Y-479780000D03*
X474200000Y-479780000D03*
X474830000Y-479780000D03*
D14*
X585570000Y-434910000D03*
X586200000Y-434910000D03*
X586830000Y-434910000D03*
X586830000Y-433020000D03*
X586200000Y-433020000D03*
X585570000Y-433020000D03*
X484770000Y-636510000D03*
X485400000Y-636510000D03*
X486030000Y-636510000D03*
X486030000Y-634620000D03*
X485400000Y-634620000D03*
X484770000Y-634620000D03*
X417570000Y-311710001D03*
X418200000Y-311710001D03*
X418830000Y-311710001D03*
X418830000Y-309820001D03*
X418200000Y-309820001D03*
X417570000Y-309820001D03*
D15*
X474830000Y-343490000D03*
X474200000Y-343490000D03*
X473570000Y-343490000D03*
X473570000Y-345380000D03*
X474200000Y-345380000D03*
X474830000Y-345380000D03*
D14*
X484770000Y-300510000D03*
X485400000Y-300510000D03*
X486030000Y-300510000D03*
X486030000Y-298620000D03*
X485400000Y-298620000D03*
X484770000Y-298620000D03*
D15*
X430030000Y-343490000D03*
X429400000Y-343490000D03*
X428770000Y-343490000D03*
X428770000Y-345380000D03*
X429400000Y-345380000D03*
X430030000Y-345380000D03*
D14*
X507170000Y-345310000D03*
X507800000Y-345310000D03*
X508430000Y-345310000D03*
X508430000Y-343420000D03*
X507800000Y-343420000D03*
X507170000Y-343420000D03*
X417570000Y-322910001D03*
X418200000Y-322910001D03*
X418830000Y-322910001D03*
X418830000Y-321020001D03*
X418200000Y-321020001D03*
X417570000Y-321020001D03*
D13*
X473850000Y-204485000D03*
X473850000Y-204485000D03*
X476550000Y-204485000D03*
X476550000Y-204485000D03*
D15*
X452430000Y-578690000D03*
X451800000Y-578690000D03*
X451170000Y-578690000D03*
X451170000Y-580580000D03*
X451800000Y-580580000D03*
X452430000Y-580580000D03*
D14*
X585570000Y-334110000D03*
X586200000Y-334110000D03*
X586830000Y-334110000D03*
X586830000Y-332220000D03*
X586200000Y-332220000D03*
X585570000Y-332220000D03*
X540770000Y-580510000D03*
X541400000Y-580510000D03*
X542030000Y-580510000D03*
X542030000Y-578620000D03*
X541400000Y-578620000D03*
X540770000Y-578620000D03*
X462370000Y-524510000D03*
X463000000Y-524510000D03*
X463630000Y-524510000D03*
X463630000Y-522620000D03*
X463000000Y-522620000D03*
X462370000Y-522620000D03*
X462370000Y-614110000D03*
X463000000Y-614110000D03*
X463630000Y-614110000D03*
X463630000Y-612220000D03*
X463000000Y-612220000D03*
X462370000Y-612220000D03*
X607970000Y-390110000D03*
X608600000Y-390110000D03*
X609230000Y-390110000D03*
X609230000Y-388220000D03*
X608600000Y-388220000D03*
X607970000Y-388220000D03*
D15*
X598030000Y-645890000D03*
X597400000Y-645890000D03*
X596770000Y-645890000D03*
X596770000Y-647780000D03*
X597400000Y-647780000D03*
X598030000Y-647780000D03*
D14*
X484770000Y-222109999D03*
X485400000Y-222109999D03*
X486030000Y-222109999D03*
X486030000Y-220219999D03*
X485400000Y-220219999D03*
X484770000Y-220219999D03*
X507170000Y-502109999D03*
X507800000Y-502109999D03*
X508430000Y-502109999D03*
X508430000Y-500219999D03*
X507800000Y-500219999D03*
X507170000Y-500219999D03*
D15*
X430030000Y-209090000D03*
X429400000Y-209090000D03*
X428770000Y-209090000D03*
X428770000Y-210980000D03*
X429400000Y-210980000D03*
X430030000Y-210980000D03*
X452430000Y-645890000D03*
X451800000Y-645890000D03*
X451170000Y-645890000D03*
X451170000Y-647780000D03*
X451800000Y-647780000D03*
X452430000Y-647780000D03*
X530830000Y-388290000D03*
X530200000Y-388290000D03*
X529570000Y-388290000D03*
X529570000Y-390180000D03*
X530200000Y-390180000D03*
X530830000Y-390180000D03*
X553230000Y-634689999D03*
X552600000Y-634689999D03*
X551970000Y-634689999D03*
X551970000Y-636579999D03*
X552600000Y-636579999D03*
X553230000Y-636579999D03*
X407630000Y-354690000D03*
X407000000Y-354690000D03*
X406370000Y-354690000D03*
X406370000Y-356580000D03*
X407000000Y-356580000D03*
X407630000Y-356580000D03*
D14*
X540770000Y-636510000D03*
X541400000Y-636510000D03*
X542030000Y-636510000D03*
X542030000Y-634620000D03*
X541400000Y-634620000D03*
X540770000Y-634620000D03*
D15*
X598030000Y-511490000D03*
X597400000Y-511490000D03*
X596770000Y-511490000D03*
X596770000Y-513380000D03*
X597400000Y-513380000D03*
X598030000Y-513380000D03*
X430030000Y-668290000D03*
X429400000Y-668290000D03*
X428770000Y-668290000D03*
X428770000Y-670180000D03*
X429400000Y-670180000D03*
X430030000Y-670180000D03*
X407630000Y-410690000D03*
X407000000Y-410690000D03*
X406370000Y-410690000D03*
X406370000Y-412580000D03*
X407000000Y-412580000D03*
X407630000Y-412580000D03*
D17*
X412500000Y-227000000D03*
D14*
X507170000Y-278110000D03*
X507800000Y-278110000D03*
X508430000Y-278110000D03*
X508430000Y-276220000D03*
X507800000Y-276220000D03*
X507170000Y-276220000D03*
D15*
X530830000Y-332290000D03*
X530200000Y-332290000D03*
X529570000Y-332290000D03*
X529570000Y-334180000D03*
X530200000Y-334180000D03*
X530830000Y-334180000D03*
X430030000Y-265090000D03*
X429400000Y-265090000D03*
X428770000Y-265090000D03*
X428770000Y-266980000D03*
X429400000Y-266980000D03*
X430030000Y-266980000D03*
D14*
X563170000Y-423709999D03*
X563800000Y-423709999D03*
X564430000Y-423709999D03*
X564430000Y-421819999D03*
X563800000Y-421819999D03*
X563170000Y-421819999D03*
D15*
X598030000Y-377090000D03*
X597400000Y-377090000D03*
X596770000Y-377090000D03*
X596770000Y-378980000D03*
X597400000Y-378980000D03*
X598030000Y-378980000D03*
X620430000Y-321090000D03*
X619800000Y-321090000D03*
X619170000Y-321090000D03*
X619170000Y-322980000D03*
X619800000Y-322980000D03*
X620430000Y-322980000D03*
D14*
X563170000Y-322910000D03*
X563800000Y-322910000D03*
X564430000Y-322910000D03*
X564430000Y-321020000D03*
X563800000Y-321020000D03*
X563170000Y-321020000D03*
D15*
X497230000Y-668290000D03*
X496600000Y-668290000D03*
X495970000Y-668290000D03*
X495970000Y-670180000D03*
X496600000Y-670180000D03*
X497230000Y-670180000D03*
X430030000Y-500290000D03*
X429400000Y-500290000D03*
X428770000Y-500290000D03*
X428770000Y-502180000D03*
X429400000Y-502180000D03*
X430030000Y-502180000D03*
D14*
X585570000Y-401310000D03*
X586200000Y-401310000D03*
X586830000Y-401310000D03*
X586830000Y-399420000D03*
X586200000Y-399420000D03*
X585570000Y-399420000D03*
X439970000Y-535710000D03*
X440600000Y-535710000D03*
X441230000Y-535710000D03*
X441230000Y-533820000D03*
X440600000Y-533820000D03*
X439970000Y-533820000D03*
D15*
X553230000Y-209090000D03*
X552600000Y-209090000D03*
X551970000Y-209090000D03*
X551970000Y-210980000D03*
X552600000Y-210980000D03*
X553230000Y-210980000D03*
D14*
X563170000Y-244510000D03*
X563800000Y-244510000D03*
X564430000Y-244510000D03*
X564430000Y-242620000D03*
X563800000Y-242620000D03*
X563170000Y-242620000D03*
X462370000Y-356510000D03*
X463000000Y-356510000D03*
X463630000Y-356510000D03*
X463630000Y-354620000D03*
X463000000Y-354620000D03*
X462370000Y-354620000D03*
D15*
X575630000Y-533890000D03*
X575000000Y-533890000D03*
X574370000Y-533890000D03*
X574370000Y-535780000D03*
X575000000Y-535780000D03*
X575630000Y-535780000D03*
X452430000Y-634690000D03*
X451800000Y-634690000D03*
X451170000Y-634690000D03*
X451170000Y-636580000D03*
X451800000Y-636580000D03*
X452430000Y-636580000D03*
D14*
X439970000Y-434910000D03*
X440600000Y-434910000D03*
X441230000Y-434910000D03*
X441230000Y-433020000D03*
X440600000Y-433020000D03*
X439970000Y-433020000D03*
D15*
X575630000Y-421890000D03*
X575000000Y-421890000D03*
X574370000Y-421890000D03*
X574370000Y-423780000D03*
X575000000Y-423780000D03*
X575630000Y-423780000D03*
X407630000Y-567490000D03*
X407000000Y-567490000D03*
X406370000Y-567490000D03*
X406370000Y-569380000D03*
X407000000Y-569380000D03*
X407630000Y-569380000D03*
D14*
X585570000Y-468510000D03*
X586200000Y-468510000D03*
X586830000Y-468510000D03*
X586830000Y-466620000D03*
X586200000Y-466620000D03*
X585570000Y-466620000D03*
X507170000Y-614110000D03*
X507800000Y-614110000D03*
X508430000Y-614110000D03*
X508430000Y-612220000D03*
X507800000Y-612220000D03*
X507170000Y-612220000D03*
D15*
X452430000Y-668290000D03*
X451800000Y-668290000D03*
X451170000Y-668290000D03*
X451170000Y-670180000D03*
X451800000Y-670180000D03*
X452430000Y-670180000D03*
X497230000Y-377090000D03*
X496600000Y-377090000D03*
X495970000Y-377090000D03*
X495970000Y-378980000D03*
X496600000Y-378980000D03*
X497230000Y-378980000D03*
X407630000Y-433090000D03*
X407000000Y-433090000D03*
X406370000Y-433090000D03*
X406370000Y-434980000D03*
X407000000Y-434980000D03*
X407630000Y-434980000D03*
X430030000Y-354690000D03*
X429400000Y-354690000D03*
X428770000Y-354690000D03*
X428770000Y-356580000D03*
X429400000Y-356580000D03*
X430030000Y-356580000D03*
D14*
X540770000Y-401310000D03*
X541400000Y-401310000D03*
X542030000Y-401310000D03*
X542030000Y-399420000D03*
X541400000Y-399420000D03*
X540770000Y-399420000D03*
D15*
X497230000Y-455490000D03*
X496600000Y-455490000D03*
X495970000Y-455490000D03*
X495970000Y-457380000D03*
X496600000Y-457380000D03*
X497230000Y-457380000D03*
X575630000Y-209090000D03*
X575000000Y-209090000D03*
X574370000Y-209090000D03*
X574370000Y-210980000D03*
X575000000Y-210980000D03*
X575630000Y-210980000D03*
D14*
X507170000Y-602910000D03*
X507800000Y-602910000D03*
X508430000Y-602910000D03*
X508430000Y-601020000D03*
X507800000Y-601020000D03*
X507170000Y-601020000D03*
X462370000Y-278110000D03*
X463000000Y-278110000D03*
X463630000Y-278110000D03*
X463630000Y-276220000D03*
X463000000Y-276220000D03*
X462370000Y-276220000D03*
D15*
X497230000Y-466690000D03*
X496600000Y-466690000D03*
X495970000Y-466690000D03*
X495970000Y-468580000D03*
X496600000Y-468580000D03*
X497230000Y-468580000D03*
X452430000Y-231490000D03*
X451800000Y-231490000D03*
X451170000Y-231490000D03*
X451170000Y-233380000D03*
X451800000Y-233380000D03*
X452430000Y-233380000D03*
D14*
X563170000Y-446110000D03*
X563800000Y-446110000D03*
X564430000Y-446110000D03*
X564430000Y-444220000D03*
X563800000Y-444220000D03*
X563170000Y-444220000D03*
D15*
X452430000Y-489090000D03*
X451800000Y-489090000D03*
X451170000Y-489090000D03*
X451170000Y-490980000D03*
X451800000Y-490980000D03*
X452430000Y-490980000D03*
D14*
X439970000Y-625310000D03*
X440600000Y-625310000D03*
X441230000Y-625310000D03*
X441230000Y-623420000D03*
X440600000Y-623420000D03*
X439970000Y-623420000D03*
D15*
X452430000Y-253890000D03*
X451800000Y-253890000D03*
X451170000Y-253890000D03*
X451170000Y-255780000D03*
X451800000Y-255780000D03*
X452430000Y-255780000D03*
D14*
X462370000Y-255710000D03*
X463000000Y-255710000D03*
X463630000Y-255710000D03*
X463630000Y-253820000D03*
X463000000Y-253820000D03*
X462370000Y-253820000D03*
X563170000Y-591710000D03*
X563800000Y-591710000D03*
X564430000Y-591710000D03*
X564430000Y-589820000D03*
X563800000Y-589820000D03*
X563170000Y-589820000D03*
X585570000Y-513310000D03*
X586200000Y-513310000D03*
X586830000Y-513310000D03*
X586830000Y-511420000D03*
X586200000Y-511420000D03*
X585570000Y-511420000D03*
X507170000Y-580510000D03*
X507800000Y-580510000D03*
X508430000Y-580510000D03*
X508430000Y-578620000D03*
X507800000Y-578620000D03*
X507170000Y-578620000D03*
D15*
X407630000Y-343490000D03*
X407000000Y-343490000D03*
X406370000Y-343490000D03*
X406370000Y-345380000D03*
X407000000Y-345380000D03*
X407630000Y-345380000D03*
D14*
X563170000Y-535710000D03*
X563800000Y-535710000D03*
X564430000Y-535710000D03*
X564430000Y-533820000D03*
X563800000Y-533820000D03*
X563170000Y-533820000D03*
D15*
X452430000Y-545090000D03*
X451800000Y-545090000D03*
X451170000Y-545090000D03*
X451170000Y-546980000D03*
X451800000Y-546980000D03*
X452430000Y-546980000D03*
X530830000Y-533890000D03*
X530200000Y-533890000D03*
X529570000Y-533890000D03*
X529570000Y-535780000D03*
X530200000Y-535780000D03*
X530830000Y-535780000D03*
X497230000Y-209090000D03*
X496600000Y-209090000D03*
X495970000Y-209090000D03*
X495970000Y-210980000D03*
X496600000Y-210980000D03*
X497230000Y-210980000D03*
X474830000Y-578690000D03*
X474200000Y-578690000D03*
X473570000Y-578690000D03*
X473570000Y-580580000D03*
X474200000Y-580580000D03*
X474830000Y-580580000D03*
X497230000Y-433089999D03*
X496600000Y-433089999D03*
X495970000Y-433089999D03*
X495970000Y-434979999D03*
X496600000Y-434979999D03*
X497230000Y-434979999D03*
D14*
X563170000Y-266910000D03*
X563800000Y-266910000D03*
X564430000Y-266910000D03*
X564430000Y-265020000D03*
X563800000Y-265020000D03*
X563170000Y-265020000D03*
X563170000Y-289310000D03*
X563800000Y-289310000D03*
X564430000Y-289310000D03*
X564430000Y-287420000D03*
X563800000Y-287420000D03*
X563170000Y-287420000D03*
D15*
X407630000Y-298690000D03*
X407000000Y-298690000D03*
X406370000Y-298690000D03*
X406370000Y-300580000D03*
X407000000Y-300580000D03*
X407630000Y-300580000D03*
D14*
X484770000Y-378910000D03*
X485400000Y-378910000D03*
X486030000Y-378910000D03*
X486030000Y-377020000D03*
X485400000Y-377020000D03*
X484770000Y-377020000D03*
X507170000Y-412510000D03*
X507800000Y-412510000D03*
X508430000Y-412510000D03*
X508430000Y-410620000D03*
X507800000Y-410620000D03*
X507170000Y-410620000D03*
X417570000Y-479710000D03*
X418200000Y-479710000D03*
X418830000Y-479710000D03*
X418830000Y-477820000D03*
X418200000Y-477820000D03*
X417570000Y-477820000D03*
D15*
X474830000Y-298690000D03*
X474200000Y-298690000D03*
X473570000Y-298690000D03*
X473570000Y-300580000D03*
X474200000Y-300580000D03*
X474830000Y-300580000D03*
X452430000Y-477890000D03*
X451800000Y-477890000D03*
X451170000Y-477890000D03*
X451170000Y-479780000D03*
X451800000Y-479780000D03*
X452430000Y-479780000D03*
D14*
X507170000Y-546910000D03*
X507800000Y-546910000D03*
X508430000Y-546910000D03*
X508430000Y-545020000D03*
X507800000Y-545020000D03*
X507170000Y-545020000D03*
X417570000Y-647710001D03*
X418200000Y-647710001D03*
X418830000Y-647710001D03*
X418830000Y-645820001D03*
X418200000Y-645820001D03*
X417570000Y-645820001D03*
D16*
X574600000Y-204500000D03*
X574600000Y-204500000D03*
D14*
X518370000Y-300510000D03*
X519000000Y-300510000D03*
X519630000Y-300510000D03*
X519630000Y-298620000D03*
X519000000Y-298620000D03*
X518370000Y-298620000D03*
X518370000Y-658910000D03*
X519000000Y-658910000D03*
X519630000Y-658910000D03*
X519630000Y-657020000D03*
X519000000Y-657020000D03*
X518370000Y-657020000D03*
D17*
X614500000Y-361500000D03*
D15*
X530830000Y-321090000D03*
X530200000Y-321090000D03*
X529570000Y-321090000D03*
X529570000Y-322980000D03*
X530200000Y-322980000D03*
X530830000Y-322980000D03*
X474830000Y-455490000D03*
X474200000Y-455490000D03*
X473570000Y-455490000D03*
X473570000Y-457380000D03*
X474200000Y-457380000D03*
X474830000Y-457380000D03*
D14*
X484770000Y-390110000D03*
X485400000Y-390110000D03*
X486030000Y-390110000D03*
X486030000Y-388220000D03*
X485400000Y-388220000D03*
X484770000Y-388220000D03*
D15*
X620430000Y-421890000D03*
X619800000Y-421890000D03*
X619170000Y-421890000D03*
X619170000Y-423780000D03*
X619800000Y-423780000D03*
X620430000Y-423780000D03*
X530830000Y-433090000D03*
X530200000Y-433090000D03*
X529570000Y-433090000D03*
X529570000Y-434980000D03*
X530200000Y-434980000D03*
X530830000Y-434980000D03*
X598030000Y-309890000D03*
X597400000Y-309890000D03*
X596770000Y-309890000D03*
X596770000Y-311780000D03*
X597400000Y-311780000D03*
X598030000Y-311780000D03*
X530830000Y-343490000D03*
X530200000Y-343490000D03*
X529570000Y-343490000D03*
X529570000Y-345380000D03*
X530200000Y-345380000D03*
X530830000Y-345380000D03*
D14*
X518370000Y-222110000D03*
X519000000Y-222110000D03*
X519630000Y-222110000D03*
X519630000Y-220220000D03*
X519000000Y-220220000D03*
X518370000Y-220220000D03*
X439970000Y-390110000D03*
X440600000Y-390110000D03*
X441230000Y-390110000D03*
X441230000Y-388220000D03*
X440600000Y-388220000D03*
X439970000Y-388220000D03*
X417570000Y-289310000D03*
X418200000Y-289310000D03*
X418830000Y-289310000D03*
X418830000Y-287420000D03*
X418200000Y-287420000D03*
X417570000Y-287420000D03*
X439970000Y-334110000D03*
X440600000Y-334110000D03*
X441230000Y-334110000D03*
X441230000Y-332220000D03*
X440600000Y-332220000D03*
X439970000Y-332220000D03*
X518370000Y-210910000D03*
X519000000Y-210910000D03*
X519630000Y-210910000D03*
X519630000Y-209020000D03*
X519000000Y-209020000D03*
X518370000Y-209020000D03*
X518370000Y-524510000D03*
X519000000Y-524510000D03*
X519630000Y-524510000D03*
X519630000Y-522620000D03*
X519000000Y-522620000D03*
X518370000Y-522620000D03*
X417570000Y-255710001D03*
X418200000Y-255710001D03*
X418830000Y-255710001D03*
X418830000Y-253820001D03*
X418200000Y-253820001D03*
X417570000Y-253820001D03*
D15*
X553230000Y-657090000D03*
X552600000Y-657090000D03*
X551970000Y-657090000D03*
X551970000Y-658980000D03*
X552600000Y-658980000D03*
X553230000Y-658980000D03*
D13*
X446250000Y-204485000D03*
X446250000Y-204485000D03*
X448950000Y-204485000D03*
X448950000Y-204485000D03*
D14*
X417570000Y-636510000D03*
X418200000Y-636510000D03*
X418830000Y-636510000D03*
X418830000Y-634620000D03*
X418200000Y-634620000D03*
X417570000Y-634620000D03*
D15*
X452430000Y-455490000D03*
X451800000Y-455490000D03*
X451170000Y-455490000D03*
X451170000Y-457380000D03*
X451800000Y-457380000D03*
X452430000Y-457380000D03*
X452430000Y-522690000D03*
X451800000Y-522690000D03*
X451170000Y-522690000D03*
X451170000Y-524580000D03*
X451800000Y-524580000D03*
X452430000Y-524580000D03*
X430030000Y-231490000D03*
X429400000Y-231490000D03*
X428770000Y-231490000D03*
X428770000Y-233380000D03*
X429400000Y-233380000D03*
X430030000Y-233380000D03*
X474830000Y-332290000D03*
X474200000Y-332290000D03*
X473570000Y-332290000D03*
X473570000Y-334180000D03*
X474200000Y-334180000D03*
X474830000Y-334180000D03*
X430030000Y-253890001D03*
X429400000Y-253890001D03*
X428770000Y-253890001D03*
X428770000Y-255780001D03*
X429400000Y-255780001D03*
X430030000Y-255780001D03*
X598030000Y-231490000D03*
X597400000Y-231490000D03*
X596770000Y-231490000D03*
X596770000Y-233380000D03*
X597400000Y-233380000D03*
X598030000Y-233380000D03*
X575630000Y-265090000D03*
X575000000Y-265090000D03*
X574370000Y-265090000D03*
X574370000Y-266980000D03*
X575000000Y-266980000D03*
X575630000Y-266980000D03*
X598030000Y-399490000D03*
X597400000Y-399490000D03*
X596770000Y-399490000D03*
X596770000Y-401380000D03*
X597400000Y-401380000D03*
X598030000Y-401380000D03*
X430030000Y-645890000D03*
X429400000Y-645890000D03*
X428770000Y-645890000D03*
X428770000Y-647780000D03*
X429400000Y-647780000D03*
X430030000Y-647780000D03*
X620430000Y-612290000D03*
X619800000Y-612290000D03*
X619170000Y-612290000D03*
X619170000Y-614180000D03*
X619800000Y-614180000D03*
X620430000Y-614180000D03*
D14*
X507170000Y-490909999D03*
X507800000Y-490909999D03*
X508430000Y-490909999D03*
X508430000Y-489019999D03*
X507800000Y-489019999D03*
X507170000Y-489019999D03*
D15*
X575630000Y-567490000D03*
X575000000Y-567490000D03*
X574370000Y-567490000D03*
X574370000Y-569380000D03*
X575000000Y-569380000D03*
X575630000Y-569380000D03*
D14*
X540770000Y-390110000D03*
X541400000Y-390110000D03*
X542030000Y-390110000D03*
X542030000Y-388220000D03*
X541400000Y-388220000D03*
X540770000Y-388220000D03*
D15*
X497230000Y-309890000D03*
X496600000Y-309890000D03*
X495970000Y-309890000D03*
X495970000Y-311780000D03*
X496600000Y-311780000D03*
X497230000Y-311780000D03*
D14*
X462370000Y-345310000D03*
X463000000Y-345310000D03*
X463630000Y-345310000D03*
X463630000Y-343420000D03*
X463000000Y-343420000D03*
X462370000Y-343420000D03*
X507170000Y-434909999D03*
X507800000Y-434909999D03*
X508430000Y-434909999D03*
X508430000Y-433019999D03*
X507800000Y-433019999D03*
X507170000Y-433019999D03*
X417570000Y-300510000D03*
X418200000Y-300510000D03*
X418830000Y-300510000D03*
X418830000Y-298620000D03*
X418200000Y-298620000D03*
X417570000Y-298620000D03*
D15*
X620430000Y-634690000D03*
X619800000Y-634690000D03*
X619170000Y-634690000D03*
X619170000Y-636580000D03*
X619800000Y-636580000D03*
X620430000Y-636580000D03*
X620430000Y-377090000D03*
X619800000Y-377090000D03*
X619170000Y-377090000D03*
X619170000Y-378980000D03*
X619800000Y-378980000D03*
X620430000Y-378980000D03*
X575630000Y-377090001D03*
X575000000Y-377090001D03*
X574370000Y-377090001D03*
X574370000Y-378980001D03*
X575000000Y-378980001D03*
X575630000Y-378980001D03*
D13*
X596200000Y-204500000D03*
X596200000Y-204500000D03*
X598900000Y-204500000D03*
X598900000Y-204500000D03*
D14*
X585570000Y-278110000D03*
X586200000Y-278110000D03*
X586830000Y-278110000D03*
X586830000Y-276220000D03*
X586200000Y-276220000D03*
X585570000Y-276220000D03*
X563170000Y-580510000D03*
X563800000Y-580510000D03*
X564430000Y-580510000D03*
X564430000Y-578620000D03*
X563800000Y-578620000D03*
X563170000Y-578620000D03*
X462370000Y-647710000D03*
X463000000Y-647710000D03*
X463630000Y-647710000D03*
X463630000Y-645820000D03*
X463000000Y-645820000D03*
X462370000Y-645820000D03*
X607970000Y-490910000D03*
X608600000Y-490910000D03*
X609230000Y-490910000D03*
X609230000Y-489020000D03*
X608600000Y-489020000D03*
X607970000Y-489020000D03*
D15*
X452430000Y-242690000D03*
X451800000Y-242690000D03*
X451170000Y-242690000D03*
X451170000Y-244580000D03*
X451800000Y-244580000D03*
X452430000Y-244580000D03*
X474830000Y-433090000D03*
X474200000Y-433090000D03*
X473570000Y-433090000D03*
X473570000Y-434980000D03*
X474200000Y-434980000D03*
X474830000Y-434980000D03*
X530830000Y-377090000D03*
X530200000Y-377090000D03*
X529570000Y-377090000D03*
X529570000Y-378980000D03*
X530200000Y-378980000D03*
X530830000Y-378980000D03*
D14*
X607970000Y-434910000D03*
X608600000Y-434910000D03*
X609230000Y-434910000D03*
X609230000Y-433020000D03*
X608600000Y-433020000D03*
X607970000Y-433020000D03*
X417570000Y-233310000D03*
X418200000Y-233310000D03*
X418830000Y-233310000D03*
X418830000Y-231420000D03*
X418200000Y-231420000D03*
X417570000Y-231420000D03*
X484770000Y-479710000D03*
X485400000Y-479710000D03*
X486030000Y-479710000D03*
X486030000Y-477820000D03*
X485400000Y-477820000D03*
X484770000Y-477820000D03*
D15*
X430030000Y-589890001D03*
X429400000Y-589890001D03*
X428770000Y-589890001D03*
X428770000Y-591780001D03*
X429400000Y-591780001D03*
X430030000Y-591780001D03*
D16*
X470600000Y-204500000D03*
X470600000Y-204500000D03*
D14*
X607970000Y-591710000D03*
X608600000Y-591710000D03*
X609230000Y-591710000D03*
X609230000Y-589820000D03*
X608600000Y-589820000D03*
X607970000Y-589820000D03*
D15*
X430030000Y-332290000D03*
X429400000Y-332290000D03*
X428770000Y-332290000D03*
X428770000Y-334180000D03*
X429400000Y-334180000D03*
X430030000Y-334180000D03*
D14*
X417570000Y-434910000D03*
X418200000Y-434910000D03*
X418830000Y-434910000D03*
X418830000Y-433020000D03*
X418200000Y-433020000D03*
X417570000Y-433020000D03*
D15*
X553230000Y-399490000D03*
X552600000Y-399490000D03*
X551970000Y-399490000D03*
X551970000Y-401380000D03*
X552600000Y-401380000D03*
X553230000Y-401380000D03*
X553230000Y-556289999D03*
X552600000Y-556289999D03*
X551970000Y-556289999D03*
X551970000Y-558179999D03*
X552600000Y-558179999D03*
X553230000Y-558179999D03*
X497230000Y-634689999D03*
X496600000Y-634689999D03*
X495970000Y-634689999D03*
X495970000Y-636579999D03*
X496600000Y-636579999D03*
X497230000Y-636579999D03*
D14*
X462370000Y-558110000D03*
X463000000Y-558110000D03*
X463630000Y-558110000D03*
X463630000Y-556220000D03*
X463000000Y-556220000D03*
X462370000Y-556220000D03*
X518370000Y-412510000D03*
X519000000Y-412510000D03*
X519630000Y-412510000D03*
X519630000Y-410620000D03*
X519000000Y-410620000D03*
X518370000Y-410620000D03*
D15*
X553230000Y-567489999D03*
X552600000Y-567489999D03*
X551970000Y-567489999D03*
X551970000Y-569379999D03*
X552600000Y-569379999D03*
X553230000Y-569379999D03*
X407630000Y-500290000D03*
X407000000Y-500290000D03*
X406370000Y-500290000D03*
X406370000Y-502180000D03*
X407000000Y-502180000D03*
X407630000Y-502180000D03*
D14*
X607970000Y-233310000D03*
X608600000Y-233310000D03*
X609230000Y-233310000D03*
X609230000Y-231420000D03*
X608600000Y-231420000D03*
X607970000Y-231420000D03*
D15*
X452430000Y-343490000D03*
X451800000Y-343490000D03*
X451170000Y-343490000D03*
X451170000Y-345380000D03*
X451800000Y-345380000D03*
X452430000Y-345380000D03*
D14*
X518370000Y-625310000D03*
X519000000Y-625310000D03*
X519630000Y-625310000D03*
X519630000Y-623420000D03*
X519000000Y-623420000D03*
X518370000Y-623420000D03*
X540770000Y-311710000D03*
X541400000Y-311710000D03*
X542030000Y-311710000D03*
X542030000Y-309820000D03*
X541400000Y-309820000D03*
X540770000Y-309820000D03*
D15*
X497230000Y-242690000D03*
X496600000Y-242690000D03*
X495970000Y-242690000D03*
X495970000Y-244580000D03*
X496600000Y-244580000D03*
X497230000Y-244580000D03*
D14*
X607970000Y-670110000D03*
X608600000Y-670110000D03*
X609230000Y-670110000D03*
X609230000Y-668220000D03*
X608600000Y-668220000D03*
X607970000Y-668220000D03*
D15*
X452430000Y-466690000D03*
X451800000Y-466690000D03*
X451170000Y-466690000D03*
X451170000Y-468580000D03*
X451800000Y-468580000D03*
X452430000Y-468580000D03*
D14*
X484770000Y-535710000D03*
X485400000Y-535710000D03*
X486030000Y-535710000D03*
X486030000Y-533820000D03*
X485400000Y-533820000D03*
X484770000Y-533820000D03*
D15*
X575630000Y-253890001D03*
X575000000Y-253890001D03*
X574370000Y-253890001D03*
X574370000Y-255780001D03*
X575000000Y-255780001D03*
X575630000Y-255780001D03*
D14*
X417570000Y-345310000D03*
X418200000Y-345310000D03*
X418830000Y-345310000D03*
X418830000Y-343420000D03*
X418200000Y-343420000D03*
X417570000Y-343420000D03*
X417570000Y-266910000D03*
X418200000Y-266910000D03*
X418830000Y-266910000D03*
X418830000Y-265020000D03*
X418200000Y-265020000D03*
X417570000Y-265020000D03*
X462370000Y-636510000D03*
X463000000Y-636510000D03*
X463630000Y-636510000D03*
X463630000Y-634620000D03*
X463000000Y-634620000D03*
X462370000Y-634620000D03*
X484770000Y-591710000D03*
X485400000Y-591710000D03*
X486030000Y-591710000D03*
X486030000Y-589820000D03*
X485400000Y-589820000D03*
X484770000Y-589820000D03*
X507170000Y-390110000D03*
X507800000Y-390110000D03*
X508430000Y-390110000D03*
X508430000Y-388220000D03*
X507800000Y-388220000D03*
X507170000Y-388220000D03*
X607970000Y-468510000D03*
X608600000Y-468510000D03*
X609230000Y-468510000D03*
X609230000Y-466620000D03*
X608600000Y-466620000D03*
X607970000Y-466620000D03*
X417570000Y-670110000D03*
X418200000Y-670110000D03*
X418830000Y-670110000D03*
X418830000Y-668220000D03*
X418200000Y-668220000D03*
X417570000Y-668220000D03*
D15*
X553230000Y-365889999D03*
X552600000Y-365889999D03*
X551970000Y-365889999D03*
X551970000Y-367779999D03*
X552600000Y-367779999D03*
X553230000Y-367779999D03*
D14*
X540770000Y-647710000D03*
X541400000Y-647710000D03*
X542030000Y-647710000D03*
X542030000Y-645820000D03*
X541400000Y-645820000D03*
X540770000Y-645820000D03*
D15*
X598030000Y-444290000D03*
X597400000Y-444290000D03*
X596770000Y-444290000D03*
X596770000Y-446180000D03*
X597400000Y-446180000D03*
X598030000Y-446180000D03*
D14*
X439970000Y-569310000D03*
X440600000Y-569310000D03*
X441230000Y-569310000D03*
X441230000Y-567420000D03*
X440600000Y-567420000D03*
X439970000Y-567420000D03*
X585570000Y-210910000D03*
X586200000Y-210910000D03*
X586830000Y-210910000D03*
X586830000Y-209020000D03*
X586200000Y-209020000D03*
X585570000Y-209020000D03*
D15*
X452430000Y-500290000D03*
X451800000Y-500290000D03*
X451170000Y-500290000D03*
X451170000Y-502180000D03*
X451800000Y-502180000D03*
X452430000Y-502180000D03*
D14*
X439970000Y-356510000D03*
X440600000Y-356510000D03*
X441230000Y-356510000D03*
X441230000Y-354620000D03*
X440600000Y-354620000D03*
X439970000Y-354620000D03*
X417570000Y-569310000D03*
X418200000Y-569310000D03*
X418830000Y-569310000D03*
X418830000Y-567420000D03*
X418200000Y-567420000D03*
X417570000Y-567420000D03*
D15*
X407630000Y-220290000D03*
X407000000Y-220290000D03*
X406370000Y-220290000D03*
X406370000Y-222180000D03*
X407000000Y-222180000D03*
X407630000Y-222180000D03*
X575630000Y-522690000D03*
X575000000Y-522690000D03*
X574370000Y-522690000D03*
X574370000Y-524580000D03*
X575000000Y-524580000D03*
X575630000Y-524580000D03*
D14*
X518370000Y-401310000D03*
X519000000Y-401310000D03*
X519630000Y-401310000D03*
X519630000Y-399420000D03*
X519000000Y-399420000D03*
X518370000Y-399420000D03*
D15*
X452430000Y-220290000D03*
X451800000Y-220290000D03*
X451170000Y-220290000D03*
X451170000Y-222180000D03*
X451800000Y-222180000D03*
X452430000Y-222180000D03*
D14*
X507170000Y-233309999D03*
X507800000Y-233309999D03*
X508430000Y-233309999D03*
X508430000Y-231419999D03*
X507800000Y-231419999D03*
X507170000Y-231419999D03*
X439970000Y-244510000D03*
X440600000Y-244510000D03*
X441230000Y-244510000D03*
X441230000Y-242620000D03*
X440600000Y-242620000D03*
X439970000Y-242620000D03*
D15*
X553230000Y-645890000D03*
X552600000Y-645890000D03*
X551970000Y-645890000D03*
X551970000Y-647780000D03*
X552600000Y-647780000D03*
X553230000Y-647780000D03*
D14*
X563170000Y-378910000D03*
X563800000Y-378910000D03*
X564430000Y-378910000D03*
X564430000Y-377020000D03*
X563800000Y-377020000D03*
X563170000Y-377020000D03*
D16*
X461400000Y-204500000D03*
X461400000Y-204500000D03*
D15*
X430030000Y-388290001D03*
X429400000Y-388290001D03*
X428770000Y-388290001D03*
X428770000Y-390180001D03*
X429400000Y-390180001D03*
X430030000Y-390180001D03*
D14*
X563170000Y-345310000D03*
X563800000Y-345310000D03*
X564430000Y-345310000D03*
X564430000Y-343420000D03*
X563800000Y-343420000D03*
X563170000Y-343420000D03*
D15*
X407630000Y-477890000D03*
X407000000Y-477890000D03*
X406370000Y-477890000D03*
X406370000Y-479780000D03*
X407000000Y-479780000D03*
X407630000Y-479780000D03*
D14*
X417570000Y-390110001D03*
X418200000Y-390110001D03*
X418830000Y-390110001D03*
X418830000Y-388220001D03*
X418200000Y-388220001D03*
X417570000Y-388220001D03*
D16*
X565400000Y-204500000D03*
X565400000Y-204500000D03*
D15*
X407630000Y-421890000D03*
X407000000Y-421890000D03*
X406370000Y-421890000D03*
X406370000Y-423780000D03*
X407000000Y-423780000D03*
X407630000Y-423780000D03*
X430030000Y-612290000D03*
X429400000Y-612290000D03*
X428770000Y-612290000D03*
X428770000Y-614180000D03*
X429400000Y-614180000D03*
X430030000Y-614180000D03*
X497230000Y-354689999D03*
X496600000Y-354689999D03*
X495970000Y-354689999D03*
X495970000Y-356579999D03*
X496600000Y-356579999D03*
X497230000Y-356579999D03*
D14*
X462370000Y-300510000D03*
X463000000Y-300510000D03*
X463630000Y-300510000D03*
X463630000Y-298620000D03*
X463000000Y-298620000D03*
X462370000Y-298620000D03*
X540770000Y-569310000D03*
X541400000Y-569310000D03*
X542030000Y-569310000D03*
X542030000Y-567420000D03*
X541400000Y-567420000D03*
X540770000Y-567420000D03*
D15*
X553230000Y-623489999D03*
X552600000Y-623489999D03*
X551970000Y-623489999D03*
X551970000Y-625379999D03*
X552600000Y-625379999D03*
X553230000Y-625379999D03*
D14*
X507170000Y-222109999D03*
X507800000Y-222109999D03*
X508430000Y-222109999D03*
X508430000Y-220219999D03*
X507800000Y-220219999D03*
X507170000Y-220219999D03*
X540770000Y-378910000D03*
X541400000Y-378910000D03*
X542030000Y-378910000D03*
X542030000Y-377020000D03*
X541400000Y-377020000D03*
X540770000Y-377020000D03*
D15*
X575630000Y-612290000D03*
X575000000Y-612290000D03*
X574370000Y-612290000D03*
X574370000Y-614180000D03*
X575000000Y-614180000D03*
X575630000Y-614180000D03*
X497230000Y-522690000D03*
X496600000Y-522690000D03*
X495970000Y-522690000D03*
X495970000Y-524580000D03*
X496600000Y-524580000D03*
X497230000Y-524580000D03*
D14*
X607970000Y-412510000D03*
X608600000Y-412510000D03*
X609230000Y-412510000D03*
X609230000Y-410620000D03*
X608600000Y-410620000D03*
X607970000Y-410620000D03*
X585570000Y-356510000D03*
X586200000Y-356510000D03*
X586830000Y-356510000D03*
X586830000Y-354620000D03*
X586200000Y-354620000D03*
X585570000Y-354620000D03*
X484770000Y-524510000D03*
X485400000Y-524510000D03*
X486030000Y-524510000D03*
X486030000Y-522620000D03*
X485400000Y-522620000D03*
X484770000Y-522620000D03*
D15*
X452430000Y-377090000D03*
X451800000Y-377090000D03*
X451170000Y-377090000D03*
X451170000Y-378980000D03*
X451800000Y-378980000D03*
X452430000Y-378980000D03*
D14*
X484770000Y-602910000D03*
X485400000Y-602910000D03*
X486030000Y-602910000D03*
X486030000Y-601020000D03*
X485400000Y-601020000D03*
X484770000Y-601020000D03*
D15*
X407630000Y-365890000D03*
X407000000Y-365890000D03*
X406370000Y-365890000D03*
X406370000Y-367780000D03*
X407000000Y-367780000D03*
X407630000Y-367780000D03*
D14*
X507170000Y-670110000D03*
X507800000Y-670110000D03*
X508430000Y-670110000D03*
X508430000Y-668220000D03*
X507800000Y-668220000D03*
X507170000Y-668220000D03*
X417570000Y-513310001D03*
X418200000Y-513310001D03*
X418830000Y-513310001D03*
X418830000Y-511420001D03*
X418200000Y-511420001D03*
X417570000Y-511420001D03*
D15*
X598030000Y-242690000D03*
X597400000Y-242690000D03*
X596770000Y-242690000D03*
X596770000Y-244580000D03*
X597400000Y-244580000D03*
X598030000Y-244580000D03*
D14*
X540770000Y-210910000D03*
X541400000Y-210910000D03*
X542030000Y-210910000D03*
X542030000Y-209020000D03*
X541400000Y-209020000D03*
X540770000Y-209020000D03*
D15*
X553230000Y-388290000D03*
X552600000Y-388290000D03*
X551970000Y-388290000D03*
X551970000Y-390180000D03*
X552600000Y-390180000D03*
X553230000Y-390180000D03*
X474830000Y-276290000D03*
X474200000Y-276290000D03*
X473570000Y-276290000D03*
X473570000Y-278180000D03*
X474200000Y-278180000D03*
X474830000Y-278180000D03*
D14*
X563170000Y-222109999D03*
X563800000Y-222109999D03*
X564430000Y-222109999D03*
X564430000Y-220219999D03*
X563800000Y-220219999D03*
X563170000Y-220219999D03*
X462370000Y-502110000D03*
X463000000Y-502110000D03*
X463630000Y-502110000D03*
X463630000Y-500220000D03*
X463000000Y-500220000D03*
X462370000Y-500220000D03*
D15*
X430030000Y-410690000D03*
X429400000Y-410690000D03*
X428770000Y-410690000D03*
X428770000Y-412580000D03*
X429400000Y-412580000D03*
X430030000Y-412580000D03*
D14*
X462370000Y-446110000D03*
X463000000Y-446110000D03*
X463630000Y-446110000D03*
X463630000Y-444220000D03*
X463000000Y-444220000D03*
X462370000Y-444220000D03*
D15*
X452430000Y-388290000D03*
X451800000Y-388290000D03*
X451170000Y-388290000D03*
X451170000Y-390180000D03*
X451800000Y-390180000D03*
X452430000Y-390180000D03*
X407630000Y-332290000D03*
X407000000Y-332290000D03*
X406370000Y-332290000D03*
X406370000Y-334180000D03*
X407000000Y-334180000D03*
X407630000Y-334180000D03*
X474830000Y-265090000D03*
X474200000Y-265090000D03*
X473570000Y-265090000D03*
X473570000Y-266980000D03*
X474200000Y-266980000D03*
X474830000Y-266980000D03*
X575630000Y-466690000D03*
X575000000Y-466690000D03*
X574370000Y-466690000D03*
X574370000Y-468580000D03*
X575000000Y-468580000D03*
X575630000Y-468580000D03*
X598030000Y-634690000D03*
X597400000Y-634690000D03*
X596770000Y-634690000D03*
X596770000Y-636580000D03*
X597400000Y-636580000D03*
X598030000Y-636580000D03*
D14*
X540770000Y-446110000D03*
X541400000Y-446110000D03*
X542030000Y-446110000D03*
X542030000Y-444220000D03*
X541400000Y-444220000D03*
X540770000Y-444220000D03*
X607970000Y-535710000D03*
X608600000Y-535710000D03*
X609230000Y-535710000D03*
X609230000Y-533820000D03*
X608600000Y-533820000D03*
X607970000Y-533820000D03*
X540770000Y-670110000D03*
X541400000Y-670110000D03*
X542030000Y-670110000D03*
X542030000Y-668220000D03*
X541400000Y-668220000D03*
X540770000Y-668220000D03*
D15*
X474830000Y-601090000D03*
X474200000Y-601090000D03*
X473570000Y-601090000D03*
X473570000Y-602980000D03*
X474200000Y-602980000D03*
X474830000Y-602980000D03*
X474830000Y-500290000D03*
X474200000Y-500290000D03*
X473570000Y-500290000D03*
X473570000Y-502180000D03*
X474200000Y-502180000D03*
X474830000Y-502180000D03*
D14*
X439970000Y-457310000D03*
X440600000Y-457310000D03*
X441230000Y-457310000D03*
X441230000Y-455420000D03*
X440600000Y-455420000D03*
X439970000Y-455420000D03*
D15*
X575630000Y-489090000D03*
X575000000Y-489090000D03*
X574370000Y-489090000D03*
X574370000Y-490980000D03*
X575000000Y-490980000D03*
X575630000Y-490980000D03*
D14*
X563170000Y-569309999D03*
X563800000Y-569309999D03*
X564430000Y-569309999D03*
X564430000Y-567419999D03*
X563800000Y-567419999D03*
X563170000Y-567419999D03*
D15*
X474830000Y-253890000D03*
X474200000Y-253890000D03*
X473570000Y-253890000D03*
X473570000Y-255780000D03*
X474200000Y-255780000D03*
X474830000Y-255780000D03*
D14*
X563170000Y-255710000D03*
X563800000Y-255710000D03*
X564430000Y-255710000D03*
X564430000Y-253820000D03*
X563800000Y-253820000D03*
X563170000Y-253820000D03*
D15*
X620430000Y-433090000D03*
X619800000Y-433090000D03*
X619170000Y-433090000D03*
X619170000Y-434980000D03*
X619800000Y-434980000D03*
X620430000Y-434980000D03*
X430030000Y-511490000D03*
X429400000Y-511490000D03*
X428770000Y-511490000D03*
X428770000Y-513380000D03*
X429400000Y-513380000D03*
X430030000Y-513380000D03*
X553230000Y-601090000D03*
X552600000Y-601090000D03*
X551970000Y-601090000D03*
X551970000Y-602980000D03*
X552600000Y-602980000D03*
X553230000Y-602980000D03*
X598030000Y-354690000D03*
X597400000Y-354690000D03*
X596770000Y-354690000D03*
X596770000Y-356580000D03*
X597400000Y-356580000D03*
X598030000Y-356580000D03*
D14*
X439970000Y-289310000D03*
X440600000Y-289310000D03*
X441230000Y-289310000D03*
X441230000Y-287420000D03*
X440600000Y-287420000D03*
X439970000Y-287420000D03*
D15*
X407630000Y-522690001D03*
X407000000Y-522690001D03*
X406370000Y-522690001D03*
X406370000Y-524580001D03*
X407000000Y-524580001D03*
X407630000Y-524580001D03*
D14*
X518370000Y-334110000D03*
X519000000Y-334110000D03*
X519630000Y-334110000D03*
X519630000Y-332220000D03*
X519000000Y-332220000D03*
X518370000Y-332220000D03*
D15*
X598030000Y-276290000D03*
X597400000Y-276290000D03*
X596770000Y-276290000D03*
X596770000Y-278180000D03*
X597400000Y-278180000D03*
X598030000Y-278180000D03*
D13*
X418650000Y-204485000D03*
X418650000Y-204485000D03*
X421350000Y-204485000D03*
X421350000Y-204485000D03*
D15*
X530830000Y-477890000D03*
X530200000Y-477890000D03*
X529570000Y-477890000D03*
X529570000Y-479780000D03*
X530200000Y-479780000D03*
X530830000Y-479780000D03*
D14*
X607970000Y-322910000D03*
X608600000Y-322910000D03*
X609230000Y-322910000D03*
X609230000Y-321020000D03*
X608600000Y-321020000D03*
X607970000Y-321020000D03*
D15*
X474830000Y-444290000D03*
X474200000Y-444290000D03*
X473570000Y-444290000D03*
X473570000Y-446180000D03*
X474200000Y-446180000D03*
X474830000Y-446180000D03*
D13*
X437050000Y-204485000D03*
X437050000Y-204485000D03*
X439750000Y-204485000D03*
X439750000Y-204485000D03*
D15*
X575630000Y-309890001D03*
X575000000Y-309890001D03*
X574370000Y-309890001D03*
X574370000Y-311780001D03*
X575000000Y-311780001D03*
X575630000Y-311780001D03*
X530830000Y-410690000D03*
X530200000Y-410690000D03*
X529570000Y-410690000D03*
X529570000Y-412580000D03*
X530200000Y-412580000D03*
X530830000Y-412580000D03*
D13*
X559450000Y-204485000D03*
X559450000Y-204485000D03*
X562150000Y-204485000D03*
X562150000Y-204485000D03*
D15*
X474830000Y-209090000D03*
X474200000Y-209090000D03*
X473570000Y-209090000D03*
X473570000Y-210980000D03*
X474200000Y-210980000D03*
X474830000Y-210980000D03*
X530830000Y-220290000D03*
X530200000Y-220290000D03*
X529570000Y-220290000D03*
X529570000Y-222180000D03*
X530200000Y-222180000D03*
X530830000Y-222180000D03*
D14*
X585570000Y-546910000D03*
X586200000Y-546910000D03*
X586830000Y-546910000D03*
X586830000Y-545020000D03*
X586200000Y-545020000D03*
X585570000Y-545020000D03*
D15*
X620430000Y-287490000D03*
X619800000Y-287490000D03*
X619170000Y-287490000D03*
X619170000Y-289380000D03*
X619800000Y-289380000D03*
X620430000Y-289380000D03*
D14*
X585570000Y-367710000D03*
X586200000Y-367710000D03*
X586830000Y-367710000D03*
X586830000Y-365820000D03*
X586200000Y-365820000D03*
X585570000Y-365820000D03*
X439970000Y-580510000D03*
X440600000Y-580510000D03*
X441230000Y-580510000D03*
X441230000Y-578620000D03*
X440600000Y-578620000D03*
X439970000Y-578620000D03*
X607970000Y-401310000D03*
X608600000Y-401310000D03*
X609230000Y-401310000D03*
X609230000Y-399420000D03*
X608600000Y-399420000D03*
X607970000Y-399420000D03*
X518370000Y-558110000D03*
X519000000Y-558110000D03*
X519630000Y-558110000D03*
X519630000Y-556220000D03*
X519000000Y-556220000D03*
X518370000Y-556220000D03*
D15*
X497230000Y-399490000D03*
X496600000Y-399490000D03*
X495970000Y-399490000D03*
X495970000Y-401380000D03*
X496600000Y-401380000D03*
X497230000Y-401380000D03*
D13*
X464650000Y-204485000D03*
X464650000Y-204485000D03*
X467350000Y-204485000D03*
X467350000Y-204485000D03*
D14*
X417570000Y-446110001D03*
X418200000Y-446110001D03*
X418830000Y-446110001D03*
X418830000Y-444220001D03*
X418200000Y-444220001D03*
X417570000Y-444220001D03*
D15*
X452430000Y-309890000D03*
X451800000Y-309890000D03*
X451170000Y-309890000D03*
X451170000Y-311780000D03*
X451800000Y-311780000D03*
X452430000Y-311780000D03*
X452430000Y-533890000D03*
X451800000Y-533890000D03*
X451170000Y-533890000D03*
X451170000Y-535780000D03*
X451800000Y-535780000D03*
X452430000Y-535780000D03*
D14*
X462370000Y-591710000D03*
X463000000Y-591710000D03*
X463630000Y-591710000D03*
X463630000Y-589820000D03*
X463000000Y-589820000D03*
X462370000Y-589820000D03*
X484770000Y-289309999D03*
X485400000Y-289309999D03*
X486030000Y-289309999D03*
X486030000Y-287419999D03*
X485400000Y-287419999D03*
X484770000Y-287419999D03*
X585570000Y-266910000D03*
X586200000Y-266910000D03*
X586830000Y-266910000D03*
X586830000Y-265020000D03*
X586200000Y-265020000D03*
X585570000Y-265020000D03*
D15*
X474830000Y-388290000D03*
X474200000Y-388290000D03*
X473570000Y-388290000D03*
X473570000Y-390180000D03*
X474200000Y-390180000D03*
X474830000Y-390180000D03*
X553230000Y-466690000D03*
X552600000Y-466690000D03*
X551970000Y-466690000D03*
X551970000Y-468580000D03*
X552600000Y-468580000D03*
X553230000Y-468580000D03*
D14*
X439970000Y-468510000D03*
X440600000Y-468510000D03*
X441230000Y-468510000D03*
X441230000Y-466620000D03*
X440600000Y-466620000D03*
X439970000Y-466620000D03*
X540770000Y-479710000D03*
X541400000Y-479710000D03*
X542030000Y-479710000D03*
X542030000Y-477820000D03*
X541400000Y-477820000D03*
X540770000Y-477820000D03*
D15*
X575630000Y-354690000D03*
X575000000Y-354690000D03*
X574370000Y-354690000D03*
X574370000Y-356580000D03*
X575000000Y-356580000D03*
X575630000Y-356580000D03*
D14*
X462370000Y-535710000D03*
X463000000Y-535710000D03*
X463630000Y-535710000D03*
X463630000Y-533820000D03*
X463000000Y-533820000D03*
X462370000Y-533820000D03*
X484770000Y-580510000D03*
X485400000Y-580510000D03*
X486030000Y-580510000D03*
X486030000Y-578620000D03*
X485400000Y-578620000D03*
X484770000Y-578620000D03*
X518370000Y-423710000D03*
X519000000Y-423710000D03*
X519630000Y-423710000D03*
X519630000Y-421820000D03*
X519000000Y-421820000D03*
X518370000Y-421820000D03*
D15*
X407630000Y-253890001D03*
X407000000Y-253890001D03*
X406370000Y-253890001D03*
X406370000Y-255780001D03*
X407000000Y-255780001D03*
X407630000Y-255780001D03*
D14*
X585570000Y-636510000D03*
X586200000Y-636510000D03*
X586830000Y-636510000D03*
X586830000Y-634620000D03*
X586200000Y-634620000D03*
X585570000Y-634620000D03*
D15*
X430030000Y-298690000D03*
X429400000Y-298690000D03*
X428770000Y-298690000D03*
X428770000Y-300580000D03*
X429400000Y-300580000D03*
X430030000Y-300580000D03*
X575630000Y-477890000D03*
X575000000Y-477890000D03*
X574370000Y-477890000D03*
X574370000Y-479780000D03*
X575000000Y-479780000D03*
X575630000Y-479780000D03*
X598030000Y-298690000D03*
X597400000Y-298690000D03*
X596770000Y-298690000D03*
X596770000Y-300580000D03*
X597400000Y-300580000D03*
X598030000Y-300580000D03*
X598030000Y-265090000D03*
X597400000Y-265090000D03*
X596770000Y-265090000D03*
X596770000Y-266980000D03*
X597400000Y-266980000D03*
X598030000Y-266980000D03*
X452430000Y-589890000D03*
X451800000Y-589890000D03*
X451170000Y-589890000D03*
X451170000Y-591780000D03*
X451800000Y-591780000D03*
X452430000Y-591780000D03*
D14*
X417570000Y-457310001D03*
X418200000Y-457310001D03*
X418830000Y-457310001D03*
X418830000Y-455420001D03*
X418200000Y-455420001D03*
X417570000Y-455420001D03*
X417570000Y-356510000D03*
X418200000Y-356510000D03*
X418830000Y-356510000D03*
X418830000Y-354620000D03*
X418200000Y-354620000D03*
X417570000Y-354620000D03*
D15*
X474830000Y-522690000D03*
X474200000Y-522690000D03*
X473570000Y-522690000D03*
X473570000Y-524580000D03*
X474200000Y-524580000D03*
X474830000Y-524580000D03*
X553230000Y-455490000D03*
X552600000Y-455490000D03*
X551970000Y-455490000D03*
X551970000Y-457380000D03*
X552600000Y-457380000D03*
X553230000Y-457380000D03*
X530830000Y-657090000D03*
X530200000Y-657090000D03*
X529570000Y-657090000D03*
X529570000Y-658980000D03*
X530200000Y-658980000D03*
X530830000Y-658980000D03*
D14*
X417570000Y-558110000D03*
X418200000Y-558110000D03*
X418830000Y-558110000D03*
X418830000Y-556220000D03*
X418200000Y-556220000D03*
X417570000Y-556220000D03*
D17*
X614000000Y-652500000D03*
D14*
X462370000Y-401310000D03*
X463000000Y-401310000D03*
X463630000Y-401310000D03*
X463630000Y-399420000D03*
X463000000Y-399420000D03*
X462370000Y-399420000D03*
X417570000Y-580510001D03*
X418200000Y-580510001D03*
X418830000Y-580510001D03*
X418830000Y-578620001D03*
X418200000Y-578620001D03*
X417570000Y-578620001D03*
X518370000Y-244510000D03*
X519000000Y-244510000D03*
X519630000Y-244510000D03*
X519630000Y-242620000D03*
X519000000Y-242620000D03*
X518370000Y-242620000D03*
D15*
X497230000Y-500289999D03*
X496600000Y-500289999D03*
X495970000Y-500289999D03*
X495970000Y-502179999D03*
X496600000Y-502179999D03*
X497230000Y-502179999D03*
D13*
X506450000Y-204485000D03*
X506450000Y-204485000D03*
X509150000Y-204485000D03*
X509150000Y-204485000D03*
D15*
X620430000Y-511490000D03*
X619800000Y-511490000D03*
X619170000Y-511490000D03*
X619170000Y-513380000D03*
X619800000Y-513380000D03*
X620430000Y-513380000D03*
D14*
X439970000Y-345310000D03*
X440600000Y-345310000D03*
X441230000Y-345310000D03*
X441230000Y-343420000D03*
X440600000Y-343420000D03*
X439970000Y-343420000D03*
D15*
X553230000Y-298690000D03*
X552600000Y-298690000D03*
X551970000Y-298690000D03*
X551970000Y-300580000D03*
X552600000Y-300580000D03*
X553230000Y-300580000D03*
D14*
X540770000Y-423709999D03*
X541400000Y-423709999D03*
X542030000Y-423709999D03*
X542030000Y-421819999D03*
X541400000Y-421819999D03*
X540770000Y-421819999D03*
D15*
X474830000Y-466690000D03*
X474200000Y-466690000D03*
X473570000Y-466690000D03*
X473570000Y-468580000D03*
X474200000Y-468580000D03*
X474830000Y-468580000D03*
X530830000Y-511490000D03*
X530200000Y-511490000D03*
X529570000Y-511490000D03*
X529570000Y-513380000D03*
X530200000Y-513380000D03*
X530830000Y-513380000D03*
X530830000Y-668290000D03*
X530200000Y-668290000D03*
X529570000Y-668290000D03*
X529570000Y-670180000D03*
X530200000Y-670180000D03*
X530830000Y-670180000D03*
X530830000Y-298690000D03*
X530200000Y-298690000D03*
X529570000Y-298690000D03*
X529570000Y-300580000D03*
X530200000Y-300580000D03*
X530830000Y-300580000D03*
D13*
X427850000Y-204485000D03*
X427850000Y-204485000D03*
X430550000Y-204485000D03*
X430550000Y-204485000D03*
D15*
X553230000Y-343490000D03*
X552600000Y-343490000D03*
X551970000Y-343490000D03*
X551970000Y-345380000D03*
X552600000Y-345380000D03*
X553230000Y-345380000D03*
X598030000Y-321090001D03*
X597400000Y-321090001D03*
X596770000Y-321090001D03*
X596770000Y-322980001D03*
X597400000Y-322980001D03*
X598030000Y-322980001D03*
D14*
X607970000Y-334110000D03*
X608600000Y-334110000D03*
X609230000Y-334110000D03*
X609230000Y-332220000D03*
X608600000Y-332220000D03*
X607970000Y-332220000D03*
X484770000Y-558109999D03*
X485400000Y-558109999D03*
X486030000Y-558109999D03*
X486030000Y-556219999D03*
X485400000Y-556219999D03*
X484770000Y-556219999D03*
D15*
X553230000Y-511490000D03*
X552600000Y-511490000D03*
X551970000Y-511490000D03*
X551970000Y-513380000D03*
X552600000Y-513380000D03*
X553230000Y-513380000D03*
X474830000Y-556290000D03*
X474200000Y-556290000D03*
X473570000Y-556290000D03*
X473570000Y-558180000D03*
X474200000Y-558180000D03*
X474830000Y-558180000D03*
D14*
X518370000Y-614110000D03*
X519000000Y-614110000D03*
X519630000Y-614110000D03*
X519630000Y-612220000D03*
X519000000Y-612220000D03*
X518370000Y-612220000D03*
D13*
X528750000Y-204485000D03*
X528750000Y-204485000D03*
X531450000Y-204485000D03*
X531450000Y-204485000D03*
D14*
X540770000Y-524510000D03*
X541400000Y-524510000D03*
X542030000Y-524510000D03*
X542030000Y-522620000D03*
X541400000Y-522620000D03*
X540770000Y-522620000D03*
X439970000Y-311710000D03*
X440600000Y-311710000D03*
X441230000Y-311710000D03*
X441230000Y-309820000D03*
X440600000Y-309820000D03*
X439970000Y-309820000D03*
D13*
X605450000Y-204485000D03*
X605450000Y-204485000D03*
X608150000Y-204485000D03*
X608150000Y-204485000D03*
D14*
X417570000Y-468510000D03*
X418200000Y-468510000D03*
X418830000Y-468510000D03*
X418830000Y-466620000D03*
X418200000Y-466620000D03*
X417570000Y-466620000D03*
X518370000Y-356510000D03*
X519000000Y-356510000D03*
X519630000Y-356510000D03*
X519630000Y-354620000D03*
X519000000Y-354620000D03*
X518370000Y-354620000D03*
D15*
X407630000Y-645890001D03*
X407000000Y-645890001D03*
X406370000Y-645890001D03*
X406370000Y-647780001D03*
X407000000Y-647780001D03*
X407630000Y-647780001D03*
D14*
X439970000Y-647710000D03*
X440600000Y-647710000D03*
X441230000Y-647710000D03*
X441230000Y-645820000D03*
X440600000Y-645820000D03*
X439970000Y-645820000D03*
D15*
X575630000Y-220290000D03*
X575000000Y-220290000D03*
X574370000Y-220290000D03*
X574370000Y-222180000D03*
X575000000Y-222180000D03*
X575630000Y-222180000D03*
X575630000Y-657090000D03*
X575000000Y-657090000D03*
X574370000Y-657090000D03*
X574370000Y-658980000D03*
X575000000Y-658980000D03*
X575630000Y-658980000D03*
D14*
X439970000Y-367710000D03*
X440600000Y-367710000D03*
X441230000Y-367710000D03*
X441230000Y-365820000D03*
X440600000Y-365820000D03*
X439970000Y-365820000D03*
X585570000Y-647710000D03*
X586200000Y-647710000D03*
X586830000Y-647710000D03*
X586830000Y-645820000D03*
X586200000Y-645820000D03*
X585570000Y-645820000D03*
D15*
X598030000Y-332290000D03*
X597400000Y-332290000D03*
X596770000Y-332290000D03*
X596770000Y-334180000D03*
X597400000Y-334180000D03*
X598030000Y-334180000D03*
X620430000Y-657090000D03*
X619800000Y-657090000D03*
X619170000Y-657090000D03*
X619170000Y-658980000D03*
X619800000Y-658980000D03*
X620430000Y-658980000D03*
X452430000Y-399490000D03*
X451800000Y-399490000D03*
X451170000Y-399490000D03*
X451170000Y-401380000D03*
X451800000Y-401380000D03*
X452430000Y-401380000D03*
X575630000Y-578690000D03*
X575000000Y-578690000D03*
X574370000Y-578690000D03*
X574370000Y-580580000D03*
X575000000Y-580580000D03*
X575630000Y-580580000D03*
X497230000Y-533890000D03*
X496600000Y-533890000D03*
X495970000Y-533890000D03*
X495970000Y-535780000D03*
X496600000Y-535780000D03*
X497230000Y-535780000D03*
D14*
X439970000Y-378910000D03*
X440600000Y-378910000D03*
X441230000Y-378910000D03*
X441230000Y-377020000D03*
X440600000Y-377020000D03*
X439970000Y-377020000D03*
D15*
X407630000Y-388290001D03*
X407000000Y-388290001D03*
X406370000Y-388290001D03*
X406370000Y-390180001D03*
X407000000Y-390180001D03*
X407630000Y-390180001D03*
D14*
X462370000Y-423710000D03*
X463000000Y-423710000D03*
X463630000Y-423710000D03*
X463630000Y-421820000D03*
X463000000Y-421820000D03*
X462370000Y-421820000D03*
X462370000Y-412510000D03*
X463000000Y-412510000D03*
X463630000Y-412510000D03*
X463630000Y-410620000D03*
X463000000Y-410620000D03*
X462370000Y-410620000D03*
D15*
X620430000Y-522690000D03*
X619800000Y-522690000D03*
X619170000Y-522690000D03*
X619170000Y-524580000D03*
X619800000Y-524580000D03*
X620430000Y-524580000D03*
X452430000Y-612290000D03*
X451800000Y-612290000D03*
X451170000Y-612290000D03*
X451170000Y-614180000D03*
X451800000Y-614180000D03*
X452430000Y-614180000D03*
X497230000Y-276290000D03*
X496600000Y-276290000D03*
X495970000Y-276290000D03*
X495970000Y-278180000D03*
X496600000Y-278180000D03*
X497230000Y-278180000D03*
D17*
X413000000Y-652500000D03*
D15*
X530830000Y-399490000D03*
X530200000Y-399490000D03*
X529570000Y-399490000D03*
X529570000Y-401380000D03*
X530200000Y-401380000D03*
X530830000Y-401380000D03*
D14*
X540770000Y-367710000D03*
X541400000Y-367710000D03*
X542030000Y-367710000D03*
X542030000Y-365820000D03*
X541400000Y-365820000D03*
X540770000Y-365820000D03*
X462370000Y-244510000D03*
X463000000Y-244510000D03*
X463630000Y-244510000D03*
X463630000Y-242620000D03*
X463000000Y-242620000D03*
X462370000Y-242620000D03*
X507170000Y-591710000D03*
X507800000Y-591710000D03*
X508430000Y-591710000D03*
X508430000Y-589820000D03*
X507800000Y-589820000D03*
X507170000Y-589820000D03*
X417570000Y-535710000D03*
X418200000Y-535710000D03*
X418830000Y-535710000D03*
X418830000Y-533820000D03*
X418200000Y-533820000D03*
X417570000Y-533820000D03*
D15*
X620430000Y-242690000D03*
X619800000Y-242690000D03*
X619170000Y-242690000D03*
X619170000Y-244580000D03*
X619800000Y-244580000D03*
X620430000Y-244580000D03*
D14*
X507170000Y-479710000D03*
X507800000Y-479710000D03*
X508430000Y-479710000D03*
X508430000Y-477820000D03*
X507800000Y-477820000D03*
X507170000Y-477820000D03*
D15*
X530830000Y-455490000D03*
X530200000Y-455490000D03*
X529570000Y-455490000D03*
X529570000Y-457380000D03*
X530200000Y-457380000D03*
X530830000Y-457380000D03*
X497230000Y-623489999D03*
X496600000Y-623489999D03*
X495970000Y-623489999D03*
X495970000Y-625379999D03*
X496600000Y-625379999D03*
X497230000Y-625379999D03*
X430030000Y-657090001D03*
X429400000Y-657090001D03*
X428770000Y-657090001D03*
X428770000Y-658980001D03*
X429400000Y-658980001D03*
X430030000Y-658980001D03*
X452430000Y-321090000D03*
X451800000Y-321090000D03*
X451170000Y-321090000D03*
X451170000Y-322980000D03*
X451800000Y-322980000D03*
X452430000Y-322980000D03*
X598030000Y-567490000D03*
X597400000Y-567490000D03*
X596770000Y-567490000D03*
X596770000Y-569380000D03*
X597400000Y-569380000D03*
X598030000Y-569380000D03*
X497230000Y-556289999D03*
X496600000Y-556289999D03*
X495970000Y-556289999D03*
X495970000Y-558179999D03*
X496600000Y-558179999D03*
X497230000Y-558179999D03*
D14*
X518370000Y-670110000D03*
X519000000Y-670110000D03*
X519630000Y-670110000D03*
X519630000Y-668220000D03*
X519000000Y-668220000D03*
X518370000Y-668220000D03*
D15*
X598030000Y-589890000D03*
X597400000Y-589890000D03*
X596770000Y-589890000D03*
X596770000Y-591780000D03*
X597400000Y-591780000D03*
X598030000Y-591780000D03*
D14*
X417570000Y-423710000D03*
X418200000Y-423710000D03*
X418830000Y-423710000D03*
X418830000Y-421820000D03*
X418200000Y-421820000D03*
X417570000Y-421820000D03*
X518370000Y-490910000D03*
X519000000Y-490910000D03*
X519630000Y-490910000D03*
X519630000Y-489020000D03*
X519000000Y-489020000D03*
X518370000Y-489020000D03*
D15*
X620430000Y-578690000D03*
X619800000Y-578690000D03*
X619170000Y-578690000D03*
X619170000Y-580580000D03*
X619800000Y-580580000D03*
X620430000Y-580580000D03*
X452430000Y-410690000D03*
X451800000Y-410690000D03*
X451170000Y-410690000D03*
X451170000Y-412580000D03*
X451800000Y-412580000D03*
X452430000Y-412580000D03*
D14*
X439970000Y-602910000D03*
X440600000Y-602910000D03*
X441230000Y-602910000D03*
X441230000Y-601020000D03*
X440600000Y-601020000D03*
X439970000Y-601020000D03*
X417570000Y-367710000D03*
X418200000Y-367710000D03*
X418830000Y-367710000D03*
X418830000Y-365820000D03*
X418200000Y-365820000D03*
X417570000Y-365820000D03*
D15*
X497230000Y-298689999D03*
X496600000Y-298689999D03*
X495970000Y-298689999D03*
X495970000Y-300579999D03*
X496600000Y-300579999D03*
X497230000Y-300579999D03*
D14*
X507170000Y-658910000D03*
X507800000Y-658910000D03*
X508430000Y-658910000D03*
X508430000Y-657020000D03*
X507800000Y-657020000D03*
X507170000Y-657020000D03*
D15*
X530830000Y-209090000D03*
X530200000Y-209090000D03*
X529570000Y-209090000D03*
X529570000Y-210980000D03*
X530200000Y-210980000D03*
X530830000Y-210980000D03*
X497230000Y-421889999D03*
X496600000Y-421889999D03*
X495970000Y-421889999D03*
X495970000Y-423779999D03*
X496600000Y-423779999D03*
X497230000Y-423779999D03*
D14*
X607970000Y-602910000D03*
X608600000Y-602910000D03*
X609230000Y-602910000D03*
X609230000Y-601020000D03*
X608600000Y-601020000D03*
X607970000Y-601020000D03*
D15*
X452430000Y-657090000D03*
X451800000Y-657090000D03*
X451170000Y-657090000D03*
X451170000Y-658980000D03*
X451800000Y-658980000D03*
X452430000Y-658980000D03*
X598030000Y-287490000D03*
X597400000Y-287490000D03*
X596770000Y-287490000D03*
X596770000Y-289380000D03*
X597400000Y-289380000D03*
X598030000Y-289380000D03*
D14*
X417570000Y-222110000D03*
X418200000Y-222110000D03*
X418830000Y-222110000D03*
X418830000Y-220220000D03*
X418200000Y-220220000D03*
X417570000Y-220220000D03*
X507170000Y-625309999D03*
X507800000Y-625309999D03*
X508430000Y-625309999D03*
X508430000Y-623419999D03*
X507800000Y-623419999D03*
X507170000Y-623419999D03*
D15*
X598030000Y-455490000D03*
X597400000Y-455490000D03*
X596770000Y-455490000D03*
X596770000Y-457380000D03*
X597400000Y-457380000D03*
X598030000Y-457380000D03*
D14*
X439970000Y-210910000D03*
X440600000Y-210910000D03*
X441230000Y-210910000D03*
X441230000Y-209020000D03*
X440600000Y-209020000D03*
X439970000Y-209020000D03*
X484770000Y-266910000D03*
X485400000Y-266910000D03*
X486030000Y-266910000D03*
X486030000Y-265020000D03*
X485400000Y-265020000D03*
X484770000Y-265020000D03*
D15*
X430030000Y-399490000D03*
X429400000Y-399490000D03*
X428770000Y-399490000D03*
X428770000Y-401380000D03*
X429400000Y-401380000D03*
X430030000Y-401380000D03*
D14*
X607970000Y-423710000D03*
X608600000Y-423710000D03*
X609230000Y-423710000D03*
X609230000Y-421820000D03*
X608600000Y-421820000D03*
X607970000Y-421820000D03*
X417570000Y-502110000D03*
X418200000Y-502110000D03*
X418830000Y-502110000D03*
X418830000Y-500220000D03*
X418200000Y-500220000D03*
X417570000Y-500220000D03*
D15*
X620430000Y-220290000D03*
X619800000Y-220290000D03*
X619170000Y-220290000D03*
X619170000Y-222180000D03*
X619800000Y-222180000D03*
X620430000Y-222180000D03*
X530830000Y-253890000D03*
X530200000Y-253890000D03*
X529570000Y-253890000D03*
X529570000Y-255780000D03*
X530200000Y-255780000D03*
X530830000Y-255780000D03*
D14*
X439970000Y-513310000D03*
X440600000Y-513310000D03*
X441230000Y-513310000D03*
X441230000Y-511420000D03*
X440600000Y-511420000D03*
X439970000Y-511420000D03*
X563170000Y-334110000D03*
X563800000Y-334110000D03*
X564430000Y-334110000D03*
X564430000Y-332220000D03*
X563800000Y-332220000D03*
X563170000Y-332220000D03*
X540770000Y-244510000D03*
X541400000Y-244510000D03*
X542030000Y-244510000D03*
X542030000Y-242620000D03*
X541400000Y-242620000D03*
X540770000Y-242620000D03*
D15*
X407630000Y-612290000D03*
X407000000Y-612290000D03*
X406370000Y-612290000D03*
X406370000Y-614180000D03*
X407000000Y-614180000D03*
X407630000Y-614180000D03*
D14*
X462370000Y-378910000D03*
X463000000Y-378910000D03*
X463630000Y-378910000D03*
X463630000Y-377020000D03*
X463000000Y-377020000D03*
X462370000Y-377020000D03*
D15*
X474830000Y-623490000D03*
X474200000Y-623490000D03*
X473570000Y-623490000D03*
X473570000Y-625380000D03*
X474200000Y-625380000D03*
X474830000Y-625380000D03*
X407630000Y-287490000D03*
X407000000Y-287490000D03*
X406370000Y-287490000D03*
X406370000Y-289380000D03*
X407000000Y-289380000D03*
X407630000Y-289380000D03*
D14*
X518370000Y-345310000D03*
X519000000Y-345310000D03*
X519630000Y-345310000D03*
X519630000Y-343420000D03*
X519000000Y-343420000D03*
X518370000Y-343420000D03*
X540770000Y-356509999D03*
X541400000Y-356509999D03*
X542030000Y-356509999D03*
X542030000Y-354619999D03*
X541400000Y-354619999D03*
X540770000Y-354619999D03*
D16*
X452200000Y-204500000D03*
X452200000Y-204500000D03*
D15*
X620430000Y-589890000D03*
X619800000Y-589890000D03*
X619170000Y-589890000D03*
X619170000Y-591780000D03*
X619800000Y-591780000D03*
X620430000Y-591780000D03*
X553230000Y-354689999D03*
X552600000Y-354689999D03*
X551970000Y-354689999D03*
X551970000Y-356579999D03*
X552600000Y-356579999D03*
X553230000Y-356579999D03*
D14*
X540770000Y-625309999D03*
X541400000Y-625309999D03*
X542030000Y-625309999D03*
X542030000Y-623419999D03*
X541400000Y-623419999D03*
X540770000Y-623419999D03*
D15*
X575630000Y-287490000D03*
X575000000Y-287490000D03*
X574370000Y-287490000D03*
X574370000Y-289380000D03*
X575000000Y-289380000D03*
X575630000Y-289380000D03*
X430030000Y-276290000D03*
X429400000Y-276290000D03*
X428770000Y-276290000D03*
X428770000Y-278180000D03*
X429400000Y-278180000D03*
X430030000Y-278180000D03*
X430030000Y-533890000D03*
X429400000Y-533890000D03*
X428770000Y-533890000D03*
X428770000Y-535780000D03*
X429400000Y-535780000D03*
X430030000Y-535780000D03*
D14*
X439970000Y-546910000D03*
X440600000Y-546910000D03*
X441230000Y-546910000D03*
X441230000Y-545020000D03*
X440600000Y-545020000D03*
X439970000Y-545020000D03*
X518370000Y-266910000D03*
X519000000Y-266910000D03*
X519630000Y-266910000D03*
X519630000Y-265020000D03*
X519000000Y-265020000D03*
X518370000Y-265020000D03*
X607970000Y-289310000D03*
X608600000Y-289310000D03*
X609230000Y-289310000D03*
X609230000Y-287420000D03*
X608600000Y-287420000D03*
X607970000Y-287420000D03*
D15*
X452430000Y-265090000D03*
X451800000Y-265090000D03*
X451170000Y-265090000D03*
X451170000Y-266980000D03*
X451800000Y-266980000D03*
X452430000Y-266980000D03*
D14*
X462370000Y-210910000D03*
X463000000Y-210910000D03*
X463630000Y-210910000D03*
X463630000Y-209020000D03*
X463000000Y-209020000D03*
X462370000Y-209020000D03*
D15*
X575630000Y-623490000D03*
X575000000Y-623490000D03*
X574370000Y-623490000D03*
X574370000Y-625380000D03*
X575000000Y-625380000D03*
X575630000Y-625380000D03*
D14*
X462370000Y-580510000D03*
X463000000Y-580510000D03*
X463630000Y-580510000D03*
X463630000Y-578620000D03*
X463000000Y-578620000D03*
X462370000Y-578620000D03*
D15*
X530830000Y-354690000D03*
X530200000Y-354690000D03*
X529570000Y-354690000D03*
X529570000Y-356580000D03*
X530200000Y-356580000D03*
X530830000Y-356580000D03*
D14*
X439970000Y-670110000D03*
X440600000Y-670110000D03*
X441230000Y-670110000D03*
X441230000Y-668220000D03*
X440600000Y-668220000D03*
X439970000Y-668220000D03*
X540770000Y-266910000D03*
X541400000Y-266910000D03*
X542030000Y-266910000D03*
X542030000Y-265020000D03*
X541400000Y-265020000D03*
X540770000Y-265020000D03*
D15*
X598030000Y-545090000D03*
X597400000Y-545090000D03*
X596770000Y-545090000D03*
X596770000Y-546980000D03*
X597400000Y-546980000D03*
X598030000Y-546980000D03*
X430030000Y-545090000D03*
X429400000Y-545090000D03*
X428770000Y-545090000D03*
X428770000Y-546980000D03*
X429400000Y-546980000D03*
X430030000Y-546980000D03*
X407630000Y-466690000D03*
X407000000Y-466690000D03*
X406370000Y-466690000D03*
X406370000Y-468580000D03*
X407000000Y-468580000D03*
X407630000Y-468580000D03*
D14*
X518370000Y-289310000D03*
X519000000Y-289310000D03*
X519630000Y-289310000D03*
X519630000Y-287420000D03*
X519000000Y-287420000D03*
X518370000Y-287420000D03*
D15*
X553230000Y-578690000D03*
X552600000Y-578690000D03*
X551970000Y-578690000D03*
X551970000Y-580580000D03*
X552600000Y-580580000D03*
X553230000Y-580580000D03*
D14*
X518370000Y-591710000D03*
X519000000Y-591710000D03*
X519630000Y-591710000D03*
X519630000Y-589820000D03*
X519000000Y-589820000D03*
X518370000Y-589820000D03*
D15*
X598030000Y-612290000D03*
X597400000Y-612290000D03*
X596770000Y-612290000D03*
X596770000Y-614180000D03*
X597400000Y-614180000D03*
X598030000Y-614180000D03*
D14*
X439970000Y-490910000D03*
X440600000Y-490910000D03*
X441230000Y-490910000D03*
X441230000Y-489020000D03*
X440600000Y-489020000D03*
X439970000Y-489020000D03*
X540770000Y-546910000D03*
X541400000Y-546910000D03*
X542030000Y-546910000D03*
X542030000Y-545020000D03*
X541400000Y-545020000D03*
X540770000Y-545020000D03*
D15*
X620430000Y-623490000D03*
X619800000Y-623490000D03*
X619170000Y-623490000D03*
X619170000Y-625380000D03*
X619800000Y-625380000D03*
X620430000Y-625380000D03*
D14*
X563170000Y-468510000D03*
X563800000Y-468510000D03*
X564430000Y-468510000D03*
X564430000Y-466620000D03*
X563800000Y-466620000D03*
X563170000Y-466620000D03*
D15*
X620430000Y-309890000D03*
X619800000Y-309890000D03*
X619170000Y-309890000D03*
X619170000Y-311780000D03*
X619800000Y-311780000D03*
X620430000Y-311780000D03*
X598030000Y-343490000D03*
X597400000Y-343490000D03*
X596770000Y-343490000D03*
X596770000Y-345380000D03*
X597400000Y-345380000D03*
X598030000Y-345380000D03*
X474830000Y-668290000D03*
X474200000Y-668290000D03*
X473570000Y-668290000D03*
X473570000Y-670180000D03*
X474200000Y-670180000D03*
X474830000Y-670180000D03*
D14*
X484770000Y-334110000D03*
X485400000Y-334110000D03*
X486030000Y-334110000D03*
X486030000Y-332220000D03*
X485400000Y-332220000D03*
X484770000Y-332220000D03*
D15*
X474830000Y-365890000D03*
X474200000Y-365890000D03*
X473570000Y-365890000D03*
X473570000Y-367780000D03*
X474200000Y-367780000D03*
X474830000Y-367780000D03*
X530830000Y-645890000D03*
X530200000Y-645890000D03*
X529570000Y-645890000D03*
X529570000Y-647780000D03*
X530200000Y-647780000D03*
X530830000Y-647780000D03*
D13*
X495250000Y-204485000D03*
X495250000Y-204485000D03*
X497950000Y-204485000D03*
X497950000Y-204485000D03*
D15*
X575630000Y-455490000D03*
X575000000Y-455490000D03*
X574370000Y-455490000D03*
X574370000Y-457380000D03*
X575000000Y-457380000D03*
X575630000Y-457380000D03*
X474830000Y-567490000D03*
X474200000Y-567490000D03*
X473570000Y-567490000D03*
X473570000Y-569380000D03*
X474200000Y-569380000D03*
X474830000Y-569380000D03*
D14*
X518370000Y-636510000D03*
X519000000Y-636510000D03*
X519630000Y-636510000D03*
X519630000Y-634620000D03*
X519000000Y-634620000D03*
X518370000Y-634620000D03*
D15*
X598030000Y-466690000D03*
X597400000Y-466690000D03*
X596770000Y-466690000D03*
X596770000Y-468580000D03*
X597400000Y-468580000D03*
X598030000Y-468580000D03*
D14*
X518370000Y-233310000D03*
X519000000Y-233310000D03*
X519630000Y-233310000D03*
X519630000Y-231420000D03*
X519000000Y-231420000D03*
X518370000Y-231420000D03*
D15*
X407630000Y-623490000D03*
X407000000Y-623490000D03*
X406370000Y-623490000D03*
X406370000Y-625380000D03*
X407000000Y-625380000D03*
X407630000Y-625380000D03*
X497230000Y-388290000D03*
X496600000Y-388290000D03*
X495970000Y-388290000D03*
X495970000Y-390180000D03*
X496600000Y-390180000D03*
X497230000Y-390180000D03*
X452430000Y-433090000D03*
X451800000Y-433090000D03*
X451170000Y-433090000D03*
X451170000Y-434980000D03*
X451800000Y-434980000D03*
X452430000Y-434980000D03*
X553230000Y-265090000D03*
X552600000Y-265090000D03*
X551970000Y-265090000D03*
X551970000Y-266980000D03*
X552600000Y-266980000D03*
X553230000Y-266980000D03*
X620430000Y-265090000D03*
X619800000Y-265090000D03*
X619170000Y-265090000D03*
X619170000Y-266980000D03*
X619800000Y-266980000D03*
X620430000Y-266980000D03*
X530830000Y-287490000D03*
X530200000Y-287490000D03*
X529570000Y-287490000D03*
X529570000Y-289380000D03*
X530200000Y-289380000D03*
X530830000Y-289380000D03*
D13*
X550250000Y-204485000D03*
X550250000Y-204485000D03*
X552950000Y-204485000D03*
X552950000Y-204485000D03*
D15*
X598030000Y-365890000D03*
X597400000Y-365890000D03*
X596770000Y-365890000D03*
X596770000Y-367780000D03*
X597400000Y-367780000D03*
X598030000Y-367780000D03*
X575630000Y-556290000D03*
X575000000Y-556290000D03*
X574370000Y-556290000D03*
X574370000Y-558180000D03*
X575000000Y-558180000D03*
X575630000Y-558180000D03*
D14*
X507170000Y-524510000D03*
X507800000Y-524510000D03*
X508430000Y-524510000D03*
X508430000Y-522620000D03*
X507800000Y-522620000D03*
X507170000Y-522620000D03*
X462370000Y-569310000D03*
X463000000Y-569310000D03*
X463630000Y-569310000D03*
X463630000Y-567420000D03*
X463000000Y-567420000D03*
X462370000Y-567420000D03*
X540770000Y-255710000D03*
X541400000Y-255710000D03*
X542030000Y-255710000D03*
X542030000Y-253820000D03*
X541400000Y-253820000D03*
X540770000Y-253820000D03*
D15*
X407630000Y-231490000D03*
X407000000Y-231490000D03*
X406370000Y-231490000D03*
X406370000Y-233380000D03*
X407000000Y-233380000D03*
X407630000Y-233380000D03*
D14*
X585570000Y-423710000D03*
X586200000Y-423710000D03*
X586830000Y-423710000D03*
X586830000Y-421820000D03*
X586200000Y-421820000D03*
X585570000Y-421820000D03*
X439970000Y-222110000D03*
X440600000Y-222110000D03*
X441230000Y-222110000D03*
X441230000Y-220220000D03*
X440600000Y-220220000D03*
X439970000Y-220220000D03*
D15*
X430030000Y-601090000D03*
X429400000Y-601090000D03*
X428770000Y-601090000D03*
X428770000Y-602980000D03*
X429400000Y-602980000D03*
X430030000Y-602980000D03*
D14*
X607970000Y-255710000D03*
X608600000Y-255710000D03*
X609230000Y-255710000D03*
X609230000Y-253820000D03*
X608600000Y-253820000D03*
X607970000Y-253820000D03*
D15*
X474830000Y-589890000D03*
X474200000Y-589890000D03*
X473570000Y-589890000D03*
X473570000Y-591780000D03*
X474200000Y-591780000D03*
X474830000Y-591780000D03*
D14*
X607970000Y-244510000D03*
X608600000Y-244510000D03*
X609230000Y-244510000D03*
X609230000Y-242620000D03*
X608600000Y-242620000D03*
X607970000Y-242620000D03*
D15*
X407630000Y-242690001D03*
X407000000Y-242690001D03*
X406370000Y-242690001D03*
X406370000Y-244580001D03*
X407000000Y-244580001D03*
X407630000Y-244580001D03*
D14*
X507170000Y-446110000D03*
X507800000Y-446110000D03*
X508430000Y-446110000D03*
X508430000Y-444220000D03*
X507800000Y-444220000D03*
X507170000Y-444220000D03*
X607970000Y-524510000D03*
X608600000Y-524510000D03*
X609230000Y-524510000D03*
X609230000Y-522620000D03*
X608600000Y-522620000D03*
X607970000Y-522620000D03*
X439970000Y-423710000D03*
X440600000Y-423710000D03*
X441230000Y-423710000D03*
X441230000Y-421820000D03*
X440600000Y-421820000D03*
X439970000Y-421820000D03*
D15*
X452430000Y-354690000D03*
X451800000Y-354690000D03*
X451170000Y-354690000D03*
X451170000Y-356580000D03*
X451800000Y-356580000D03*
X452430000Y-356580000D03*
D14*
X563170000Y-546910000D03*
X563800000Y-546910000D03*
X564430000Y-546910000D03*
X564430000Y-545020000D03*
X563800000Y-545020000D03*
X563170000Y-545020000D03*
X462370000Y-289310000D03*
X463000000Y-289310000D03*
X463630000Y-289310000D03*
X463630000Y-287420000D03*
X463000000Y-287420000D03*
X462370000Y-287420000D03*
X462370000Y-311710000D03*
X463000000Y-311710000D03*
X463630000Y-311710000D03*
X463630000Y-309820000D03*
X463000000Y-309820000D03*
X462370000Y-309820000D03*
D15*
X452430000Y-365890000D03*
X451800000Y-365890000D03*
X451170000Y-365890000D03*
X451170000Y-367780000D03*
X451800000Y-367780000D03*
X452430000Y-367780000D03*
D14*
X607970000Y-278110000D03*
X608600000Y-278110000D03*
X609230000Y-278110000D03*
X609230000Y-276220000D03*
X608600000Y-276220000D03*
X607970000Y-276220000D03*
X518370000Y-311710000D03*
X519000000Y-311710000D03*
X519630000Y-311710000D03*
X519630000Y-309820000D03*
X519000000Y-309820000D03*
X518370000Y-309820000D03*
D15*
X598030000Y-657090000D03*
X597400000Y-657090000D03*
X596770000Y-657090000D03*
X596770000Y-658980000D03*
X597400000Y-658980000D03*
X598030000Y-658980000D03*
X452430000Y-298690000D03*
X451800000Y-298690000D03*
X451170000Y-298690000D03*
X451170000Y-300580000D03*
X451800000Y-300580000D03*
X452430000Y-300580000D03*
D14*
X585570000Y-300510000D03*
X586200000Y-300510000D03*
X586830000Y-300510000D03*
X586830000Y-298620000D03*
X586200000Y-298620000D03*
X585570000Y-298620000D03*
X585570000Y-658910000D03*
X586200000Y-658910000D03*
X586830000Y-658910000D03*
X586830000Y-657020000D03*
X586200000Y-657020000D03*
X585570000Y-657020000D03*
D15*
X575630000Y-500290000D03*
X575000000Y-500290000D03*
X574370000Y-500290000D03*
X574370000Y-502180000D03*
X575000000Y-502180000D03*
X575630000Y-502180000D03*
X553230000Y-421889999D03*
X552600000Y-421889999D03*
X551970000Y-421889999D03*
X551970000Y-423779999D03*
X552600000Y-423779999D03*
X553230000Y-423779999D03*
D14*
X462370000Y-490910000D03*
X463000000Y-490910000D03*
X463630000Y-490910000D03*
X463630000Y-489020000D03*
X463000000Y-489020000D03*
X462370000Y-489020000D03*
X585570000Y-535710000D03*
X586200000Y-535710000D03*
X586830000Y-535710000D03*
X586830000Y-533820000D03*
X586200000Y-533820000D03*
X585570000Y-533820000D03*
X563170000Y-457310000D03*
X563800000Y-457310000D03*
X564430000Y-457310000D03*
X564430000Y-455420000D03*
X563800000Y-455420000D03*
X563170000Y-455420000D03*
D15*
X598030000Y-489090000D03*
X597400000Y-489090000D03*
X596770000Y-489090000D03*
X596770000Y-490980000D03*
X597400000Y-490980000D03*
X598030000Y-490980000D03*
X620430000Y-343490000D03*
X619800000Y-343490000D03*
X619170000Y-343490000D03*
X619170000Y-345380000D03*
X619800000Y-345380000D03*
X620430000Y-345380000D03*
D14*
X518370000Y-479710000D03*
X519000000Y-479710000D03*
X519630000Y-479710000D03*
X519630000Y-477820000D03*
X519000000Y-477820000D03*
X518370000Y-477820000D03*
D15*
X530830000Y-231490000D03*
X530200000Y-231490000D03*
X529570000Y-231490000D03*
X529570000Y-233380000D03*
X530200000Y-233380000D03*
X530830000Y-233380000D03*
X553230000Y-533890000D03*
X552600000Y-533890000D03*
X551970000Y-533890000D03*
X551970000Y-535780000D03*
X552600000Y-535780000D03*
X553230000Y-535780000D03*
D14*
X462370000Y-670110000D03*
X463000000Y-670110000D03*
X463630000Y-670110000D03*
X463630000Y-668220000D03*
X463000000Y-668220000D03*
X462370000Y-668220000D03*
D15*
X430030000Y-309890000D03*
X429400000Y-309890000D03*
X428770000Y-309890000D03*
X428770000Y-311780000D03*
X429400000Y-311780000D03*
X430030000Y-311780000D03*
X430030000Y-556290000D03*
X429400000Y-556290000D03*
X428770000Y-556290000D03*
X428770000Y-558180000D03*
X429400000Y-558180000D03*
X430030000Y-558180000D03*
D14*
X585570000Y-255710001D03*
X586200000Y-255710001D03*
X586830000Y-255710001D03*
X586830000Y-253820001D03*
X586200000Y-253820001D03*
X585570000Y-253820001D03*
D15*
X407630000Y-377090001D03*
X407000000Y-377090001D03*
X406370000Y-377090001D03*
X406370000Y-378980001D03*
X407000000Y-378980001D03*
X407630000Y-378980001D03*
D14*
X540770000Y-558109999D03*
X541400000Y-558109999D03*
X542030000Y-558109999D03*
X542030000Y-556219999D03*
X541400000Y-556219999D03*
X540770000Y-556219999D03*
D15*
X407630000Y-321090001D03*
X407000000Y-321090001D03*
X406370000Y-321090001D03*
X406370000Y-322980001D03*
X407000000Y-322980001D03*
X407630000Y-322980001D03*
X575630000Y-444290000D03*
X575000000Y-444290000D03*
X574370000Y-444290000D03*
X574370000Y-446180000D03*
X575000000Y-446180000D03*
X575630000Y-446180000D03*
X407630000Y-489090000D03*
X407000000Y-489090000D03*
X406370000Y-489090000D03*
X406370000Y-490980000D03*
X407000000Y-490980000D03*
X407630000Y-490980000D03*
X598030000Y-522690000D03*
X597400000Y-522690000D03*
X596770000Y-522690000D03*
X596770000Y-524580000D03*
X597400000Y-524580000D03*
X598030000Y-524580000D03*
X407630000Y-511490001D03*
X407000000Y-511490001D03*
X406370000Y-511490001D03*
X406370000Y-513380001D03*
X407000000Y-513380001D03*
X407630000Y-513380001D03*
D14*
X462370000Y-434910000D03*
X463000000Y-434910000D03*
X463630000Y-434910000D03*
X463630000Y-433020000D03*
X463000000Y-433020000D03*
X462370000Y-433020000D03*
D15*
X430030000Y-433090000D03*
X429400000Y-433090000D03*
X428770000Y-433090000D03*
X428770000Y-434980000D03*
X429400000Y-434980000D03*
X430030000Y-434980000D03*
D14*
X540770000Y-322910000D03*
X541400000Y-322910000D03*
X542030000Y-322910000D03*
X542030000Y-321020000D03*
X541400000Y-321020000D03*
X540770000Y-321020000D03*
X462370000Y-367710000D03*
X463000000Y-367710000D03*
X463630000Y-367710000D03*
X463630000Y-365820000D03*
X463000000Y-365820000D03*
X462370000Y-365820000D03*
D15*
X553230000Y-309890000D03*
X552600000Y-309890000D03*
X551970000Y-309890000D03*
X551970000Y-311780000D03*
X552600000Y-311780000D03*
X553230000Y-311780000D03*
X474830000Y-545090000D03*
X474200000Y-545090000D03*
X473570000Y-545090000D03*
X473570000Y-546980000D03*
X474200000Y-546980000D03*
X474830000Y-546980000D03*
X407630000Y-657090001D03*
X407000000Y-657090001D03*
X406370000Y-657090001D03*
X406370000Y-658980001D03*
X407000000Y-658980001D03*
X407630000Y-658980001D03*
D14*
X563170000Y-367709999D03*
X563800000Y-367709999D03*
X564430000Y-367709999D03*
X564430000Y-365819999D03*
X563800000Y-365819999D03*
X563170000Y-365819999D03*
X507170000Y-266910000D03*
X507800000Y-266910000D03*
X508430000Y-266910000D03*
X508430000Y-265020000D03*
X507800000Y-265020000D03*
X507170000Y-265020000D03*
X507170000Y-311710000D03*
X507800000Y-311710000D03*
X508430000Y-311710000D03*
X508430000Y-309820000D03*
X507800000Y-309820000D03*
X507170000Y-309820000D03*
X462370000Y-602910000D03*
X463000000Y-602910000D03*
X463630000Y-602910000D03*
X463630000Y-601020000D03*
X463000000Y-601020000D03*
X462370000Y-601020000D03*
D15*
X553230000Y-321090000D03*
X552600000Y-321090000D03*
X551970000Y-321090000D03*
X551970000Y-322980000D03*
X552600000Y-322980000D03*
X553230000Y-322980000D03*
X598030000Y-556290000D03*
X597400000Y-556290000D03*
X596770000Y-556290000D03*
X596770000Y-558180000D03*
X597400000Y-558180000D03*
X598030000Y-558180000D03*
X452430000Y-287490000D03*
X451800000Y-287490000D03*
X451170000Y-287490000D03*
X451170000Y-289380000D03*
X451800000Y-289380000D03*
X452430000Y-289380000D03*
D14*
X507170000Y-513310000D03*
X507800000Y-513310000D03*
X508430000Y-513310000D03*
X508430000Y-511420000D03*
X507800000Y-511420000D03*
X507170000Y-511420000D03*
D15*
X575630000Y-645890000D03*
X575000000Y-645890000D03*
X574370000Y-645890000D03*
X574370000Y-647780000D03*
X575000000Y-647780000D03*
X575630000Y-647780000D03*
X620430000Y-567490000D03*
X619800000Y-567490000D03*
X619170000Y-567490000D03*
X619170000Y-569380000D03*
X619800000Y-569380000D03*
X620430000Y-569380000D03*
D14*
X484770000Y-468510000D03*
X485400000Y-468510000D03*
X486030000Y-468510000D03*
X486030000Y-466620000D03*
X485400000Y-466620000D03*
X484770000Y-466620000D03*
D15*
X575630000Y-601090000D03*
X575000000Y-601090000D03*
X574370000Y-601090000D03*
X574370000Y-602980000D03*
X575000000Y-602980000D03*
X575630000Y-602980000D03*
X530830000Y-612290000D03*
X530200000Y-612290000D03*
X529570000Y-612290000D03*
X529570000Y-614180000D03*
X530200000Y-614180000D03*
X530830000Y-614180000D03*
D14*
X585570000Y-311710001D03*
X586200000Y-311710001D03*
X586830000Y-311710001D03*
X586830000Y-309820001D03*
X586200000Y-309820001D03*
X585570000Y-309820001D03*
X484770000Y-345310000D03*
X485400000Y-345310000D03*
X486030000Y-345310000D03*
X486030000Y-343420000D03*
X485400000Y-343420000D03*
X484770000Y-343420000D03*
X439970000Y-524510000D03*
X440600000Y-524510000D03*
X441230000Y-524510000D03*
X441230000Y-522620000D03*
X440600000Y-522620000D03*
X439970000Y-522620000D03*
D13*
X484050000Y-204485000D03*
X484050000Y-204485000D03*
X486750000Y-204485000D03*
X486750000Y-204485000D03*
D15*
X452430000Y-421890000D03*
X451800000Y-421890000D03*
X451170000Y-421890000D03*
X451170000Y-423780000D03*
X451800000Y-423780000D03*
X452430000Y-423780000D03*
D14*
X417570000Y-401310000D03*
X418200000Y-401310000D03*
X418830000Y-401310000D03*
X418830000Y-399420000D03*
X418200000Y-399420000D03*
X417570000Y-399420000D03*
D15*
X620430000Y-477890000D03*
X619800000Y-477890000D03*
X619170000Y-477890000D03*
X619170000Y-479780000D03*
X619800000Y-479780000D03*
X620430000Y-479780000D03*
D14*
X607970000Y-300510000D03*
X608600000Y-300510000D03*
X609230000Y-300510000D03*
X609230000Y-298620000D03*
X608600000Y-298620000D03*
X607970000Y-298620000D03*
X439970000Y-591710000D03*
X440600000Y-591710000D03*
X441230000Y-591710000D03*
X441230000Y-589820000D03*
X440600000Y-589820000D03*
X439970000Y-589820000D03*
X585570000Y-390110001D03*
X586200000Y-390110001D03*
X586830000Y-390110001D03*
X586830000Y-388220001D03*
X586200000Y-388220001D03*
X585570000Y-388220001D03*
X507170000Y-647710000D03*
X507800000Y-647710000D03*
X508430000Y-647710000D03*
X508430000Y-645820000D03*
X507800000Y-645820000D03*
X507170000Y-645820000D03*
D15*
X430030000Y-466690000D03*
X429400000Y-466690000D03*
X428770000Y-466690000D03*
X428770000Y-468580000D03*
X429400000Y-468580000D03*
X430030000Y-468580000D03*
D14*
X417570000Y-244510001D03*
X418200000Y-244510001D03*
X418830000Y-244510001D03*
X418830000Y-242620001D03*
X418200000Y-242620001D03*
X417570000Y-242620001D03*
X417570000Y-278110000D03*
X418200000Y-278110000D03*
X418830000Y-278110000D03*
X418830000Y-276220000D03*
X418200000Y-276220000D03*
X417570000Y-276220000D03*
X518370000Y-602910000D03*
X519000000Y-602910000D03*
X519630000Y-602910000D03*
X519630000Y-601020000D03*
X519000000Y-601020000D03*
X518370000Y-601020000D03*
D15*
X407630000Y-444290001D03*
X407000000Y-444290001D03*
X406370000Y-444290001D03*
X406370000Y-446180001D03*
X407000000Y-446180001D03*
X407630000Y-446180001D03*
D14*
X417570000Y-210910000D03*
X418200000Y-210910000D03*
X418830000Y-210910000D03*
X418830000Y-209020000D03*
X418200000Y-209020000D03*
X417570000Y-209020000D03*
X439970000Y-278110000D03*
X440600000Y-278110000D03*
X441230000Y-278110000D03*
X441230000Y-276220000D03*
X440600000Y-276220000D03*
X439970000Y-276220000D03*
X439970000Y-446110000D03*
X440600000Y-446110000D03*
X441230000Y-446110000D03*
X441230000Y-444220000D03*
X440600000Y-444220000D03*
X439970000Y-444220000D03*
X607970000Y-580510000D03*
X608600000Y-580510000D03*
X609230000Y-580510000D03*
X609230000Y-578620000D03*
X608600000Y-578620000D03*
X607970000Y-578620000D03*
D16*
X479800000Y-204515000D03*
X479800000Y-204515000D03*
D14*
X484770000Y-614110000D03*
X485400000Y-614110000D03*
X486030000Y-614110000D03*
X486030000Y-612220000D03*
X485400000Y-612220000D03*
X484770000Y-612220000D03*
D15*
X575630000Y-276290000D03*
X575000000Y-276290000D03*
X574370000Y-276290000D03*
X574370000Y-278180000D03*
X575000000Y-278180000D03*
X575630000Y-278180000D03*
X530830000Y-489090000D03*
X530200000Y-489090000D03*
X529570000Y-489090000D03*
X529570000Y-490980000D03*
X530200000Y-490980000D03*
X530830000Y-490980000D03*
D17*
X413000000Y-518000000D03*
D15*
X430030000Y-477890000D03*
X429400000Y-477890000D03*
X428770000Y-477890000D03*
X428770000Y-479780000D03*
X429400000Y-479780000D03*
X430030000Y-479780000D03*
D14*
X563170000Y-524510000D03*
X563800000Y-524510000D03*
X564430000Y-524510000D03*
X564430000Y-522620000D03*
X563800000Y-522620000D03*
X563170000Y-522620000D03*
D15*
X575630000Y-511490000D03*
X575000000Y-511490000D03*
X574370000Y-511490000D03*
X574370000Y-513380000D03*
X575000000Y-513380000D03*
X575630000Y-513380000D03*
D14*
X563170000Y-356509999D03*
X563800000Y-356509999D03*
X564430000Y-356509999D03*
X564430000Y-354619999D03*
X563800000Y-354619999D03*
X563170000Y-354619999D03*
D15*
X452430000Y-623490000D03*
X451800000Y-623490000D03*
X451170000Y-623490000D03*
X451170000Y-625380000D03*
X451800000Y-625380000D03*
X452430000Y-625380000D03*
D14*
X484770000Y-233310000D03*
X485400000Y-233310000D03*
X486030000Y-233310000D03*
X486030000Y-231420000D03*
X485400000Y-231420000D03*
X484770000Y-231420000D03*
D15*
X407630000Y-556290000D03*
X407000000Y-556290000D03*
X406370000Y-556290000D03*
X406370000Y-558180000D03*
X407000000Y-558180000D03*
X407630000Y-558180000D03*
D14*
X585570000Y-670110000D03*
X586200000Y-670110000D03*
X586830000Y-670110000D03*
X586830000Y-668220000D03*
X586200000Y-668220000D03*
X585570000Y-668220000D03*
D15*
X407630000Y-455490001D03*
X407000000Y-455490001D03*
X406370000Y-455490001D03*
X406370000Y-457380001D03*
X407000000Y-457380001D03*
X407630000Y-457380001D03*
X620430000Y-354690000D03*
X619800000Y-354690000D03*
X619170000Y-354690000D03*
X619170000Y-356580000D03*
X619800000Y-356580000D03*
X620430000Y-356580000D03*
D17*
X412500000Y-361500000D03*
D16*
X602200000Y-204500000D03*
X602200000Y-204500000D03*
D14*
X417570000Y-602910000D03*
X418200000Y-602910000D03*
X418830000Y-602910000D03*
X418830000Y-601020000D03*
X418200000Y-601020000D03*
X417570000Y-601020000D03*
D15*
X497230000Y-231489999D03*
X496600000Y-231489999D03*
X495970000Y-231489999D03*
X495970000Y-233379999D03*
X496600000Y-233379999D03*
X497230000Y-233379999D03*
X452430000Y-556290000D03*
X451800000Y-556290000D03*
X451170000Y-556290000D03*
X451170000Y-558180000D03*
X451800000Y-558180000D03*
X452430000Y-558180000D03*
D14*
X563170000Y-647710000D03*
X563800000Y-647710000D03*
X564430000Y-647710000D03*
X564430000Y-645820000D03*
X563800000Y-645820000D03*
X563170000Y-645820000D03*
D16*
X583800000Y-204500000D03*
X583800000Y-204500000D03*
D14*
X439970000Y-300510000D03*
X440600000Y-300510000D03*
X441230000Y-300510000D03*
X441230000Y-298620000D03*
X440600000Y-298620000D03*
X439970000Y-298620000D03*
X484770000Y-367710000D03*
X485400000Y-367710000D03*
X486030000Y-367710000D03*
X486030000Y-365820000D03*
X485400000Y-365820000D03*
X484770000Y-365820000D03*
D15*
X430030000Y-623490000D03*
X429400000Y-623490000D03*
X428770000Y-623490000D03*
X428770000Y-625380000D03*
X429400000Y-625380000D03*
X430030000Y-625380000D03*
X474830000Y-377090000D03*
X474200000Y-377090000D03*
X473570000Y-377090000D03*
X473570000Y-378980000D03*
X474200000Y-378980000D03*
X474830000Y-378980000D03*
D13*
X455450000Y-204485000D03*
X455450000Y-204485000D03*
X458150000Y-204485000D03*
X458150000Y-204485000D03*
D15*
X497230000Y-612290000D03*
X496600000Y-612290000D03*
X495970000Y-612290000D03*
X495970000Y-614180000D03*
X496600000Y-614180000D03*
X497230000Y-614180000D03*
X497230000Y-265090000D03*
X496600000Y-265090000D03*
X495970000Y-265090000D03*
X495970000Y-266980000D03*
X496600000Y-266980000D03*
X497230000Y-266980000D03*
X575630000Y-545090000D03*
X575000000Y-545090000D03*
X574370000Y-545090000D03*
X574370000Y-546980000D03*
X575000000Y-546980000D03*
X575630000Y-546980000D03*
X620430000Y-209090000D03*
X619800000Y-209090000D03*
X619170000Y-209090000D03*
X619170000Y-210980000D03*
X619800000Y-210980000D03*
X620430000Y-210980000D03*
D14*
X563170000Y-233309999D03*
X563800000Y-233309999D03*
X564430000Y-233309999D03*
X564430000Y-231419999D03*
X563800000Y-231419999D03*
X563170000Y-231419999D03*
X484770000Y-446110000D03*
X485400000Y-446110000D03*
X486030000Y-446110000D03*
X486030000Y-444220000D03*
X485400000Y-444220000D03*
X484770000Y-444220000D03*
D15*
X575630000Y-668290000D03*
X575000000Y-668290000D03*
X574370000Y-668290000D03*
X574370000Y-670180000D03*
X575000000Y-670180000D03*
X575630000Y-670180000D03*
X497230000Y-365889999D03*
X496600000Y-365889999D03*
X495970000Y-365889999D03*
X495970000Y-367779999D03*
X496600000Y-367779999D03*
X497230000Y-367779999D03*
D14*
X585570000Y-412510000D03*
X586200000Y-412510000D03*
X586830000Y-412510000D03*
X586830000Y-410620000D03*
X586200000Y-410620000D03*
X585570000Y-410620000D03*
D15*
X553230000Y-276290000D03*
X552600000Y-276290000D03*
X551970000Y-276290000D03*
X551970000Y-278180000D03*
X552600000Y-278180000D03*
X553230000Y-278180000D03*
X497230000Y-578690000D03*
X496600000Y-578690000D03*
X495970000Y-578690000D03*
X495970000Y-580580000D03*
X496600000Y-580580000D03*
X497230000Y-580580000D03*
D16*
X433800000Y-204500000D03*
X433800000Y-204500000D03*
D15*
X620430000Y-556290000D03*
X619800000Y-556290000D03*
X619170000Y-556290000D03*
X619170000Y-558180000D03*
X619800000Y-558180000D03*
X620430000Y-558180000D03*
D14*
X417570000Y-625310000D03*
X418200000Y-625310000D03*
X418830000Y-625310000D03*
X418830000Y-623420000D03*
X418200000Y-623420000D03*
X417570000Y-623420000D03*
X417570000Y-334110000D03*
X418200000Y-334110000D03*
X418830000Y-334110000D03*
X418830000Y-332220000D03*
X418200000Y-332220000D03*
X417570000Y-332220000D03*
D15*
X430030000Y-377090000D03*
X429400000Y-377090000D03*
X428770000Y-377090000D03*
X428770000Y-378980000D03*
X429400000Y-378980000D03*
X430030000Y-378980000D03*
X474830000Y-612290000D03*
X474200000Y-612290000D03*
X473570000Y-612290000D03*
X473570000Y-614180000D03*
X474200000Y-614180000D03*
X474830000Y-614180000D03*
X474830000Y-220290000D03*
X474200000Y-220290000D03*
X473570000Y-220290000D03*
X473570000Y-222180000D03*
X474200000Y-222180000D03*
X474830000Y-222180000D03*
D14*
X439970000Y-412510000D03*
X440600000Y-412510000D03*
X441230000Y-412510000D03*
X441230000Y-410620000D03*
X440600000Y-410620000D03*
X439970000Y-410620000D03*
D15*
X497230000Y-657090000D03*
X496600000Y-657090000D03*
X495970000Y-657090000D03*
X495970000Y-658980000D03*
X496600000Y-658980000D03*
X497230000Y-658980000D03*
X474830000Y-634690000D03*
X474200000Y-634690000D03*
X473570000Y-634690000D03*
X473570000Y-636580000D03*
X474200000Y-636580000D03*
X474830000Y-636580000D03*
D14*
X585570000Y-502110000D03*
X586200000Y-502110000D03*
X586830000Y-502110000D03*
X586830000Y-500220000D03*
X586200000Y-500220000D03*
X585570000Y-500220000D03*
X607970000Y-513310000D03*
X608600000Y-513310000D03*
X609230000Y-513310000D03*
X609230000Y-511420000D03*
X608600000Y-511420000D03*
X607970000Y-511420000D03*
D15*
X620430000Y-455490000D03*
X619800000Y-455490000D03*
X619170000Y-455490000D03*
X619170000Y-457380000D03*
X619800000Y-457380000D03*
X620430000Y-457380000D03*
X430030000Y-444290000D03*
X429400000Y-444290000D03*
X428770000Y-444290000D03*
X428770000Y-446180000D03*
X429400000Y-446180000D03*
X430030000Y-446180000D03*
D14*
X462370000Y-457310000D03*
X463000000Y-457310000D03*
X463630000Y-457310000D03*
X463630000Y-455420000D03*
X463000000Y-455420000D03*
X462370000Y-455420000D03*
D15*
X452430000Y-511490000D03*
X451800000Y-511490000D03*
X451170000Y-511490000D03*
X451170000Y-513380000D03*
X451800000Y-513380000D03*
X452430000Y-513380000D03*
D14*
X563170000Y-390110000D03*
X563800000Y-390110000D03*
X564430000Y-390110000D03*
X564430000Y-388220000D03*
X563800000Y-388220000D03*
X563170000Y-388220000D03*
X518370000Y-457310000D03*
X519000000Y-457310000D03*
X519630000Y-457310000D03*
X519630000Y-455420000D03*
X519000000Y-455420000D03*
X518370000Y-455420000D03*
D15*
X497230000Y-601090000D03*
X496600000Y-601090000D03*
X495970000Y-601090000D03*
X495970000Y-602980000D03*
X496600000Y-602980000D03*
X497230000Y-602980000D03*
D16*
X513500000Y-204500000D03*
X513500000Y-204500000D03*
D15*
X452430000Y-276290000D03*
X451800000Y-276290000D03*
X451170000Y-276290000D03*
X451170000Y-278180000D03*
X451800000Y-278180000D03*
X452430000Y-278180000D03*
D13*
X587050000Y-204485000D03*
X587050000Y-204485000D03*
X589750000Y-204485000D03*
X589750000Y-204485000D03*
D15*
X452430000Y-209090000D03*
X451800000Y-209090000D03*
X451170000Y-209090000D03*
X451170000Y-210980000D03*
X451800000Y-210980000D03*
X452430000Y-210980000D03*
D14*
X585570000Y-602910000D03*
X586200000Y-602910000D03*
X586830000Y-602910000D03*
X586830000Y-601020000D03*
X586200000Y-601020000D03*
X585570000Y-601020000D03*
X439970000Y-322910000D03*
X440600000Y-322910000D03*
X441230000Y-322910000D03*
X441230000Y-321020000D03*
X440600000Y-321020000D03*
X439970000Y-321020000D03*
D15*
X553230000Y-410690000D03*
X552600000Y-410690000D03*
X551970000Y-410690000D03*
X551970000Y-412580000D03*
X552600000Y-412580000D03*
X553230000Y-412580000D03*
D14*
X607970000Y-222110000D03*
X608600000Y-222110000D03*
X609230000Y-222110000D03*
X609230000Y-220220000D03*
X608600000Y-220220000D03*
X607970000Y-220220000D03*
D15*
X497230000Y-287489999D03*
X496600000Y-287489999D03*
X495970000Y-287489999D03*
X495970000Y-289379999D03*
X496600000Y-289379999D03*
X497230000Y-289379999D03*
D14*
X439970000Y-502110000D03*
X440600000Y-502110000D03*
X441230000Y-502110000D03*
X441230000Y-500220000D03*
X440600000Y-500220000D03*
X439970000Y-500220000D03*
D15*
X620430000Y-668290000D03*
X619800000Y-668290000D03*
X619170000Y-668290000D03*
X619170000Y-670180000D03*
X619800000Y-670180000D03*
X620430000Y-670180000D03*
X530830000Y-567490000D03*
X530200000Y-567490000D03*
X529570000Y-567490000D03*
X529570000Y-569380000D03*
X530200000Y-569380000D03*
X530830000Y-569380000D03*
D14*
X563170000Y-479710000D03*
X563800000Y-479710000D03*
X564430000Y-479710000D03*
X564430000Y-477820000D03*
X563800000Y-477820000D03*
X563170000Y-477820000D03*
X585570000Y-446110000D03*
X586200000Y-446110000D03*
X586830000Y-446110000D03*
X586830000Y-444220000D03*
X586200000Y-444220000D03*
X585570000Y-444220000D03*
D13*
X577850000Y-204485000D03*
X577850000Y-204485000D03*
X580550000Y-204485000D03*
X580550000Y-204485000D03*
D15*
X430030000Y-634690000D03*
X429400000Y-634690000D03*
X428770000Y-634690000D03*
X428770000Y-636580000D03*
X429400000Y-636580000D03*
X430030000Y-636580000D03*
D14*
X518370000Y-535710000D03*
X519000000Y-535710000D03*
X519630000Y-535710000D03*
X519630000Y-533820000D03*
X519000000Y-533820000D03*
X518370000Y-533820000D03*
D15*
X474830000Y-287490000D03*
X474200000Y-287490000D03*
X473570000Y-287490000D03*
X473570000Y-289380000D03*
X474200000Y-289380000D03*
X474830000Y-289380000D03*
D14*
X462370000Y-479710000D03*
X463000000Y-479710000D03*
X463630000Y-479710000D03*
X463630000Y-477820000D03*
X463000000Y-477820000D03*
X462370000Y-477820000D03*
X417570000Y-412510000D03*
X418200000Y-412510000D03*
X418830000Y-412510000D03*
X418830000Y-410620000D03*
X418200000Y-410620000D03*
X417570000Y-410620000D03*
X462370000Y-546910000D03*
X463000000Y-546910000D03*
X463630000Y-546910000D03*
X463630000Y-545020000D03*
X463000000Y-545020000D03*
X462370000Y-545020000D03*
X607970000Y-479710000D03*
X608600000Y-479710000D03*
X609230000Y-479710000D03*
X609230000Y-477820000D03*
X608600000Y-477820000D03*
X607970000Y-477820000D03*
X439970000Y-401310000D03*
X440600000Y-401310000D03*
X441230000Y-401310000D03*
X441230000Y-399420000D03*
X440600000Y-399420000D03*
X439970000Y-399420000D03*
X462370000Y-266910000D03*
X463000000Y-266910000D03*
X463630000Y-266910000D03*
X463630000Y-265020000D03*
X463000000Y-265020000D03*
X462370000Y-265020000D03*
X484770000Y-625309999D03*
X485400000Y-625309999D03*
X486030000Y-625309999D03*
X486030000Y-623419999D03*
X485400000Y-623419999D03*
X484770000Y-623419999D03*
D15*
X530830000Y-578690000D03*
X530200000Y-578690000D03*
X529570000Y-578690000D03*
X529570000Y-580580000D03*
X530200000Y-580580000D03*
X530830000Y-580580000D03*
D14*
X518370000Y-255710000D03*
X519000000Y-255710000D03*
X519630000Y-255710000D03*
X519630000Y-253820000D03*
X519000000Y-253820000D03*
X518370000Y-253820000D03*
D15*
X598030000Y-477890000D03*
X597400000Y-477890000D03*
X596770000Y-477890000D03*
X596770000Y-479780000D03*
X597400000Y-479780000D03*
X598030000Y-479780000D03*
D14*
X585570000Y-378910001D03*
X586200000Y-378910001D03*
X586830000Y-378910001D03*
X586830000Y-377020001D03*
X586200000Y-377020001D03*
X585570000Y-377020001D03*
X607970000Y-367710000D03*
X608600000Y-367710000D03*
X609230000Y-367710000D03*
X609230000Y-365820000D03*
X608600000Y-365820000D03*
X607970000Y-365820000D03*
X462370000Y-390110000D03*
X463000000Y-390110000D03*
X463630000Y-390110000D03*
X463630000Y-388220000D03*
X463000000Y-388220000D03*
X462370000Y-388220000D03*
D15*
X530830000Y-265090000D03*
X530200000Y-265090000D03*
X529570000Y-265090000D03*
X529570000Y-266980000D03*
X530200000Y-266980000D03*
X530830000Y-266980000D03*
D13*
X517750000Y-204485000D03*
X517750000Y-204485000D03*
X520450000Y-204485000D03*
X520450000Y-204485000D03*
D15*
X474830000Y-354690000D03*
X474200000Y-354690000D03*
X473570000Y-354690000D03*
X473570000Y-356580000D03*
X474200000Y-356580000D03*
X474830000Y-356580000D03*
X620430000Y-601090000D03*
X619800000Y-601090000D03*
X619170000Y-601090000D03*
X619170000Y-602980000D03*
X619800000Y-602980000D03*
X620430000Y-602980000D03*
D14*
X484770000Y-210910000D03*
X485400000Y-210910000D03*
X486030000Y-210910000D03*
X486030000Y-209020000D03*
X485400000Y-209020000D03*
X484770000Y-209020000D03*
D15*
X497230000Y-253890000D03*
X496600000Y-253890000D03*
X495970000Y-253890000D03*
X495970000Y-255780000D03*
X496600000Y-255780000D03*
X497230000Y-255780000D03*
D14*
X585570000Y-479710000D03*
X586200000Y-479710000D03*
X586830000Y-479710000D03*
X586830000Y-477820000D03*
X586200000Y-477820000D03*
X585570000Y-477820000D03*
X439970000Y-614110000D03*
X440600000Y-614110000D03*
X441230000Y-614110000D03*
X441230000Y-612220000D03*
X440600000Y-612220000D03*
X439970000Y-612220000D03*
X439970000Y-479710000D03*
X440600000Y-479710000D03*
X441230000Y-479710000D03*
X441230000Y-477820000D03*
X440600000Y-477820000D03*
X439970000Y-477820000D03*
D15*
X407630000Y-578690001D03*
X407000000Y-578690001D03*
X406370000Y-578690001D03*
X406370000Y-580580001D03*
X407000000Y-580580001D03*
X407630000Y-580580001D03*
X553230000Y-545090000D03*
X552600000Y-545090000D03*
X551970000Y-545090000D03*
X551970000Y-546980000D03*
X552600000Y-546980000D03*
X553230000Y-546980000D03*
X497230000Y-220289999D03*
X496600000Y-220289999D03*
X495970000Y-220289999D03*
X495970000Y-222179999D03*
X496600000Y-222179999D03*
X497230000Y-222179999D03*
X497230000Y-332290000D03*
X496600000Y-332290000D03*
X495970000Y-332290000D03*
X495970000Y-334180000D03*
X496600000Y-334180000D03*
X497230000Y-334180000D03*
D14*
X585570000Y-558110000D03*
X586200000Y-558110000D03*
X586830000Y-558110000D03*
X586830000Y-556220000D03*
X586200000Y-556220000D03*
X585570000Y-556220000D03*
D15*
X575630000Y-589890000D03*
X575000000Y-589890000D03*
X574370000Y-589890000D03*
X574370000Y-591780000D03*
X575000000Y-591780000D03*
X575630000Y-591780000D03*
D14*
X563170000Y-658910000D03*
X563800000Y-658910000D03*
X564430000Y-658910000D03*
X564430000Y-657020000D03*
X563800000Y-657020000D03*
X563170000Y-657020000D03*
D15*
X407630000Y-533890000D03*
X407000000Y-533890000D03*
X406370000Y-533890000D03*
X406370000Y-535780000D03*
X407000000Y-535780000D03*
X407630000Y-535780000D03*
D14*
X518370000Y-322910000D03*
X519000000Y-322910000D03*
X519630000Y-322910000D03*
X519630000Y-321020000D03*
X519000000Y-321020000D03*
X518370000Y-321020000D03*
X563170000Y-401310000D03*
X563800000Y-401310000D03*
X564430000Y-401310000D03*
X564430000Y-399420000D03*
X563800000Y-399420000D03*
X563170000Y-399420000D03*
D15*
X530830000Y-522690000D03*
X530200000Y-522690000D03*
X529570000Y-522690000D03*
X529570000Y-524580000D03*
X530200000Y-524580000D03*
X530830000Y-524580000D03*
D14*
X607970000Y-614110000D03*
X608600000Y-614110000D03*
X609230000Y-614110000D03*
X609230000Y-612220000D03*
X608600000Y-612220000D03*
X607970000Y-612220000D03*
X540770000Y-502110000D03*
X541400000Y-502110000D03*
X542030000Y-502110000D03*
X542030000Y-500220000D03*
X541400000Y-500220000D03*
X540770000Y-500220000D03*
X518370000Y-446110000D03*
X519000000Y-446110000D03*
X519630000Y-446110000D03*
X519630000Y-444220000D03*
X519000000Y-444220000D03*
X518370000Y-444220000D03*
D15*
X598030000Y-220290000D03*
X597400000Y-220290000D03*
X596770000Y-220290000D03*
X596770000Y-222180000D03*
X597400000Y-222180000D03*
X598030000Y-222180000D03*
D14*
X507170000Y-334110000D03*
X507800000Y-334110000D03*
X508430000Y-334110000D03*
X508430000Y-332220000D03*
X507800000Y-332220000D03*
X507170000Y-332220000D03*
D15*
X575630000Y-242690001D03*
X575000000Y-242690001D03*
X574370000Y-242690001D03*
X574370000Y-244580001D03*
X575000000Y-244580001D03*
X575630000Y-244580001D03*
D14*
X439970000Y-255710000D03*
X440600000Y-255710000D03*
X441230000Y-255710000D03*
X441230000Y-253820000D03*
X440600000Y-253820000D03*
X439970000Y-253820000D03*
X540770000Y-334110000D03*
X541400000Y-334110000D03*
X542030000Y-334110000D03*
X542030000Y-332220000D03*
X541400000Y-332220000D03*
X540770000Y-332220000D03*
X540770000Y-535710000D03*
X541400000Y-535710000D03*
X542030000Y-535710000D03*
X542030000Y-533820000D03*
X541400000Y-533820000D03*
X540770000Y-533820000D03*
X507170000Y-244510000D03*
X507800000Y-244510000D03*
X508430000Y-244510000D03*
X508430000Y-242620000D03*
X507800000Y-242620000D03*
X507170000Y-242620000D03*
D15*
X497230000Y-477890000D03*
X496600000Y-477890000D03*
X495970000Y-477890000D03*
X495970000Y-479780000D03*
X496600000Y-479780000D03*
X497230000Y-479780000D03*
X620430000Y-298690000D03*
X619800000Y-298690000D03*
X619170000Y-298690000D03*
X619170000Y-300580000D03*
X619800000Y-300580000D03*
X620430000Y-300580000D03*
D14*
X540770000Y-412510000D03*
X541400000Y-412510000D03*
X542030000Y-412510000D03*
X542030000Y-410620000D03*
X541400000Y-410620000D03*
X540770000Y-410620000D03*
D15*
X452430000Y-567490000D03*
X451800000Y-567490000D03*
X451170000Y-567490000D03*
X451170000Y-569380000D03*
X451800000Y-569380000D03*
X452430000Y-569380000D03*
D14*
X462370000Y-658910000D03*
X463000000Y-658910000D03*
X463630000Y-658910000D03*
X463630000Y-657020000D03*
X463000000Y-657020000D03*
X462370000Y-657020000D03*
X507170000Y-569309999D03*
X507800000Y-569309999D03*
X508430000Y-569309999D03*
X508430000Y-567419999D03*
X507800000Y-567419999D03*
X507170000Y-567419999D03*
X417570000Y-614110000D03*
X418200000Y-614110000D03*
X418830000Y-614110000D03*
X418830000Y-612220000D03*
X418200000Y-612220000D03*
X417570000Y-612220000D03*
D15*
X530830000Y-444290000D03*
X530200000Y-444290000D03*
X529570000Y-444290000D03*
X529570000Y-446180000D03*
X530200000Y-446180000D03*
X530830000Y-446180000D03*
X620430000Y-410690000D03*
X619800000Y-410690000D03*
X619170000Y-410690000D03*
X619170000Y-412580000D03*
X619800000Y-412580000D03*
X620430000Y-412580000D03*
X620430000Y-365890000D03*
X619800000Y-365890000D03*
X619170000Y-365890000D03*
X619170000Y-367780000D03*
X619800000Y-367780000D03*
X620430000Y-367780000D03*
X474830000Y-309890000D03*
X474200000Y-309890000D03*
X473570000Y-309890000D03*
X473570000Y-311780000D03*
X474200000Y-311780000D03*
X474830000Y-311780000D03*
X530830000Y-421890000D03*
X530200000Y-421890000D03*
X529570000Y-421890000D03*
X529570000Y-423780000D03*
X530200000Y-423780000D03*
X530830000Y-423780000D03*
X598030000Y-601090000D03*
X597400000Y-601090000D03*
X596770000Y-601090000D03*
X596770000Y-602980000D03*
X597400000Y-602980000D03*
X598030000Y-602980000D03*
X530830000Y-500290000D03*
X530200000Y-500290000D03*
X529570000Y-500290000D03*
X529570000Y-502180000D03*
X530200000Y-502180000D03*
X530830000Y-502180000D03*
D14*
X518370000Y-513310000D03*
X519000000Y-513310000D03*
X519630000Y-513310000D03*
X519630000Y-511420000D03*
X519000000Y-511420000D03*
X518370000Y-511420000D03*
X607970000Y-569310000D03*
X608600000Y-569310000D03*
X609230000Y-569310000D03*
X609230000Y-567420000D03*
X608600000Y-567420000D03*
X607970000Y-567420000D03*
X507170000Y-378910000D03*
X507800000Y-378910000D03*
X508430000Y-378910000D03*
X508430000Y-377020000D03*
X507800000Y-377020000D03*
X507170000Y-377020000D03*
D15*
X407630000Y-399490000D03*
X407000000Y-399490000D03*
X406370000Y-399490000D03*
X406370000Y-401380000D03*
X407000000Y-401380000D03*
X407630000Y-401380000D03*
X474830000Y-410690000D03*
X474200000Y-410690000D03*
X473570000Y-410690000D03*
X473570000Y-412580000D03*
X474200000Y-412580000D03*
X474830000Y-412580000D03*
X620430000Y-332290000D03*
X619800000Y-332290000D03*
X619170000Y-332290000D03*
X619170000Y-334180000D03*
X619800000Y-334180000D03*
X620430000Y-334180000D03*
D14*
X607970000Y-378910000D03*
X608600000Y-378910000D03*
X609230000Y-378910000D03*
X609230000Y-377020000D03*
X608600000Y-377020000D03*
X607970000Y-377020000D03*
X540770000Y-300510000D03*
X541400000Y-300510000D03*
X542030000Y-300510000D03*
X542030000Y-298620000D03*
X541400000Y-298620000D03*
X540770000Y-298620000D03*
X540770000Y-468510000D03*
X541400000Y-468510000D03*
X542030000Y-468510000D03*
X542030000Y-466620000D03*
X541400000Y-466620000D03*
X540770000Y-466620000D03*
D15*
X497230000Y-645890000D03*
X496600000Y-645890000D03*
X495970000Y-645890000D03*
X495970000Y-647780000D03*
X496600000Y-647780000D03*
X497230000Y-647780000D03*
X474830000Y-421890000D03*
X474200000Y-421890000D03*
X473570000Y-421890000D03*
X473570000Y-423780000D03*
X474200000Y-423780000D03*
X474830000Y-423780000D03*
D14*
X484770000Y-412510000D03*
X485400000Y-412510000D03*
X486030000Y-412510000D03*
X486030000Y-410620000D03*
X485400000Y-410620000D03*
X484770000Y-410620000D03*
D15*
X474830000Y-489090000D03*
X474200000Y-489090000D03*
X473570000Y-489090000D03*
X473570000Y-490980000D03*
X474200000Y-490980000D03*
X474830000Y-490980000D03*
X430030000Y-567490000D03*
X429400000Y-567490000D03*
X428770000Y-567490000D03*
X428770000Y-569380000D03*
X429400000Y-569380000D03*
X430030000Y-569380000D03*
X530830000Y-601090000D03*
X530200000Y-601090000D03*
X529570000Y-601090000D03*
X529570000Y-602980000D03*
X530200000Y-602980000D03*
X530830000Y-602980000D03*
X474830000Y-657090000D03*
X474200000Y-657090000D03*
X473570000Y-657090000D03*
X473570000Y-658980000D03*
X474200000Y-658980000D03*
X474830000Y-658980000D03*
M02*
