M48
; DRILL file {KiCad 7.0.6} date Sun Nov  3 17:16:33 2024
; FORMAT={-:-/ absolute / metric / decimal}
; #@! TF.CreationDate,2024-11-03T17:16:33-05:00
; #@! TF.GenerationSoftware,Kicad,Pcbnew,7.0.6
; #@! TF.FileFunction,Plated,1,2,PTH
FMAT,2
METRIC
; #@! TA.AperFunction,Plated,PTH,ViaDrill
T1C0.300
; #@! TA.AperFunction,Plated,PTH,ViaDrill
T2C0.400
; #@! TA.AperFunction,Plated,PTH,ComponentDrill
T3C2.500
%
G90
G05
T1
X406.37Y-223.28
X406.37Y-224.39
X406.37Y-228.94
X406.37Y-245.68
X406.37Y-246.79
X406.37Y-251.34
X406.37Y-268.08
X406.37Y-269.19
X406.37Y-273.74
X406.37Y-290.48
X406.37Y-291.59
X406.37Y-296.14
X406.37Y-312.88
X406.37Y-313.99
X406.37Y-318.54
X406.37Y-335.28
X406.37Y-336.39
X406.37Y-340.94
X406.37Y-357.68
X406.37Y-358.79
X406.37Y-363.34
X406.37Y-380.08
X406.37Y-381.19
X406.37Y-385.74
X406.37Y-402.48
X406.37Y-403.59
X406.37Y-408.14
X406.37Y-424.88
X406.37Y-425.99
X406.37Y-430.54
X406.37Y-447.28
X406.37Y-448.39
X406.37Y-452.94
X406.37Y-469.68
X406.37Y-470.79
X406.37Y-475.34
X406.37Y-492.08
X406.37Y-493.19
X406.37Y-497.74
X406.37Y-514.48
X406.37Y-515.59
X406.37Y-520.14
X406.37Y-536.88
X406.37Y-537.99
X406.37Y-542.54
X406.37Y-559.28
X406.37Y-560.39
X406.37Y-564.94
X406.37Y-581.68
X406.37Y-582.79
X406.37Y-587.34
X406.37Y-604.08
X406.37Y-605.19
X406.37Y-609.74
X406.37Y-626.48
X406.37Y-627.59
X406.37Y-632.14
X406.37Y-648.88
X406.37Y-649.99
X406.37Y-654.54
X407.63Y-210.2
X407.63Y-221.4
X407.63Y-223.835
X407.63Y-229.48
X407.63Y-230.42
X407.63Y-232.6
X407.63Y-243.8
X407.63Y-246.235
X407.63Y-251.88
X407.63Y-252.82
X407.63Y-255.0
X407.63Y-266.2
X407.63Y-268.635
X407.63Y-274.28
X407.63Y-275.22
X407.63Y-277.4
X407.63Y-288.6
X407.63Y-291.035
X407.63Y-296.68
X407.63Y-297.62
X407.63Y-299.8
X407.63Y-311.0
X407.63Y-313.435
X407.63Y-319.08
X407.63Y-320.02
X407.63Y-322.2
X407.63Y-333.4
X407.63Y-335.835
X407.63Y-341.48
X407.63Y-342.42
X407.63Y-344.6
X407.63Y-355.8
X407.63Y-358.235
X407.63Y-363.88
X407.63Y-364.82
X407.63Y-367.0
X407.63Y-378.2
X407.63Y-380.635
X407.63Y-386.28
X407.63Y-387.22
X407.63Y-389.4
X407.63Y-400.6
X407.63Y-403.035
X407.63Y-408.68
X407.63Y-409.62
X407.63Y-411.8
X407.63Y-423.0
X407.63Y-425.435
X407.63Y-431.08
X407.63Y-432.02
X407.63Y-434.2
X407.63Y-445.4
X407.63Y-447.835
X407.63Y-453.48
X407.63Y-454.42
X407.63Y-456.6
X407.63Y-467.8
X407.63Y-470.235
X407.63Y-475.88
X407.63Y-476.82
X407.63Y-479.0
X407.63Y-490.2
X407.63Y-492.635
X407.63Y-498.28
X407.63Y-499.22
X407.63Y-501.4
X407.63Y-512.6
X407.63Y-515.035
X407.63Y-520.68
X407.63Y-521.62
X407.63Y-523.8
X407.63Y-535.0
X407.63Y-537.435
X407.63Y-543.08
X407.63Y-544.02
X407.63Y-546.2
X407.63Y-557.4
X407.63Y-559.835
X407.63Y-565.48
X407.63Y-566.42
X407.63Y-568.6
X407.63Y-579.8
X407.63Y-582.235
X407.63Y-587.88
X407.63Y-588.82
X407.63Y-591.0
X407.63Y-602.2
X407.63Y-604.635
X407.63Y-610.28
X407.63Y-611.22
X407.63Y-613.4
X407.63Y-624.6
X407.63Y-627.035
X407.63Y-632.68
X407.63Y-633.62
X407.63Y-635.8
X407.63Y-647.0
X407.63Y-649.435
X407.63Y-655.08
X407.63Y-656.02
X407.63Y-658.2
X408.2Y-669.699
X408.245Y-210.98
X408.245Y-222.18
X408.245Y-233.38
X408.245Y-244.58
X408.245Y-255.78
X408.245Y-266.98
X408.245Y-278.18
X408.245Y-289.38
X408.245Y-300.58
X408.245Y-311.78
X408.245Y-322.98
X408.245Y-334.18
X408.245Y-345.38
X408.245Y-356.58
X408.245Y-367.78
X408.245Y-378.98
X408.245Y-390.18
X408.245Y-401.38
X408.245Y-412.58
X408.245Y-423.78
X408.245Y-434.98
X408.245Y-446.18
X408.245Y-457.38
X408.245Y-468.58
X408.245Y-479.78
X408.245Y-490.98
X408.245Y-502.18
X408.245Y-513.38
X408.245Y-524.58
X408.245Y-535.78
X408.245Y-546.98
X408.245Y-558.18
X408.245Y-569.38
X408.245Y-580.58
X408.245Y-591.78
X408.245Y-602.98
X408.245Y-614.18
X408.245Y-625.38
X408.245Y-636.58
X408.245Y-647.78
X408.245Y-658.98
X408.8Y-669.8
X416.9Y-209.0
X416.955Y-220.22
X416.955Y-231.42
X416.955Y-242.62
X416.955Y-253.82
X416.955Y-265.02
X416.955Y-276.22
X416.955Y-287.42
X416.955Y-298.62
X416.955Y-309.82
X416.955Y-321.02
X416.955Y-332.22
X416.955Y-343.42
X416.955Y-354.62
X416.955Y-365.82
X416.955Y-377.02
X416.955Y-388.22
X416.955Y-399.42
X416.955Y-410.62
X416.955Y-421.82
X416.955Y-433.02
X416.955Y-444.22
X416.955Y-455.42
X416.955Y-466.62
X416.955Y-477.82
X416.955Y-489.02
X416.955Y-500.22
X416.955Y-511.42
X416.955Y-522.62
X416.955Y-533.82
X416.955Y-545.02
X416.955Y-556.22
X416.955Y-567.42
X416.955Y-578.62
X416.955Y-589.82
X416.955Y-601.02
X416.955Y-612.22
X416.955Y-623.42
X416.955Y-634.62
X416.955Y-645.82
X416.955Y-657.02
X416.955Y-668.22
X417.57Y-209.8
X417.57Y-221.0
X417.57Y-223.21
X417.57Y-224.32
X417.57Y-228.87
X417.57Y-232.2
X417.57Y-243.4
X417.57Y-245.61
X417.57Y-246.72
X417.57Y-251.27
X417.57Y-254.6
X417.57Y-265.8
X417.57Y-268.01
X417.57Y-269.12
X417.57Y-273.67
X417.57Y-277.0
X417.57Y-288.2
X417.57Y-290.41
X417.57Y-291.52
X417.57Y-296.07
X417.57Y-299.4
X417.57Y-310.6
X417.57Y-312.81
X417.57Y-313.92
X417.57Y-318.47
X417.57Y-321.8
X417.57Y-333.0
X417.57Y-335.21
X417.57Y-336.32
X417.57Y-340.87
X417.57Y-344.2
X417.57Y-355.4
X417.57Y-357.61
X417.57Y-358.72
X417.57Y-363.27
X417.57Y-366.6
X417.57Y-377.8
X417.57Y-380.01
X417.57Y-381.12
X417.57Y-385.67
X417.57Y-389.0
X417.57Y-400.2
X417.57Y-402.41
X417.57Y-403.52
X417.57Y-408.07
X417.57Y-411.4
X417.57Y-422.6
X417.57Y-424.81
X417.57Y-425.92
X417.57Y-430.47
X417.57Y-433.8
X417.57Y-445.0
X417.57Y-447.21
X417.57Y-448.32
X417.57Y-452.87
X417.57Y-456.2
X417.57Y-467.4
X417.57Y-469.61
X417.57Y-470.72
X417.57Y-475.27
X417.57Y-478.6
X417.57Y-489.8
X417.57Y-492.01
X417.57Y-493.12
X417.57Y-497.67
X417.57Y-501.0
X417.57Y-512.2
X417.57Y-514.41
X417.57Y-515.52
X417.57Y-520.07
X417.57Y-523.4
X417.57Y-534.6
X417.57Y-536.81
X417.57Y-537.92
X417.57Y-542.47
X417.57Y-545.8
X417.57Y-557.0
X417.57Y-559.21
X417.57Y-560.32
X417.57Y-564.87
X417.57Y-568.2
X417.57Y-579.4
X417.57Y-581.61
X417.57Y-582.72
X417.57Y-587.27
X417.57Y-590.6
X417.57Y-601.8
X417.57Y-604.01
X417.57Y-605.12
X417.57Y-609.67
X417.57Y-613.0
X417.57Y-624.2
X417.57Y-626.41
X417.57Y-627.52
X417.57Y-632.07
X417.57Y-635.4
X417.57Y-646.6
X417.57Y-648.81
X417.57Y-649.92
X417.57Y-654.47
X417.57Y-657.8
X417.57Y-669.0
X418.83Y-223.765
X418.83Y-229.41
X418.83Y-230.35
X418.83Y-246.165
X418.83Y-251.81
X418.83Y-252.75
X418.83Y-268.565
X418.83Y-274.21
X418.83Y-275.15
X418.83Y-290.965
X418.83Y-296.61
X418.83Y-297.55
X418.83Y-313.365
X418.83Y-319.01
X418.83Y-319.95
X418.83Y-335.765
X418.83Y-341.41
X418.83Y-342.35
X418.83Y-358.165
X418.83Y-363.81
X418.83Y-364.75
X418.83Y-380.565
X418.83Y-386.21
X418.83Y-387.15
X418.83Y-402.965
X418.83Y-408.61
X418.83Y-409.55
X418.83Y-425.365
X418.83Y-431.01
X418.83Y-431.95
X418.83Y-447.765
X418.83Y-453.41
X418.83Y-454.35
X418.83Y-470.165
X418.83Y-475.81
X418.83Y-476.75
X418.83Y-492.565
X418.83Y-498.21
X418.83Y-499.15
X418.83Y-514.965
X418.83Y-520.61
X418.83Y-521.55
X418.83Y-537.365
X418.83Y-543.01
X418.83Y-543.95
X418.83Y-559.765
X418.83Y-565.41
X418.83Y-566.35
X418.83Y-582.165
X418.83Y-587.81
X418.83Y-588.75
X418.83Y-604.565
X418.83Y-610.21
X418.83Y-611.15
X418.83Y-626.965
X418.83Y-632.61
X418.83Y-633.55
X418.83Y-649.365
X418.83Y-655.01
X418.83Y-655.95
X428.77Y-223.28
X428.77Y-224.39
X428.77Y-228.94
X428.77Y-245.68
X428.77Y-246.79
X428.77Y-251.34
X428.77Y-268.08
X428.77Y-269.19
X428.77Y-273.74
X428.77Y-290.48
X428.77Y-291.59
X428.77Y-296.14
X428.77Y-312.88
X428.77Y-313.99
X428.77Y-318.54
X428.77Y-335.28
X428.77Y-336.39
X428.77Y-340.94
X428.77Y-357.68
X428.77Y-358.79
X428.77Y-363.34
X428.77Y-380.08
X428.77Y-381.19
X428.77Y-385.74
X428.77Y-402.48
X428.77Y-403.59
X428.77Y-408.14
X428.77Y-424.88
X428.77Y-425.99
X428.77Y-430.54
X428.77Y-447.28
X428.77Y-448.39
X428.77Y-452.94
X428.77Y-469.68
X428.77Y-470.79
X428.77Y-475.34
X428.77Y-492.08
X428.77Y-493.19
X428.77Y-497.74
X428.77Y-514.48
X428.77Y-515.59
X428.77Y-520.14
X428.77Y-536.88
X428.77Y-537.99
X428.77Y-542.54
X428.77Y-559.28
X428.77Y-560.39
X428.77Y-564.94
X428.77Y-581.68
X428.77Y-582.79
X428.77Y-587.34
X428.77Y-604.08
X428.77Y-605.19
X428.77Y-609.74
X428.77Y-626.48
X428.77Y-627.59
X428.77Y-632.14
X428.77Y-648.88
X428.77Y-649.99
X428.77Y-654.54
X430.03Y-210.2
X430.03Y-221.4
X430.03Y-223.835
X430.03Y-229.48
X430.03Y-230.42
X430.03Y-232.6
X430.03Y-243.8
X430.03Y-246.235
X430.03Y-251.88
X430.03Y-252.82
X430.03Y-255.0
X430.03Y-266.2
X430.03Y-268.635
X430.03Y-274.28
X430.03Y-275.22
X430.03Y-277.4
X430.03Y-288.6
X430.03Y-291.035
X430.03Y-296.68
X430.03Y-297.62
X430.03Y-299.8
X430.03Y-311.0
X430.03Y-313.435
X430.03Y-319.08
X430.03Y-320.02
X430.03Y-322.2
X430.03Y-333.4
X430.03Y-335.835
X430.03Y-341.48
X430.03Y-342.42
X430.03Y-344.6
X430.03Y-355.8
X430.03Y-358.235
X430.03Y-363.88
X430.03Y-364.82
X430.03Y-367.0
X430.03Y-378.2
X430.03Y-380.635
X430.03Y-386.28
X430.03Y-387.22
X430.03Y-389.4
X430.03Y-400.6
X430.03Y-403.035
X430.03Y-408.68
X430.03Y-409.62
X430.03Y-411.8
X430.03Y-423.0
X430.03Y-425.435
X430.03Y-431.08
X430.03Y-432.02
X430.03Y-434.2
X430.03Y-445.4
X430.03Y-447.835
X430.03Y-453.48
X430.03Y-454.42
X430.03Y-456.6
X430.03Y-467.8
X430.03Y-470.235
X430.03Y-475.88
X430.03Y-476.82
X430.03Y-479.0
X430.03Y-490.2
X430.03Y-492.635
X430.03Y-498.28
X430.03Y-499.22
X430.03Y-501.4
X430.03Y-512.6
X430.03Y-515.035
X430.03Y-520.68
X430.03Y-521.62
X430.03Y-523.8
X430.03Y-535.0
X430.03Y-537.435
X430.03Y-543.08
X430.03Y-544.02
X430.03Y-546.2
X430.03Y-557.4
X430.03Y-559.835
X430.03Y-565.48
X430.03Y-566.42
X430.03Y-568.6
X430.03Y-579.8
X430.03Y-582.235
X430.03Y-587.88
X430.03Y-588.82
X430.03Y-591.0
X430.03Y-602.2
X430.03Y-604.635
X430.03Y-610.28
X430.03Y-611.22
X430.03Y-613.4
X430.03Y-624.6
X430.03Y-627.035
X430.03Y-632.68
X430.03Y-633.62
X430.03Y-635.8
X430.03Y-647.0
X430.03Y-649.435
X430.03Y-655.08
X430.03Y-656.02
X430.03Y-658.2
X430.03Y-669.4
X430.645Y-210.98
X430.645Y-222.18
X430.645Y-233.38
X430.645Y-244.58
X430.645Y-255.78
X430.645Y-266.98
X430.645Y-278.18
X430.645Y-289.38
X430.645Y-300.58
X430.645Y-311.78
X430.645Y-322.98
X430.645Y-334.18
X430.645Y-345.38
X430.645Y-356.58
X430.645Y-367.78
X430.645Y-378.98
X430.645Y-390.18
X430.645Y-401.38
X430.645Y-412.58
X430.645Y-423.78
X430.645Y-434.98
X430.645Y-446.18
X430.645Y-457.38
X430.645Y-468.58
X430.645Y-479.78
X430.645Y-490.98
X430.645Y-502.18
X430.645Y-513.38
X430.645Y-524.58
X430.645Y-535.78
X430.645Y-546.98
X430.645Y-558.18
X430.645Y-569.38
X430.645Y-580.58
X430.645Y-591.78
X430.645Y-602.98
X430.645Y-614.18
X430.645Y-625.38
X430.645Y-636.58
X430.645Y-647.78
X430.645Y-658.98
X430.645Y-670.18
X439.355Y-209.0
X439.355Y-220.22
X439.355Y-231.42
X439.355Y-242.62
X439.355Y-253.82
X439.355Y-265.02
X439.355Y-276.22
X439.355Y-287.42
X439.355Y-298.62
X439.355Y-309.82
X439.355Y-321.02
X439.355Y-332.22
X439.355Y-343.42
X439.355Y-354.62
X439.355Y-365.82
X439.355Y-377.02
X439.355Y-388.22
X439.355Y-399.42
X439.355Y-410.62
X439.355Y-421.82
X439.355Y-433.02
X439.355Y-444.22
X439.355Y-455.42
X439.355Y-466.62
X439.355Y-477.82
X439.355Y-489.02
X439.355Y-500.22
X439.355Y-511.42
X439.355Y-522.62
X439.355Y-533.82
X439.355Y-545.02
X439.355Y-556.22
X439.355Y-567.42
X439.355Y-578.62
X439.355Y-589.82
X439.355Y-601.02
X439.355Y-612.22
X439.355Y-623.42
X439.355Y-634.62
X439.355Y-645.82
X439.355Y-657.02
X439.355Y-668.22
X439.97Y-209.8
X439.97Y-221.0
X439.97Y-223.21
X439.97Y-224.32
X439.97Y-228.87
X439.97Y-232.2
X439.97Y-243.4
X439.97Y-245.61
X439.97Y-246.72
X439.97Y-251.27
X439.97Y-254.6
X439.97Y-265.8
X439.97Y-268.01
X439.97Y-269.12
X439.97Y-273.67
X439.97Y-277.0
X439.97Y-288.2
X439.97Y-290.41
X439.97Y-291.52
X439.97Y-296.07
X439.97Y-299.4
X439.97Y-310.6
X439.97Y-312.81
X439.97Y-313.92
X439.97Y-318.47
X439.97Y-321.8
X439.97Y-333.0
X439.97Y-335.21
X439.97Y-336.32
X439.97Y-340.87
X439.97Y-344.2
X439.97Y-355.4
X439.97Y-357.61
X439.97Y-358.72
X439.97Y-363.27
X439.97Y-366.6
X439.97Y-377.8
X439.97Y-380.01
X439.97Y-381.12
X439.97Y-385.67
X439.97Y-389.0
X439.97Y-400.2
X439.97Y-402.41
X439.97Y-403.52
X439.97Y-408.07
X439.97Y-411.4
X439.97Y-422.6
X439.97Y-424.81
X439.97Y-425.92
X439.97Y-430.47
X439.97Y-433.8
X439.97Y-445.0
X439.97Y-447.21
X439.97Y-448.32
X439.97Y-452.87
X439.97Y-456.2
X439.97Y-467.4
X439.97Y-469.61
X439.97Y-470.72
X439.97Y-475.27
X439.97Y-478.6
X439.97Y-489.8
X439.97Y-492.01
X439.97Y-493.12
X439.97Y-497.67
X439.97Y-501.0
X439.97Y-512.2
X439.97Y-514.41
X439.97Y-515.52
X439.97Y-520.07
X439.97Y-523.4
X439.97Y-534.6
X439.97Y-536.81
X439.97Y-537.92
X439.97Y-542.47
X439.97Y-545.8
X439.97Y-557.0
X439.97Y-559.21
X439.97Y-560.32
X439.97Y-564.87
X439.97Y-568.2
X439.97Y-579.4
X439.97Y-581.61
X439.97Y-582.72
X439.97Y-587.27
X439.97Y-590.6
X439.97Y-601.8
X439.97Y-604.01
X439.97Y-605.12
X439.97Y-609.67
X439.97Y-613.0
X439.97Y-624.2
X439.97Y-626.41
X439.97Y-627.52
X439.97Y-632.07
X439.97Y-635.4
X439.97Y-646.6
X439.97Y-648.81
X439.97Y-649.92
X439.97Y-654.47
X439.97Y-657.8
X439.97Y-669.0
X441.23Y-223.765
X441.23Y-229.41
X441.23Y-230.35
X441.23Y-246.165
X441.23Y-251.81
X441.23Y-252.75
X441.23Y-268.565
X441.23Y-274.21
X441.23Y-275.15
X441.23Y-290.965
X441.23Y-296.61
X441.23Y-297.55
X441.23Y-313.365
X441.23Y-319.01
X441.23Y-319.95
X441.23Y-335.765
X441.23Y-341.41
X441.23Y-342.35
X441.23Y-358.165
X441.23Y-363.81
X441.23Y-364.75
X441.23Y-380.565
X441.23Y-386.21
X441.23Y-387.15
X441.23Y-402.965
X441.23Y-408.61
X441.23Y-409.55
X441.23Y-425.365
X441.23Y-431.01
X441.23Y-431.95
X441.23Y-447.765
X441.23Y-453.41
X441.23Y-454.35
X441.23Y-470.165
X441.23Y-475.81
X441.23Y-476.75
X441.23Y-492.565
X441.23Y-498.21
X441.23Y-499.15
X441.23Y-514.965
X441.23Y-520.61
X441.23Y-521.55
X441.23Y-537.365
X441.23Y-543.01
X441.23Y-543.95
X441.23Y-559.765
X441.23Y-565.41
X441.23Y-566.35
X441.23Y-582.165
X441.23Y-587.81
X441.23Y-588.75
X441.23Y-604.565
X441.23Y-610.21
X441.23Y-611.15
X441.23Y-626.965
X441.23Y-632.61
X441.23Y-633.55
X441.23Y-649.365
X441.23Y-655.01
X441.23Y-655.95
X451.17Y-223.28
X451.17Y-224.39
X451.17Y-228.94
X451.17Y-245.68
X451.17Y-246.79
X451.17Y-251.34
X451.17Y-268.08
X451.17Y-269.19
X451.17Y-273.74
X451.17Y-290.48
X451.17Y-291.59
X451.17Y-296.14
X451.17Y-312.88
X451.17Y-313.99
X451.17Y-318.54
X451.17Y-335.28
X451.17Y-336.39
X451.17Y-340.94
X451.17Y-357.68
X451.17Y-358.79
X451.17Y-363.34
X451.17Y-380.08
X451.17Y-381.19
X451.17Y-385.74
X451.17Y-402.48
X451.17Y-403.59
X451.17Y-408.14
X451.17Y-424.88
X451.17Y-425.99
X451.17Y-430.54
X451.17Y-447.28
X451.17Y-448.39
X451.17Y-452.94
X451.17Y-469.68
X451.17Y-470.79
X451.17Y-475.34
X451.17Y-492.08
X451.17Y-493.19
X451.17Y-497.74
X451.17Y-514.48
X451.17Y-515.59
X451.17Y-520.14
X451.17Y-536.88
X451.17Y-537.99
X451.17Y-542.54
X451.17Y-559.28
X451.17Y-560.39
X451.17Y-564.94
X451.17Y-581.68
X451.17Y-582.79
X451.17Y-587.34
X451.17Y-604.08
X451.17Y-605.19
X451.17Y-609.74
X451.17Y-626.48
X451.17Y-627.59
X451.17Y-632.14
X451.17Y-648.88
X451.17Y-649.99
X451.17Y-654.54
X452.43Y-210.2
X452.43Y-221.4
X452.43Y-223.835
X452.43Y-229.48
X452.43Y-230.42
X452.43Y-232.6
X452.43Y-243.8
X452.43Y-246.235
X452.43Y-251.88
X452.43Y-252.82
X452.43Y-255.0
X452.43Y-266.2
X452.43Y-268.635
X452.43Y-274.28
X452.43Y-275.22
X452.43Y-277.4
X452.43Y-288.6
X452.43Y-291.035
X452.43Y-296.68
X452.43Y-297.62
X452.43Y-299.8
X452.43Y-311.0
X452.43Y-313.435
X452.43Y-319.08
X452.43Y-320.02
X452.43Y-322.2
X452.43Y-333.4
X452.43Y-335.835
X452.43Y-341.48
X452.43Y-342.42
X452.43Y-344.6
X452.43Y-355.8
X452.43Y-358.235
X452.43Y-363.88
X452.43Y-364.82
X452.43Y-367.0
X452.43Y-378.2
X452.43Y-380.635
X452.43Y-386.28
X452.43Y-387.22
X452.43Y-389.4
X452.43Y-400.6
X452.43Y-403.035
X452.43Y-408.68
X452.43Y-409.62
X452.43Y-411.8
X452.43Y-423.0
X452.43Y-425.435
X452.43Y-431.08
X452.43Y-432.02
X452.43Y-434.2
X452.43Y-445.4
X452.43Y-447.835
X452.43Y-453.48
X452.43Y-454.42
X452.43Y-456.6
X452.43Y-467.8
X452.43Y-470.235
X452.43Y-475.88
X452.43Y-476.82
X452.43Y-479.0
X452.43Y-490.2
X452.43Y-492.635
X452.43Y-498.28
X452.43Y-499.22
X452.43Y-501.4
X452.43Y-512.6
X452.43Y-515.035
X452.43Y-520.68
X452.43Y-521.62
X452.43Y-523.8
X452.43Y-535.0
X452.43Y-537.435
X452.43Y-543.08
X452.43Y-544.02
X452.43Y-546.2
X452.43Y-557.4
X452.43Y-559.835
X452.43Y-565.48
X452.43Y-566.42
X452.43Y-568.6
X452.43Y-579.8
X452.43Y-582.235
X452.43Y-587.88
X452.43Y-588.82
X452.43Y-591.0
X452.43Y-602.2
X452.43Y-604.635
X452.43Y-610.28
X452.43Y-611.22
X452.43Y-613.4
X452.43Y-624.6
X452.43Y-627.035
X452.43Y-632.68
X452.43Y-633.62
X452.43Y-635.8
X452.43Y-647.0
X452.43Y-649.435
X452.43Y-655.08
X452.43Y-656.02
X452.43Y-658.2
X452.43Y-669.4
X453.045Y-210.98
X453.045Y-222.18
X453.045Y-233.38
X453.045Y-244.58
X453.045Y-255.78
X453.045Y-266.98
X453.045Y-278.18
X453.045Y-289.38
X453.045Y-300.58
X453.045Y-311.78
X453.045Y-322.98
X453.045Y-334.18
X453.045Y-345.38
X453.045Y-356.58
X453.045Y-367.78
X453.045Y-378.98
X453.045Y-390.18
X453.045Y-401.38
X453.045Y-412.58
X453.045Y-423.78
X453.045Y-434.98
X453.045Y-446.18
X453.045Y-457.38
X453.045Y-468.58
X453.045Y-479.78
X453.045Y-490.98
X453.045Y-502.18
X453.045Y-513.38
X453.045Y-524.58
X453.045Y-535.78
X453.045Y-546.98
X453.045Y-558.18
X453.045Y-569.38
X453.045Y-580.58
X453.045Y-591.78
X453.045Y-602.98
X453.045Y-614.18
X453.045Y-625.38
X453.045Y-636.58
X453.045Y-647.78
X453.045Y-658.98
X453.1Y-670.2
X461.7Y-209.0
X461.755Y-220.22
X461.755Y-231.42
X461.755Y-242.62
X461.755Y-253.82
X461.755Y-265.02
X461.755Y-276.22
X461.755Y-287.42
X461.755Y-298.62
X461.755Y-309.82
X461.755Y-321.02
X461.755Y-332.22
X461.755Y-343.42
X461.755Y-354.62
X461.755Y-365.82
X461.755Y-377.02
X461.755Y-388.22
X461.755Y-399.42
X461.755Y-410.62
X461.755Y-421.82
X461.755Y-433.02
X461.755Y-444.22
X461.755Y-455.42
X461.755Y-466.62
X461.755Y-477.82
X461.755Y-489.02
X461.755Y-500.22
X461.755Y-511.42
X461.755Y-522.62
X461.755Y-533.82
X461.755Y-545.02
X461.755Y-556.22
X461.755Y-567.42
X461.755Y-578.62
X461.755Y-589.82
X461.755Y-601.02
X461.755Y-612.22
X461.755Y-623.42
X461.755Y-634.62
X461.755Y-645.82
X461.755Y-657.02
X461.755Y-668.22
X462.37Y-209.9
X462.37Y-221.0
X462.37Y-223.18
X462.37Y-224.12
X462.37Y-229.765
X462.37Y-232.2
X462.37Y-243.4
X462.37Y-245.58
X462.37Y-246.52
X462.37Y-252.165
X462.37Y-254.6
X462.37Y-265.8
X462.37Y-267.98
X462.37Y-268.92
X462.37Y-274.565
X462.37Y-277.0
X462.37Y-288.2
X462.37Y-290.38
X462.37Y-291.32
X462.37Y-296.965
X462.37Y-299.4
X462.37Y-310.6
X462.37Y-312.78
X462.37Y-313.72
X462.37Y-319.365
X462.37Y-321.8
X462.37Y-333.0
X462.37Y-335.18
X462.37Y-336.12
X462.37Y-341.765
X462.37Y-344.2
X462.37Y-355.4
X462.37Y-357.58
X462.37Y-358.52
X462.37Y-364.165
X462.37Y-366.6
X462.37Y-377.8
X462.37Y-379.98
X462.37Y-380.92
X462.37Y-386.565
X462.37Y-389.0
X462.37Y-400.2
X462.37Y-402.38
X462.37Y-403.32
X462.37Y-408.965
X462.37Y-411.4
X462.37Y-422.6
X462.37Y-424.78
X462.37Y-425.72
X462.37Y-431.365
X462.37Y-433.8
X462.37Y-445.0
X462.37Y-447.18
X462.37Y-448.12
X462.37Y-453.765
X462.37Y-456.2
X462.37Y-467.4
X462.37Y-469.58
X462.37Y-470.52
X462.37Y-476.165
X462.37Y-478.6
X462.37Y-489.8
X462.37Y-491.98
X462.37Y-492.92
X462.37Y-498.565
X462.37Y-501.0
X462.37Y-512.2
X462.37Y-514.38
X462.37Y-515.32
X462.37Y-520.965
X462.37Y-523.4
X462.37Y-534.6
X462.37Y-536.78
X462.37Y-537.72
X462.37Y-543.365
X462.37Y-545.8
X462.37Y-557.0
X462.37Y-559.18
X462.37Y-560.12
X462.37Y-565.765
X462.37Y-568.2
X462.37Y-579.4
X462.37Y-581.58
X462.37Y-582.52
X462.37Y-588.165
X462.37Y-590.6
X462.37Y-601.8
X462.37Y-603.98
X462.37Y-604.92
X462.37Y-610.565
X462.37Y-613.0
X462.37Y-624.2
X462.37Y-626.38
X462.37Y-627.32
X462.37Y-632.965
X462.37Y-635.4
X462.37Y-646.6
X462.37Y-648.78
X462.37Y-649.72
X462.37Y-655.365
X462.37Y-657.8
X462.37Y-669.0
X463.63Y-224.66
X463.63Y-229.21
X463.63Y-230.32
X463.63Y-247.06
X463.63Y-251.61
X463.63Y-252.72
X463.63Y-269.46
X463.63Y-274.01
X463.63Y-275.12
X463.63Y-291.86
X463.63Y-296.41
X463.63Y-297.52
X463.63Y-314.26
X463.63Y-318.81
X463.63Y-319.92
X463.63Y-336.66
X463.63Y-341.21
X463.63Y-342.32
X463.63Y-359.06
X463.63Y-363.61
X463.63Y-364.72
X463.63Y-381.46
X463.63Y-386.01
X463.63Y-387.12
X463.63Y-403.86
X463.63Y-408.41
X463.63Y-409.52
X463.63Y-426.26
X463.63Y-430.81
X463.63Y-431.92
X463.63Y-448.66
X463.63Y-453.21
X463.63Y-454.32
X463.63Y-471.06
X463.63Y-475.61
X463.63Y-476.72
X463.63Y-493.46
X463.63Y-498.01
X463.63Y-499.12
X463.63Y-515.86
X463.63Y-520.41
X463.63Y-521.52
X463.63Y-538.26
X463.63Y-542.81
X463.63Y-543.92
X463.63Y-560.66
X463.63Y-565.21
X463.63Y-566.32
X463.63Y-583.06
X463.63Y-587.61
X463.63Y-588.72
X463.63Y-605.46
X463.63Y-610.01
X463.63Y-611.12
X463.63Y-627.86
X463.63Y-632.41
X463.63Y-633.52
X463.63Y-650.26
X463.63Y-654.81
X463.63Y-655.92
X473.57Y-223.25
X473.57Y-224.19
X473.57Y-229.835
X473.57Y-245.65
X473.57Y-246.59
X473.57Y-252.235
X473.57Y-268.05
X473.57Y-268.99
X473.57Y-274.635
X473.57Y-290.45
X473.57Y-291.39
X473.57Y-297.035
X473.57Y-312.85
X473.57Y-313.79
X473.57Y-319.435
X473.57Y-335.25
X473.57Y-336.19
X473.57Y-341.835
X473.57Y-357.65
X473.57Y-358.59
X473.57Y-364.235
X473.57Y-380.05
X473.57Y-380.99
X473.57Y-386.635
X473.57Y-402.45
X473.57Y-403.39
X473.57Y-409.035
X473.57Y-424.85
X473.57Y-425.79
X473.57Y-431.435
X473.57Y-447.25
X473.57Y-448.19
X473.57Y-453.835
X473.57Y-469.65
X473.57Y-470.59
X473.57Y-476.235
X473.57Y-492.05
X473.57Y-492.99
X473.57Y-498.635
X473.57Y-514.45
X473.57Y-515.39
X473.57Y-521.035
X473.57Y-536.85
X473.57Y-537.79
X473.57Y-543.435
X473.57Y-559.25
X473.57Y-560.19
X473.57Y-565.835
X473.57Y-581.65
X473.57Y-582.59
X473.57Y-588.235
X473.57Y-604.05
X473.57Y-604.99
X473.57Y-610.635
X473.57Y-626.45
X473.57Y-627.39
X473.57Y-633.035
X473.57Y-648.85
X473.57Y-649.79
X473.57Y-655.435
X474.83Y-210.2
X474.83Y-221.4
X474.83Y-224.73
X474.83Y-229.28
X474.83Y-230.39
X474.83Y-232.6
X474.83Y-243.8
X474.83Y-247.13
X474.83Y-251.68
X474.83Y-252.79
X474.83Y-255.0
X474.83Y-266.2
X474.83Y-269.53
X474.83Y-274.08
X474.83Y-275.19
X474.83Y-277.4
X474.83Y-288.6
X474.83Y-291.93
X474.83Y-296.48
X474.83Y-297.59
X474.83Y-299.8
X474.83Y-311.0
X474.83Y-314.33
X474.83Y-318.88
X474.83Y-319.99
X474.83Y-322.2
X474.83Y-333.4
X474.83Y-336.73
X474.83Y-341.28
X474.83Y-342.39
X474.83Y-344.6
X474.83Y-355.8
X474.83Y-359.13
X474.83Y-363.68
X474.83Y-364.79
X474.83Y-367.0
X474.83Y-378.2
X474.83Y-381.53
X474.83Y-386.08
X474.83Y-387.19
X474.83Y-389.4
X474.83Y-400.6
X474.83Y-403.93
X474.83Y-408.48
X474.83Y-409.59
X474.83Y-411.8
X474.83Y-423.0
X474.83Y-426.33
X474.83Y-430.88
X474.83Y-431.99
X474.83Y-434.2
X474.83Y-445.4
X474.83Y-448.73
X474.83Y-453.28
X474.83Y-454.39
X474.83Y-456.6
X474.83Y-467.8
X474.83Y-471.13
X474.83Y-475.68
X474.83Y-476.79
X474.83Y-479.0
X474.83Y-490.2
X474.83Y-493.53
X474.83Y-498.08
X474.83Y-499.19
X474.83Y-501.4
X474.83Y-512.6
X474.83Y-515.93
X474.83Y-520.48
X474.83Y-521.59
X474.83Y-523.8
X474.83Y-535.0
X474.83Y-538.33
X474.83Y-542.88
X474.83Y-543.99
X474.83Y-546.2
X474.83Y-557.4
X474.83Y-560.73
X474.83Y-565.28
X474.83Y-566.39
X474.83Y-568.6
X474.83Y-579.8
X474.83Y-583.13
X474.83Y-587.68
X474.83Y-588.79
X474.83Y-591.0
X474.83Y-602.2
X474.83Y-605.53
X474.83Y-610.08
X474.83Y-611.19
X474.83Y-613.4
X474.83Y-624.6
X474.83Y-627.93
X474.83Y-632.48
X474.83Y-633.59
X474.83Y-635.8
X474.83Y-647.0
X474.83Y-650.33
X474.83Y-654.88
X474.83Y-655.99
X474.83Y-658.2
X474.83Y-669.4
X475.445Y-210.98
X475.445Y-222.18
X475.445Y-233.38
X475.445Y-244.58
X475.445Y-255.78
X475.445Y-266.98
X475.445Y-278.18
X475.445Y-289.38
X475.445Y-300.58
X475.445Y-311.78
X475.445Y-322.98
X475.445Y-334.18
X475.445Y-345.38
X475.445Y-356.58
X475.445Y-367.78
X475.445Y-378.98
X475.445Y-390.18
X475.445Y-401.38
X475.445Y-412.58
X475.445Y-423.78
X475.445Y-434.98
X475.445Y-446.18
X475.445Y-457.38
X475.445Y-468.58
X475.445Y-479.78
X475.445Y-490.98
X475.445Y-502.18
X475.445Y-513.38
X475.445Y-524.58
X475.445Y-535.78
X475.445Y-546.98
X475.445Y-558.18
X475.445Y-569.38
X475.445Y-580.58
X475.445Y-591.78
X475.445Y-602.98
X475.445Y-614.18
X475.445Y-625.38
X475.445Y-636.58
X475.445Y-647.78
X475.445Y-658.98
X475.445Y-670.18
X484.155Y-209.02
X484.155Y-220.22
X484.155Y-231.42
X484.155Y-242.62
X484.155Y-253.82
X484.155Y-265.02
X484.155Y-276.22
X484.155Y-287.42
X484.155Y-298.62
X484.155Y-309.82
X484.155Y-321.02
X484.155Y-332.22
X484.155Y-343.42
X484.155Y-354.62
X484.155Y-365.82
X484.155Y-377.02
X484.155Y-388.22
X484.155Y-399.42
X484.155Y-410.62
X484.155Y-421.82
X484.155Y-433.02
X484.155Y-444.22
X484.155Y-455.42
X484.155Y-466.62
X484.155Y-477.82
X484.155Y-489.02
X484.155Y-500.22
X484.155Y-511.42
X484.155Y-522.62
X484.155Y-533.82
X484.155Y-545.02
X484.155Y-556.22
X484.155Y-567.42
X484.155Y-578.62
X484.155Y-589.82
X484.155Y-601.02
X484.155Y-612.22
X484.155Y-623.42
X484.155Y-634.62
X484.155Y-645.82
X484.155Y-657.02
X484.155Y-668.22
X484.77Y-209.8
X484.77Y-221.0
X484.77Y-223.18
X484.77Y-224.12
X484.77Y-229.765
X484.77Y-232.2
X484.77Y-243.4
X484.77Y-245.58
X484.77Y-246.52
X484.77Y-252.165
X484.77Y-254.6
X484.77Y-265.8
X484.77Y-267.98
X484.77Y-268.92
X484.77Y-274.565
X484.77Y-277.0
X484.77Y-288.2
X484.77Y-290.38
X484.77Y-291.32
X484.77Y-296.965
X484.77Y-299.4
X484.77Y-310.6
X484.77Y-312.78
X484.77Y-313.72
X484.77Y-319.365
X484.77Y-321.8
X484.77Y-333.0
X484.77Y-335.18
X484.77Y-336.12
X484.77Y-341.765
X484.77Y-344.2
X484.77Y-355.4
X484.77Y-357.58
X484.77Y-358.52
X484.77Y-364.165
X484.77Y-366.6
X484.77Y-377.8
X484.77Y-379.98
X484.77Y-380.92
X484.77Y-386.565
X484.77Y-389.0
X484.77Y-400.2
X484.77Y-402.38
X484.77Y-403.32
X484.77Y-408.965
X484.77Y-411.4
X484.77Y-422.6
X484.77Y-424.78
X484.77Y-425.72
X484.77Y-431.365
X484.77Y-433.8
X484.77Y-445.0
X484.77Y-447.18
X484.77Y-448.12
X484.77Y-453.765
X484.77Y-456.2
X484.77Y-467.4
X484.77Y-469.58
X484.77Y-470.52
X484.77Y-476.165
X484.77Y-478.6
X484.77Y-489.8
X484.77Y-491.98
X484.77Y-492.92
X484.77Y-498.565
X484.77Y-501.0
X484.77Y-512.2
X484.77Y-514.38
X484.77Y-515.32
X484.77Y-520.965
X484.77Y-523.4
X484.77Y-534.6
X484.77Y-536.78
X484.77Y-537.72
X484.77Y-543.365
X484.77Y-545.8
X484.77Y-557.0
X484.77Y-559.18
X484.77Y-560.12
X484.77Y-565.765
X484.77Y-568.2
X484.77Y-579.4
X484.77Y-581.58
X484.77Y-582.52
X484.77Y-588.165
X484.77Y-590.6
X484.77Y-601.8
X484.77Y-603.98
X484.77Y-604.92
X484.77Y-610.565
X484.77Y-613.0
X484.77Y-624.2
X484.77Y-626.38
X484.77Y-627.32
X484.77Y-632.965
X484.77Y-635.4
X484.77Y-646.6
X484.77Y-648.78
X484.77Y-649.72
X484.77Y-655.365
X484.77Y-657.8
X484.77Y-669.0
X486.03Y-224.66
X486.03Y-229.21
X486.03Y-230.32
X486.03Y-247.06
X486.03Y-251.61
X486.03Y-252.72
X486.03Y-269.46
X486.03Y-274.01
X486.03Y-275.12
X486.03Y-291.86
X486.03Y-296.41
X486.03Y-297.52
X486.03Y-314.26
X486.03Y-318.81
X486.03Y-319.92
X486.03Y-336.66
X486.03Y-341.21
X486.03Y-342.32
X486.03Y-359.06
X486.03Y-363.61
X486.03Y-364.72
X486.03Y-381.46
X486.03Y-386.01
X486.03Y-387.12
X486.03Y-403.86
X486.03Y-408.41
X486.03Y-409.52
X486.03Y-426.26
X486.03Y-430.81
X486.03Y-431.92
X486.03Y-448.66
X486.03Y-453.21
X486.03Y-454.32
X486.03Y-471.06
X486.03Y-475.61
X486.03Y-476.72
X486.03Y-493.46
X486.03Y-498.01
X486.03Y-499.12
X486.03Y-515.86
X486.03Y-520.41
X486.03Y-521.52
X486.03Y-538.26
X486.03Y-542.81
X486.03Y-543.92
X486.03Y-560.66
X486.03Y-565.21
X486.03Y-566.32
X486.03Y-583.06
X486.03Y-587.61
X486.03Y-588.72
X486.03Y-605.46
X486.03Y-610.01
X486.03Y-611.12
X486.03Y-627.86
X486.03Y-632.41
X486.03Y-633.52
X486.03Y-650.26
X486.03Y-654.81
X486.03Y-655.92
X495.97Y-223.25
X495.97Y-224.19
X495.97Y-229.835
X495.97Y-245.65
X495.97Y-246.59
X495.97Y-252.235
X495.97Y-268.05
X495.97Y-268.99
X495.97Y-274.635
X495.97Y-290.45
X495.97Y-291.39
X495.97Y-297.035
X495.97Y-312.85
X495.97Y-313.79
X495.97Y-319.435
X495.97Y-335.25
X495.97Y-336.19
X495.97Y-341.835
X495.97Y-357.65
X495.97Y-358.59
X495.97Y-364.235
X495.97Y-380.05
X495.97Y-380.99
X495.97Y-386.635
X495.97Y-402.45
X495.97Y-403.39
X495.97Y-409.035
X495.97Y-424.85
X495.97Y-425.79
X495.97Y-431.435
X495.97Y-447.25
X495.97Y-448.19
X495.97Y-453.835
X495.97Y-469.65
X495.97Y-470.59
X495.97Y-476.235
X495.97Y-492.05
X495.97Y-492.99
X495.97Y-498.635
X495.97Y-514.45
X495.97Y-515.39
X495.97Y-521.035
X495.97Y-536.85
X495.97Y-537.79
X495.97Y-543.435
X495.97Y-559.25
X495.97Y-560.19
X495.97Y-565.835
X495.97Y-581.65
X495.97Y-582.59
X495.97Y-588.235
X495.97Y-604.05
X495.97Y-604.99
X495.97Y-610.635
X495.97Y-626.45
X495.97Y-627.39
X495.97Y-633.035
X495.97Y-648.85
X495.97Y-649.79
X495.97Y-655.435
X497.23Y-210.2
X497.23Y-221.4
X497.23Y-224.73
X497.23Y-229.28
X497.23Y-230.39
X497.23Y-232.6
X497.23Y-243.8
X497.23Y-247.13
X497.23Y-251.68
X497.23Y-252.79
X497.23Y-255.0
X497.23Y-266.2
X497.23Y-269.53
X497.23Y-274.08
X497.23Y-275.19
X497.23Y-277.4
X497.23Y-288.6
X497.23Y-291.93
X497.23Y-296.48
X497.23Y-297.59
X497.23Y-299.8
X497.23Y-311.0
X497.23Y-314.33
X497.23Y-318.88
X497.23Y-319.99
X497.23Y-322.2
X497.23Y-333.4
X497.23Y-336.73
X497.23Y-341.28
X497.23Y-342.39
X497.23Y-344.6
X497.23Y-355.8
X497.23Y-359.13
X497.23Y-363.68
X497.23Y-364.79
X497.23Y-367.0
X497.23Y-378.2
X497.23Y-381.53
X497.23Y-386.08
X497.23Y-387.19
X497.23Y-389.4
X497.23Y-400.6
X497.23Y-403.93
X497.23Y-408.48
X497.23Y-409.59
X497.23Y-411.8
X497.23Y-423.0
X497.23Y-426.33
X497.23Y-430.88
X497.23Y-431.99
X497.23Y-434.2
X497.23Y-445.4
X497.23Y-448.73
X497.23Y-453.28
X497.23Y-454.39
X497.23Y-456.6
X497.23Y-467.8
X497.23Y-471.13
X497.23Y-475.68
X497.23Y-476.79
X497.23Y-479.0
X497.23Y-490.2
X497.23Y-493.53
X497.23Y-498.08
X497.23Y-499.19
X497.23Y-501.4
X497.23Y-512.6
X497.23Y-515.93
X497.23Y-520.48
X497.23Y-521.59
X497.23Y-523.8
X497.23Y-535.0
X497.23Y-538.33
X497.23Y-542.88
X497.23Y-543.99
X497.23Y-546.2
X497.23Y-557.4
X497.23Y-560.73
X497.23Y-565.28
X497.23Y-566.39
X497.23Y-568.6
X497.23Y-579.8
X497.23Y-583.13
X497.23Y-587.68
X497.23Y-588.79
X497.23Y-591.0
X497.23Y-602.2
X497.23Y-605.53
X497.23Y-610.08
X497.23Y-611.19
X497.23Y-613.4
X497.23Y-624.6
X497.23Y-627.93
X497.23Y-632.48
X497.23Y-633.59
X497.23Y-635.8
X497.23Y-647.0
X497.23Y-650.33
X497.23Y-654.88
X497.23Y-655.99
X497.23Y-658.2
X497.23Y-669.4
X497.845Y-210.98
X497.845Y-222.18
X497.845Y-233.38
X497.845Y-244.58
X497.845Y-255.78
X497.845Y-266.98
X497.845Y-278.18
X497.845Y-289.38
X497.845Y-300.58
X497.845Y-311.78
X497.845Y-322.98
X497.845Y-334.18
X497.845Y-345.38
X497.845Y-356.58
X497.845Y-367.78
X497.845Y-378.98
X497.845Y-390.18
X497.845Y-401.38
X497.845Y-412.58
X497.845Y-423.78
X497.845Y-434.98
X497.845Y-446.18
X497.845Y-457.38
X497.845Y-468.58
X497.845Y-479.78
X497.845Y-490.98
X497.845Y-502.18
X497.845Y-513.38
X497.845Y-524.58
X497.845Y-535.78
X497.845Y-546.98
X497.845Y-558.18
X497.845Y-569.38
X497.845Y-580.58
X497.845Y-591.78
X497.845Y-602.98
X497.845Y-614.18
X497.845Y-625.38
X497.845Y-636.58
X497.845Y-647.78
X497.845Y-658.98
X497.845Y-670.18
X506.555Y-209.0
X506.555Y-220.22
X506.555Y-231.42
X506.555Y-242.62
X506.555Y-253.82
X506.555Y-265.02
X506.555Y-276.22
X506.555Y-287.42
X506.555Y-298.62
X506.555Y-309.82
X506.555Y-321.02
X506.555Y-332.22
X506.555Y-343.42
X506.555Y-354.62
X506.555Y-365.82
X506.555Y-377.02
X506.555Y-388.22
X506.555Y-399.42
X506.555Y-410.62
X506.555Y-421.82
X506.555Y-433.02
X506.555Y-444.22
X506.555Y-455.42
X506.555Y-466.62
X506.555Y-477.82
X506.555Y-489.02
X506.555Y-500.22
X506.555Y-511.42
X506.555Y-522.62
X506.555Y-533.82
X506.555Y-545.02
X506.555Y-556.22
X506.555Y-567.42
X506.555Y-578.62
X506.555Y-589.82
X506.555Y-601.02
X506.555Y-612.22
X506.555Y-623.42
X506.555Y-634.62
X506.555Y-645.82
X506.555Y-657.02
X506.555Y-668.22
X507.17Y-209.78
X507.17Y-221.0
X507.17Y-223.18
X507.17Y-224.12
X507.17Y-229.765
X507.17Y-232.2
X507.17Y-243.4
X507.17Y-245.58
X507.17Y-246.52
X507.17Y-252.165
X507.17Y-254.6
X507.17Y-265.8
X507.17Y-267.98
X507.17Y-268.92
X507.17Y-274.565
X507.17Y-277.0
X507.17Y-288.2
X507.17Y-290.38
X507.17Y-291.32
X507.17Y-296.965
X507.17Y-299.4
X507.17Y-310.6
X507.17Y-312.78
X507.17Y-313.72
X507.17Y-319.365
X507.17Y-321.8
X507.17Y-333.0
X507.17Y-335.18
X507.17Y-336.12
X507.17Y-341.765
X507.17Y-344.2
X507.17Y-355.4
X507.17Y-357.58
X507.17Y-358.52
X507.17Y-364.165
X507.17Y-366.6
X507.17Y-377.8
X507.17Y-379.98
X507.17Y-380.92
X507.17Y-386.565
X507.17Y-389.0
X507.17Y-400.2
X507.17Y-402.38
X507.17Y-403.32
X507.17Y-408.965
X507.17Y-411.4
X507.17Y-422.6
X507.17Y-424.78
X507.17Y-425.72
X507.17Y-431.365
X507.17Y-433.8
X507.17Y-445.0
X507.17Y-447.18
X507.17Y-448.12
X507.17Y-453.765
X507.17Y-456.2
X507.17Y-467.4
X507.17Y-469.58
X507.17Y-470.52
X507.17Y-476.165
X507.17Y-478.6
X507.17Y-489.8
X507.17Y-491.98
X507.17Y-492.92
X507.17Y-498.565
X507.17Y-501.0
X507.17Y-512.2
X507.17Y-514.38
X507.17Y-515.32
X507.17Y-520.965
X507.17Y-523.4
X507.17Y-534.6
X507.17Y-536.78
X507.17Y-537.72
X507.17Y-543.365
X507.17Y-545.8
X507.17Y-557.0
X507.17Y-559.18
X507.17Y-560.12
X507.17Y-565.765
X507.17Y-568.2
X507.17Y-579.4
X507.17Y-581.58
X507.17Y-582.52
X507.17Y-588.165
X507.17Y-590.6
X507.17Y-601.8
X507.17Y-603.98
X507.17Y-604.92
X507.17Y-610.565
X507.17Y-613.0
X507.17Y-624.2
X507.17Y-626.38
X507.17Y-627.32
X507.17Y-632.965
X507.17Y-635.4
X507.17Y-646.6
X507.17Y-648.78
X507.17Y-649.72
X507.17Y-655.365
X507.17Y-657.8
X507.17Y-669.0
X508.43Y-224.66
X508.43Y-229.21
X508.43Y-230.32
X508.43Y-247.06
X508.43Y-251.61
X508.43Y-252.72
X508.43Y-269.46
X508.43Y-274.01
X508.43Y-275.12
X508.43Y-291.86
X508.43Y-296.41
X508.43Y-297.52
X508.43Y-314.26
X508.43Y-318.81
X508.43Y-319.92
X508.43Y-336.66
X508.43Y-341.21
X508.43Y-342.32
X508.43Y-359.06
X508.43Y-363.61
X508.43Y-364.72
X508.43Y-381.46
X508.43Y-386.01
X508.43Y-387.12
X508.43Y-403.86
X508.43Y-408.41
X508.43Y-409.52
X508.43Y-426.26
X508.43Y-430.81
X508.43Y-431.92
X508.43Y-448.66
X508.43Y-453.21
X508.43Y-454.32
X508.43Y-471.06
X508.43Y-475.61
X508.43Y-476.72
X508.43Y-493.46
X508.43Y-498.01
X508.43Y-499.12
X508.43Y-515.86
X508.43Y-520.41
X508.43Y-521.52
X508.43Y-538.26
X508.43Y-542.81
X508.43Y-543.92
X508.43Y-560.66
X508.43Y-565.21
X508.43Y-566.32
X508.43Y-583.06
X508.43Y-587.61
X508.43Y-588.72
X508.43Y-605.46
X508.43Y-610.01
X508.43Y-611.12
X508.43Y-627.86
X508.43Y-632.41
X508.43Y-633.52
X508.43Y-650.26
X508.43Y-654.81
X508.43Y-655.92
X517.755Y-209.0
X517.755Y-220.22
X517.755Y-231.42
X517.755Y-242.62
X517.755Y-253.82
X517.755Y-265.02
X517.755Y-276.22
X517.755Y-287.42
X517.755Y-298.62
X517.755Y-309.82
X517.755Y-321.02
X517.755Y-332.22
X517.755Y-343.42
X517.755Y-354.62
X517.755Y-365.82
X517.755Y-377.02
X517.755Y-388.22
X517.755Y-399.42
X517.755Y-410.62
X517.755Y-421.82
X517.755Y-433.02
X517.755Y-444.22
X517.755Y-455.42
X517.755Y-466.62
X517.755Y-477.82
X517.755Y-489.02
X517.755Y-500.22
X517.755Y-511.42
X517.755Y-522.62
X517.755Y-533.82
X517.755Y-545.02
X517.755Y-556.22
X517.755Y-567.42
X517.755Y-578.62
X517.755Y-589.82
X517.755Y-601.02
X517.755Y-612.22
X517.755Y-623.42
X517.755Y-634.62
X517.755Y-645.82
X517.755Y-657.02
X517.755Y-668.22
X518.37Y-209.78
X518.37Y-221.0
X518.37Y-223.18
X518.37Y-224.12
X518.37Y-229.765
X518.37Y-232.2
X518.37Y-243.4
X518.37Y-245.58
X518.37Y-246.52
X518.37Y-252.165
X518.37Y-254.6
X518.37Y-265.8
X518.37Y-267.98
X518.37Y-268.92
X518.37Y-274.565
X518.37Y-277.0
X518.37Y-288.2
X518.37Y-290.38
X518.37Y-291.32
X518.37Y-296.965
X518.37Y-299.4
X518.37Y-310.6
X518.37Y-312.78
X518.37Y-313.72
X518.37Y-319.365
X518.37Y-321.8
X518.37Y-333.0
X518.37Y-335.18
X518.37Y-336.12
X518.37Y-341.765
X518.37Y-344.2
X518.37Y-355.4
X518.37Y-357.58
X518.37Y-358.52
X518.37Y-364.165
X518.37Y-366.6
X518.37Y-377.8
X518.37Y-379.98
X518.37Y-380.92
X518.37Y-386.565
X518.37Y-389.0
X518.37Y-400.2
X518.37Y-402.38
X518.37Y-403.32
X518.37Y-408.965
X518.37Y-411.4
X518.37Y-422.6
X518.37Y-424.78
X518.37Y-425.72
X518.37Y-431.365
X518.37Y-433.8
X518.37Y-445.0
X518.37Y-447.18
X518.37Y-448.12
X518.37Y-453.765
X518.37Y-456.2
X518.37Y-467.4
X518.37Y-469.58
X518.37Y-470.52
X518.37Y-476.165
X518.37Y-478.6
X518.37Y-489.8
X518.37Y-491.98
X518.37Y-492.92
X518.37Y-498.565
X518.37Y-501.0
X518.37Y-512.2
X518.37Y-514.38
X518.37Y-515.32
X518.37Y-520.965
X518.37Y-523.4
X518.37Y-534.6
X518.37Y-536.78
X518.37Y-537.72
X518.37Y-543.365
X518.37Y-545.8
X518.37Y-557.0
X518.37Y-559.18
X518.37Y-560.12
X518.37Y-565.765
X518.37Y-568.2
X518.37Y-579.4
X518.37Y-581.58
X518.37Y-582.52
X518.37Y-588.165
X518.37Y-590.6
X518.37Y-601.8
X518.37Y-603.98
X518.37Y-604.92
X518.37Y-610.565
X518.37Y-613.0
X518.37Y-624.2
X518.37Y-626.38
X518.37Y-627.32
X518.37Y-632.965
X518.37Y-635.4
X518.37Y-646.6
X518.37Y-648.78
X518.37Y-649.72
X518.37Y-655.365
X518.37Y-657.8
X518.37Y-669.0
X519.63Y-224.66
X519.63Y-229.21
X519.63Y-230.32
X519.63Y-247.06
X519.63Y-251.61
X519.63Y-252.72
X519.63Y-269.46
X519.63Y-274.01
X519.63Y-275.12
X519.63Y-291.86
X519.63Y-296.41
X519.63Y-297.52
X519.63Y-314.26
X519.63Y-318.81
X519.63Y-319.92
X519.63Y-336.66
X519.63Y-341.21
X519.63Y-342.32
X519.63Y-359.06
X519.63Y-363.61
X519.63Y-364.72
X519.63Y-381.46
X519.63Y-386.01
X519.63Y-387.12
X519.63Y-403.86
X519.63Y-408.41
X519.63Y-409.52
X519.63Y-426.26
X519.63Y-430.81
X519.63Y-431.92
X519.63Y-448.66
X519.63Y-453.21
X519.63Y-454.32
X519.63Y-471.06
X519.63Y-475.61
X519.63Y-476.72
X519.63Y-493.46
X519.63Y-498.01
X519.63Y-499.12
X519.63Y-515.86
X519.63Y-520.41
X519.63Y-521.52
X519.63Y-538.26
X519.63Y-542.81
X519.63Y-543.92
X519.63Y-560.66
X519.63Y-565.21
X519.63Y-566.32
X519.63Y-583.06
X519.63Y-587.61
X519.63Y-588.72
X519.63Y-605.46
X519.63Y-610.01
X519.63Y-611.12
X519.63Y-627.86
X519.63Y-632.41
X519.63Y-633.52
X519.63Y-650.26
X519.63Y-654.81
X519.63Y-655.92
X529.57Y-223.25
X529.57Y-224.19
X529.57Y-229.835
X529.57Y-245.65
X529.57Y-246.59
X529.57Y-252.235
X529.57Y-268.05
X529.57Y-268.99
X529.57Y-274.635
X529.57Y-290.45
X529.57Y-291.39
X529.57Y-297.035
X529.57Y-312.85
X529.57Y-313.79
X529.57Y-319.435
X529.57Y-335.25
X529.57Y-336.19
X529.57Y-341.835
X529.57Y-357.65
X529.57Y-358.59
X529.57Y-364.235
X529.57Y-380.05
X529.57Y-380.99
X529.57Y-386.635
X529.57Y-402.45
X529.57Y-403.39
X529.57Y-409.035
X529.57Y-424.85
X529.57Y-425.79
X529.57Y-431.435
X529.57Y-447.25
X529.57Y-448.19
X529.57Y-453.835
X529.57Y-469.65
X529.57Y-470.59
X529.57Y-476.235
X529.57Y-492.05
X529.57Y-492.99
X529.57Y-498.635
X529.57Y-514.45
X529.57Y-515.39
X529.57Y-521.035
X529.57Y-536.85
X529.57Y-537.79
X529.57Y-543.435
X529.57Y-559.25
X529.57Y-560.19
X529.57Y-565.835
X529.57Y-581.65
X529.57Y-582.59
X529.57Y-588.235
X529.57Y-604.05
X529.57Y-604.99
X529.57Y-610.635
X529.57Y-626.45
X529.57Y-627.39
X529.57Y-633.035
X529.57Y-648.85
X529.57Y-649.79
X529.57Y-655.435
X530.83Y-210.2
X530.83Y-221.4
X530.83Y-224.73
X530.83Y-229.28
X530.83Y-230.39
X530.83Y-232.6
X530.83Y-243.8
X530.83Y-247.13
X530.83Y-251.68
X530.83Y-252.79
X530.83Y-255.0
X530.83Y-266.2
X530.83Y-269.53
X530.83Y-274.08
X530.83Y-275.19
X530.83Y-277.4
X530.83Y-288.6
X530.83Y-291.93
X530.83Y-296.48
X530.83Y-297.59
X530.83Y-299.8
X530.83Y-311.0
X530.83Y-314.33
X530.83Y-318.88
X530.83Y-319.99
X530.83Y-322.2
X530.83Y-333.4
X530.83Y-336.73
X530.83Y-341.28
X530.83Y-342.39
X530.83Y-344.6
X530.83Y-355.8
X530.83Y-359.13
X530.83Y-363.68
X530.83Y-364.79
X530.83Y-367.0
X530.83Y-378.2
X530.83Y-381.53
X530.83Y-386.08
X530.83Y-387.19
X530.83Y-389.4
X530.83Y-400.6
X530.83Y-403.93
X530.83Y-408.48
X530.83Y-409.59
X530.83Y-411.8
X530.83Y-423.0
X530.83Y-426.33
X530.83Y-430.88
X530.83Y-431.99
X530.83Y-434.2
X530.83Y-445.4
X530.83Y-448.73
X530.83Y-453.28
X530.83Y-454.39
X530.83Y-456.6
X530.83Y-467.8
X530.83Y-471.13
X530.83Y-475.68
X530.83Y-476.79
X530.83Y-479.0
X530.83Y-490.2
X530.83Y-493.53
X530.83Y-498.08
X530.83Y-499.19
X530.83Y-501.4
X530.83Y-512.6
X530.83Y-515.93
X530.83Y-520.48
X530.83Y-521.59
X530.83Y-523.8
X530.83Y-535.0
X530.83Y-538.33
X530.83Y-542.88
X530.83Y-543.99
X530.83Y-546.2
X530.83Y-557.4
X530.83Y-560.73
X530.83Y-565.28
X530.83Y-566.39
X530.83Y-568.6
X530.83Y-579.8
X530.83Y-583.13
X530.83Y-587.68
X530.83Y-588.79
X530.83Y-591.0
X530.83Y-602.2
X530.83Y-605.53
X530.83Y-610.08
X530.83Y-611.19
X530.83Y-613.4
X530.83Y-624.6
X530.83Y-627.93
X530.83Y-632.48
X530.83Y-633.59
X530.83Y-635.8
X530.83Y-647.0
X530.83Y-650.33
X530.83Y-654.88
X530.83Y-655.99
X530.83Y-658.2
X530.83Y-669.4
X531.445Y-210.98
X531.445Y-222.18
X531.445Y-233.38
X531.445Y-244.58
X531.445Y-255.78
X531.445Y-266.98
X531.445Y-278.18
X531.445Y-289.38
X531.445Y-300.58
X531.445Y-311.78
X531.445Y-322.98
X531.445Y-334.18
X531.445Y-345.38
X531.445Y-356.58
X531.445Y-367.78
X531.445Y-378.98
X531.445Y-390.18
X531.445Y-401.38
X531.445Y-412.58
X531.445Y-423.78
X531.445Y-434.98
X531.445Y-446.18
X531.445Y-457.38
X531.445Y-468.58
X531.445Y-479.78
X531.445Y-490.98
X531.445Y-502.18
X531.445Y-513.38
X531.445Y-524.58
X531.445Y-535.78
X531.445Y-546.98
X531.445Y-558.18
X531.445Y-569.38
X531.445Y-580.58
X531.445Y-591.78
X531.445Y-602.98
X531.445Y-614.18
X531.445Y-625.38
X531.445Y-636.58
X531.445Y-647.78
X531.445Y-658.98
X531.445Y-670.18
X540.155Y-209.0
X540.155Y-220.22
X540.155Y-231.42
X540.155Y-242.62
X540.155Y-253.82
X540.155Y-265.02
X540.155Y-276.22
X540.155Y-287.42
X540.155Y-298.62
X540.155Y-309.82
X540.155Y-321.02
X540.155Y-332.22
X540.155Y-343.42
X540.155Y-354.62
X540.155Y-365.82
X540.155Y-377.02
X540.155Y-388.22
X540.155Y-399.42
X540.155Y-410.62
X540.155Y-421.82
X540.155Y-433.02
X540.155Y-444.22
X540.155Y-455.42
X540.155Y-466.62
X540.155Y-477.82
X540.155Y-489.02
X540.155Y-500.22
X540.155Y-511.42
X540.155Y-522.62
X540.155Y-533.82
X540.155Y-545.02
X540.155Y-556.22
X540.155Y-567.42
X540.155Y-578.62
X540.155Y-589.82
X540.155Y-601.02
X540.155Y-612.22
X540.155Y-623.42
X540.155Y-634.62
X540.155Y-645.82
X540.155Y-657.02
X540.155Y-668.22
X540.77Y-209.78
X540.77Y-221.0
X540.77Y-223.18
X540.77Y-224.12
X540.77Y-229.765
X540.77Y-232.2
X540.77Y-243.4
X540.77Y-245.58
X540.77Y-246.52
X540.77Y-252.165
X540.77Y-254.6
X540.77Y-265.8
X540.77Y-267.98
X540.77Y-268.92
X540.77Y-274.565
X540.77Y-277.0
X540.77Y-288.2
X540.77Y-290.38
X540.77Y-291.32
X540.77Y-296.965
X540.77Y-299.4
X540.77Y-310.6
X540.77Y-312.78
X540.77Y-313.72
X540.77Y-319.365
X540.77Y-321.8
X540.77Y-333.0
X540.77Y-335.18
X540.77Y-336.12
X540.77Y-341.765
X540.77Y-344.2
X540.77Y-355.4
X540.77Y-357.58
X540.77Y-358.52
X540.77Y-364.165
X540.77Y-366.6
X540.77Y-377.8
X540.77Y-379.98
X540.77Y-380.92
X540.77Y-386.565
X540.77Y-389.0
X540.77Y-400.2
X540.77Y-402.38
X540.77Y-403.32
X540.77Y-408.965
X540.77Y-411.4
X540.77Y-422.6
X540.77Y-424.78
X540.77Y-425.72
X540.77Y-431.365
X540.77Y-433.8
X540.77Y-445.0
X540.77Y-447.18
X540.77Y-448.12
X540.77Y-453.765
X540.77Y-456.2
X540.77Y-467.4
X540.77Y-469.58
X540.77Y-470.52
X540.77Y-476.165
X540.77Y-478.6
X540.77Y-489.8
X540.77Y-491.98
X540.77Y-492.92
X540.77Y-498.565
X540.77Y-501.0
X540.77Y-512.2
X540.77Y-514.38
X540.77Y-515.32
X540.77Y-520.965
X540.77Y-523.4
X540.77Y-534.6
X540.77Y-536.78
X540.77Y-537.72
X540.77Y-543.365
X540.77Y-545.8
X540.77Y-557.0
X540.77Y-559.18
X540.77Y-560.12
X540.77Y-565.765
X540.77Y-568.2
X540.77Y-579.4
X540.77Y-581.58
X540.77Y-582.52
X540.77Y-588.165
X540.77Y-590.6
X540.77Y-601.8
X540.77Y-603.98
X540.77Y-604.92
X540.77Y-610.565
X540.77Y-613.0
X540.77Y-624.2
X540.77Y-626.38
X540.77Y-627.32
X540.77Y-632.965
X540.77Y-635.4
X540.77Y-646.6
X540.77Y-648.78
X540.77Y-649.72
X540.77Y-655.365
X540.77Y-657.8
X540.77Y-669.0
X542.03Y-224.66
X542.03Y-229.21
X542.03Y-230.32
X542.03Y-247.06
X542.03Y-251.61
X542.03Y-252.72
X542.03Y-269.46
X542.03Y-274.01
X542.03Y-275.12
X542.03Y-291.86
X542.03Y-296.41
X542.03Y-297.52
X542.03Y-314.26
X542.03Y-318.81
X542.03Y-319.92
X542.03Y-336.66
X542.03Y-341.21
X542.03Y-342.32
X542.03Y-359.06
X542.03Y-363.61
X542.03Y-364.72
X542.03Y-381.46
X542.03Y-386.01
X542.03Y-387.12
X542.03Y-403.86
X542.03Y-408.41
X542.03Y-409.52
X542.03Y-426.26
X542.03Y-430.81
X542.03Y-431.92
X542.03Y-448.66
X542.03Y-453.21
X542.03Y-454.32
X542.03Y-471.06
X542.03Y-475.61
X542.03Y-476.72
X542.03Y-493.46
X542.03Y-498.01
X542.03Y-499.12
X542.03Y-515.86
X542.03Y-520.41
X542.03Y-521.52
X542.03Y-538.26
X542.03Y-542.81
X542.03Y-543.92
X542.03Y-560.66
X542.03Y-565.21
X542.03Y-566.32
X542.03Y-583.06
X542.03Y-587.61
X542.03Y-588.72
X542.03Y-605.46
X542.03Y-610.01
X542.03Y-611.12
X542.03Y-627.86
X542.03Y-632.41
X542.03Y-633.52
X542.03Y-650.26
X542.03Y-654.81
X542.03Y-655.92
X551.97Y-223.25
X551.97Y-224.19
X551.97Y-229.835
X551.97Y-245.65
X551.97Y-246.59
X551.97Y-252.235
X551.97Y-268.05
X551.97Y-268.99
X551.97Y-274.635
X551.97Y-290.45
X551.97Y-291.39
X551.97Y-297.035
X551.97Y-312.85
X551.97Y-313.79
X551.97Y-319.435
X551.97Y-335.25
X551.97Y-336.19
X551.97Y-341.835
X551.97Y-357.65
X551.97Y-358.59
X551.97Y-364.235
X551.97Y-380.05
X551.97Y-380.99
X551.97Y-386.635
X551.97Y-402.45
X551.97Y-403.39
X551.97Y-409.035
X551.97Y-424.85
X551.97Y-425.79
X551.97Y-431.435
X551.97Y-447.25
X551.97Y-448.19
X551.97Y-453.835
X551.97Y-469.65
X551.97Y-470.59
X551.97Y-476.235
X551.97Y-492.05
X551.97Y-492.99
X551.97Y-498.635
X551.97Y-514.45
X551.97Y-515.39
X551.97Y-521.035
X551.97Y-536.85
X551.97Y-537.79
X551.97Y-543.435
X551.97Y-559.25
X551.97Y-560.19
X551.97Y-565.835
X551.97Y-581.65
X551.97Y-582.59
X551.97Y-588.235
X551.97Y-604.05
X551.97Y-604.99
X551.97Y-610.635
X551.97Y-626.45
X551.97Y-627.39
X551.97Y-633.035
X551.97Y-648.85
X551.97Y-649.79
X551.97Y-655.435
X553.23Y-210.2
X553.23Y-221.4
X553.23Y-224.73
X553.23Y-229.28
X553.23Y-230.39
X553.23Y-232.6
X553.23Y-243.8
X553.23Y-247.13
X553.23Y-251.68
X553.23Y-252.79
X553.23Y-255.0
X553.23Y-266.2
X553.23Y-269.53
X553.23Y-274.08
X553.23Y-275.19
X553.23Y-277.4
X553.23Y-288.6
X553.23Y-291.93
X553.23Y-296.48
X553.23Y-297.59
X553.23Y-299.8
X553.23Y-311.0
X553.23Y-314.33
X553.23Y-318.88
X553.23Y-319.99
X553.23Y-322.2
X553.23Y-333.4
X553.23Y-336.73
X553.23Y-341.28
X553.23Y-342.39
X553.23Y-344.6
X553.23Y-355.8
X553.23Y-359.13
X553.23Y-363.68
X553.23Y-364.79
X553.23Y-367.0
X553.23Y-378.2
X553.23Y-381.53
X553.23Y-386.08
X553.23Y-387.19
X553.23Y-389.4
X553.23Y-400.6
X553.23Y-403.93
X553.23Y-408.48
X553.23Y-409.59
X553.23Y-411.8
X553.23Y-423.0
X553.23Y-426.33
X553.23Y-430.88
X553.23Y-431.99
X553.23Y-434.2
X553.23Y-445.4
X553.23Y-448.73
X553.23Y-453.28
X553.23Y-454.39
X553.23Y-456.6
X553.23Y-467.8
X553.23Y-471.13
X553.23Y-475.68
X553.23Y-476.79
X553.23Y-479.0
X553.23Y-490.2
X553.23Y-493.53
X553.23Y-498.08
X553.23Y-499.19
X553.23Y-501.4
X553.23Y-512.6
X553.23Y-515.93
X553.23Y-520.48
X553.23Y-521.59
X553.23Y-523.8
X553.23Y-535.0
X553.23Y-538.33
X553.23Y-542.88
X553.23Y-543.99
X553.23Y-546.2
X553.23Y-557.4
X553.23Y-560.73
X553.23Y-565.28
X553.23Y-566.39
X553.23Y-568.6
X553.23Y-579.8
X553.23Y-583.13
X553.23Y-587.68
X553.23Y-588.79
X553.23Y-591.0
X553.23Y-602.2
X553.23Y-605.53
X553.23Y-610.08
X553.23Y-611.19
X553.23Y-613.4
X553.23Y-624.6
X553.23Y-627.93
X553.23Y-632.48
X553.23Y-633.59
X553.23Y-635.8
X553.23Y-647.0
X553.23Y-650.33
X553.23Y-654.88
X553.23Y-655.99
X553.23Y-658.2
X553.23Y-669.4
X553.845Y-210.98
X553.845Y-222.18
X553.845Y-233.38
X553.845Y-244.58
X553.845Y-255.78
X553.845Y-266.98
X553.845Y-278.18
X553.845Y-289.38
X553.845Y-300.58
X553.845Y-311.78
X553.845Y-322.98
X553.845Y-334.18
X553.845Y-345.38
X553.845Y-356.58
X553.845Y-367.78
X553.845Y-378.98
X553.845Y-390.18
X553.845Y-401.38
X553.845Y-412.58
X553.845Y-423.78
X553.845Y-434.98
X553.845Y-446.18
X553.845Y-457.38
X553.845Y-468.58
X553.845Y-479.78
X553.845Y-490.98
X553.845Y-502.18
X553.845Y-513.38
X553.845Y-524.58
X553.845Y-535.78
X553.845Y-546.98
X553.845Y-558.18
X553.845Y-569.38
X553.845Y-580.58
X553.845Y-591.78
X553.845Y-602.98
X553.845Y-614.18
X553.845Y-625.38
X553.845Y-636.58
X553.845Y-647.78
X553.845Y-658.98
X553.845Y-670.18
X562.555Y-209.0
X562.555Y-220.22
X562.555Y-231.42
X562.555Y-242.62
X562.555Y-253.82
X562.555Y-265.02
X562.555Y-276.22
X562.555Y-287.42
X562.555Y-298.62
X562.555Y-309.82
X562.555Y-321.02
X562.555Y-332.22
X562.555Y-343.42
X562.555Y-354.62
X562.555Y-365.82
X562.555Y-377.02
X562.555Y-388.22
X562.555Y-399.42
X562.555Y-410.62
X562.555Y-421.82
X562.555Y-433.02
X562.555Y-444.22
X562.555Y-455.42
X562.555Y-466.62
X562.555Y-477.82
X562.555Y-489.02
X562.555Y-500.22
X562.555Y-511.42
X562.555Y-522.62
X562.555Y-533.82
X562.555Y-545.02
X562.555Y-556.22
X562.555Y-567.42
X562.555Y-578.62
X562.555Y-589.82
X562.555Y-601.02
X562.555Y-612.22
X562.555Y-623.42
X562.555Y-634.62
X562.555Y-645.82
X562.555Y-657.02
X562.555Y-668.22
X563.17Y-209.78
X563.17Y-221.0
X563.17Y-223.18
X563.17Y-224.12
X563.17Y-229.765
X563.17Y-232.2
X563.17Y-243.4
X563.17Y-245.58
X563.17Y-246.52
X563.17Y-252.165
X563.17Y-254.6
X563.17Y-265.8
X563.17Y-267.98
X563.17Y-268.92
X563.17Y-274.565
X563.17Y-277.0
X563.17Y-288.2
X563.17Y-290.38
X563.17Y-291.32
X563.17Y-296.965
X563.17Y-299.4
X563.17Y-310.6
X563.17Y-312.78
X563.17Y-313.72
X563.17Y-319.365
X563.17Y-321.8
X563.17Y-333.0
X563.17Y-335.18
X563.17Y-336.12
X563.17Y-341.765
X563.17Y-344.2
X563.17Y-355.4
X563.17Y-357.58
X563.17Y-358.52
X563.17Y-364.165
X563.17Y-366.6
X563.17Y-377.8
X563.17Y-379.98
X563.17Y-380.92
X563.17Y-386.565
X563.17Y-389.0
X563.17Y-400.2
X563.17Y-402.38
X563.17Y-403.32
X563.17Y-408.965
X563.17Y-411.4
X563.17Y-422.6
X563.17Y-424.78
X563.17Y-425.72
X563.17Y-431.365
X563.17Y-433.8
X563.17Y-445.0
X563.17Y-447.18
X563.17Y-448.12
X563.17Y-453.765
X563.17Y-456.2
X563.17Y-467.4
X563.17Y-469.58
X563.17Y-470.52
X563.17Y-476.165
X563.17Y-478.6
X563.17Y-489.8
X563.17Y-491.98
X563.17Y-492.92
X563.17Y-498.565
X563.17Y-501.0
X563.17Y-512.2
X563.17Y-514.38
X563.17Y-515.32
X563.17Y-520.965
X563.17Y-523.4
X563.17Y-534.6
X563.17Y-536.78
X563.17Y-537.72
X563.17Y-543.365
X563.17Y-545.8
X563.17Y-557.0
X563.17Y-559.18
X563.17Y-560.12
X563.17Y-565.765
X563.17Y-568.2
X563.17Y-579.4
X563.17Y-581.58
X563.17Y-582.52
X563.17Y-588.165
X563.17Y-590.6
X563.17Y-601.8
X563.17Y-603.98
X563.17Y-604.92
X563.17Y-610.565
X563.17Y-613.0
X563.17Y-624.2
X563.17Y-626.38
X563.17Y-627.32
X563.17Y-632.965
X563.17Y-635.4
X563.17Y-646.6
X563.17Y-648.78
X563.17Y-649.72
X563.17Y-655.365
X563.17Y-657.8
X563.17Y-669.0
X564.43Y-224.66
X564.43Y-229.21
X564.43Y-230.32
X564.43Y-247.06
X564.43Y-251.61
X564.43Y-252.72
X564.43Y-269.46
X564.43Y-274.01
X564.43Y-275.12
X564.43Y-291.86
X564.43Y-296.41
X564.43Y-297.52
X564.43Y-314.26
X564.43Y-318.81
X564.43Y-319.92
X564.43Y-336.66
X564.43Y-341.21
X564.43Y-342.32
X564.43Y-359.06
X564.43Y-363.61
X564.43Y-364.72
X564.43Y-381.46
X564.43Y-386.01
X564.43Y-387.12
X564.43Y-403.86
X564.43Y-408.41
X564.43Y-409.52
X564.43Y-426.26
X564.43Y-430.81
X564.43Y-431.92
X564.43Y-448.66
X564.43Y-453.21
X564.43Y-454.32
X564.43Y-471.06
X564.43Y-475.61
X564.43Y-476.72
X564.43Y-493.46
X564.43Y-498.01
X564.43Y-499.12
X564.43Y-515.86
X564.43Y-520.41
X564.43Y-521.52
X564.43Y-538.26
X564.43Y-542.81
X564.43Y-543.92
X564.43Y-560.66
X564.43Y-565.21
X564.43Y-566.32
X564.43Y-583.06
X564.43Y-587.61
X564.43Y-588.72
X564.43Y-605.46
X564.43Y-610.01
X564.43Y-611.12
X564.43Y-627.86
X564.43Y-632.41
X564.43Y-633.52
X564.43Y-650.26
X564.43Y-654.81
X564.43Y-655.92
X574.37Y-223.28
X574.37Y-224.39
X574.37Y-228.94
X574.37Y-245.68
X574.37Y-246.79
X574.37Y-251.34
X574.37Y-268.08
X574.37Y-269.19
X574.37Y-273.74
X574.37Y-290.48
X574.37Y-291.59
X574.37Y-296.14
X574.37Y-312.88
X574.37Y-313.99
X574.37Y-318.54
X574.37Y-335.28
X574.37Y-336.39
X574.37Y-340.94
X574.37Y-357.68
X574.37Y-358.79
X574.37Y-363.34
X574.37Y-380.08
X574.37Y-381.19
X574.37Y-385.74
X574.37Y-402.48
X574.37Y-403.59
X574.37Y-408.14
X574.37Y-424.88
X574.37Y-425.99
X574.37Y-430.54
X574.37Y-447.28
X574.37Y-448.39
X574.37Y-452.94
X574.37Y-469.68
X574.37Y-470.79
X574.37Y-475.34
X574.37Y-492.08
X574.37Y-493.19
X574.37Y-497.74
X574.37Y-514.48
X574.37Y-515.59
X574.37Y-520.14
X574.37Y-536.88
X574.37Y-537.99
X574.37Y-542.54
X574.37Y-559.28
X574.37Y-560.39
X574.37Y-564.94
X574.37Y-581.68
X574.37Y-582.79
X574.37Y-587.34
X574.37Y-604.08
X574.37Y-605.19
X574.37Y-609.74
X574.37Y-626.48
X574.37Y-627.59
X574.37Y-632.14
X574.37Y-648.88
X574.37Y-649.99
X574.37Y-654.54
X575.63Y-210.2
X575.63Y-221.4
X575.63Y-223.835
X575.63Y-229.48
X575.63Y-230.42
X575.63Y-232.6
X575.63Y-243.8
X575.63Y-246.235
X575.63Y-251.88
X575.63Y-252.82
X575.63Y-255.0
X575.63Y-266.2
X575.63Y-268.635
X575.63Y-274.28
X575.63Y-275.22
X575.63Y-277.4
X575.63Y-288.6
X575.63Y-291.035
X575.63Y-296.68
X575.63Y-297.62
X575.63Y-299.8
X575.63Y-311.0
X575.63Y-313.435
X575.63Y-319.08
X575.63Y-320.02
X575.63Y-322.2
X575.63Y-333.4
X575.63Y-335.835
X575.63Y-341.48
X575.63Y-342.42
X575.63Y-344.6
X575.63Y-355.8
X575.63Y-358.235
X575.63Y-363.88
X575.63Y-364.82
X575.63Y-367.0
X575.63Y-378.2
X575.63Y-380.635
X575.63Y-386.28
X575.63Y-387.22
X575.63Y-389.4
X575.63Y-400.6
X575.63Y-403.035
X575.63Y-408.68
X575.63Y-409.62
X575.63Y-411.8
X575.63Y-423.0
X575.63Y-425.435
X575.63Y-431.08
X575.63Y-432.02
X575.63Y-434.2
X575.63Y-445.4
X575.63Y-447.835
X575.63Y-453.48
X575.63Y-454.42
X575.63Y-456.6
X575.63Y-467.8
X575.63Y-470.235
X575.63Y-475.88
X575.63Y-476.82
X575.63Y-479.0
X575.63Y-490.2
X575.63Y-492.635
X575.63Y-498.28
X575.63Y-499.22
X575.63Y-501.4
X575.63Y-512.6
X575.63Y-515.035
X575.63Y-520.68
X575.63Y-521.62
X575.63Y-523.8
X575.63Y-535.0
X575.63Y-537.435
X575.63Y-543.08
X575.63Y-544.02
X575.63Y-546.2
X575.63Y-557.4
X575.63Y-559.835
X575.63Y-565.48
X575.63Y-566.42
X575.63Y-568.6
X575.63Y-579.8
X575.63Y-582.235
X575.63Y-587.88
X575.63Y-588.82
X575.63Y-591.0
X575.63Y-602.2
X575.63Y-604.635
X575.63Y-610.28
X575.63Y-611.22
X575.63Y-613.4
X575.63Y-624.6
X575.63Y-627.035
X575.63Y-632.68
X575.63Y-633.62
X575.63Y-635.8
X575.63Y-647.0
X575.63Y-649.435
X575.63Y-655.08
X575.63Y-656.02
X575.63Y-658.2
X575.63Y-669.4
X576.245Y-210.98
X576.245Y-222.18
X576.245Y-233.38
X576.245Y-244.58
X576.245Y-255.78
X576.245Y-266.98
X576.245Y-278.18
X576.245Y-289.38
X576.245Y-300.58
X576.245Y-311.78
X576.245Y-322.98
X576.245Y-334.18
X576.245Y-345.38
X576.245Y-356.58
X576.245Y-367.78
X576.245Y-378.98
X576.245Y-390.18
X576.245Y-401.38
X576.245Y-412.58
X576.245Y-423.78
X576.245Y-434.98
X576.245Y-446.18
X576.245Y-457.38
X576.245Y-468.58
X576.245Y-479.78
X576.245Y-490.98
X576.245Y-502.18
X576.245Y-513.38
X576.245Y-524.58
X576.245Y-535.78
X576.245Y-546.98
X576.245Y-558.18
X576.245Y-569.38
X576.245Y-580.58
X576.245Y-591.78
X576.245Y-602.98
X576.245Y-614.18
X576.245Y-625.38
X576.245Y-636.58
X576.245Y-647.78
X576.245Y-658.98
X576.245Y-670.18
X584.955Y-209.0
X584.955Y-220.22
X584.955Y-231.42
X584.955Y-242.62
X584.955Y-253.82
X584.955Y-265.02
X584.955Y-276.22
X584.955Y-287.42
X584.955Y-298.62
X584.955Y-309.82
X584.955Y-321.02
X584.955Y-332.22
X584.955Y-343.42
X584.955Y-354.62
X584.955Y-365.82
X584.955Y-377.02
X584.955Y-388.22
X584.955Y-399.42
X584.955Y-410.62
X584.955Y-421.82
X584.955Y-433.02
X584.955Y-444.22
X584.955Y-455.42
X584.955Y-466.62
X584.955Y-477.82
X584.955Y-489.02
X584.955Y-500.22
X584.955Y-511.42
X584.955Y-522.62
X584.955Y-533.82
X584.955Y-545.02
X584.955Y-556.22
X584.955Y-567.42
X584.955Y-578.62
X584.955Y-589.82
X584.955Y-601.02
X584.955Y-612.22
X584.955Y-623.42
X584.955Y-634.62
X584.955Y-645.82
X584.955Y-657.02
X584.955Y-668.22
X585.57Y-209.78
X585.57Y-221.0
X585.57Y-223.21
X585.57Y-224.32
X585.57Y-228.87
X585.57Y-232.2
X585.57Y-243.4
X585.57Y-245.61
X585.57Y-246.72
X585.57Y-251.27
X585.57Y-254.6
X585.57Y-265.8
X585.57Y-268.01
X585.57Y-269.12
X585.57Y-273.67
X585.57Y-277.0
X585.57Y-288.2
X585.57Y-290.41
X585.57Y-291.52
X585.57Y-296.07
X585.57Y-299.4
X585.57Y-310.6
X585.57Y-312.81
X585.57Y-313.92
X585.57Y-318.47
X585.57Y-321.8
X585.57Y-333.0
X585.57Y-335.21
X585.57Y-336.32
X585.57Y-340.87
X585.57Y-344.2
X585.57Y-355.4
X585.57Y-357.61
X585.57Y-358.72
X585.57Y-363.27
X585.57Y-366.6
X585.57Y-377.8
X585.57Y-380.01
X585.57Y-381.12
X585.57Y-385.67
X585.57Y-389.0
X585.57Y-400.2
X585.57Y-402.41
X585.57Y-403.52
X585.57Y-408.07
X585.57Y-411.4
X585.57Y-422.6
X585.57Y-424.81
X585.57Y-425.92
X585.57Y-430.47
X585.57Y-433.8
X585.57Y-445.0
X585.57Y-447.21
X585.57Y-448.32
X585.57Y-452.87
X585.57Y-456.2
X585.57Y-467.4
X585.57Y-469.61
X585.57Y-470.72
X585.57Y-475.27
X585.57Y-478.6
X585.57Y-489.8
X585.57Y-492.01
X585.57Y-493.12
X585.57Y-497.67
X585.57Y-501.0
X585.57Y-512.2
X585.57Y-514.41
X585.57Y-515.52
X585.57Y-520.07
X585.57Y-523.4
X585.57Y-534.6
X585.57Y-536.81
X585.57Y-537.92
X585.57Y-542.47
X585.57Y-545.8
X585.57Y-557.0
X585.57Y-559.21
X585.57Y-560.32
X585.57Y-564.87
X585.57Y-568.2
X585.57Y-579.4
X585.57Y-581.61
X585.57Y-582.72
X585.57Y-587.27
X585.57Y-590.6
X585.57Y-601.8
X585.57Y-604.01
X585.57Y-605.12
X585.57Y-609.67
X585.57Y-613.0
X585.57Y-624.2
X585.57Y-626.41
X585.57Y-627.52
X585.57Y-632.07
X585.57Y-635.4
X585.57Y-646.6
X585.57Y-648.81
X585.57Y-649.92
X585.57Y-654.47
X585.57Y-657.8
X585.57Y-669.0
X586.83Y-223.765
X586.83Y-229.41
X586.83Y-230.35
X586.83Y-246.165
X586.83Y-251.81
X586.83Y-252.75
X586.83Y-268.565
X586.83Y-274.21
X586.83Y-275.15
X586.83Y-290.965
X586.83Y-296.61
X586.83Y-297.55
X586.83Y-313.365
X586.83Y-319.01
X586.83Y-319.95
X586.83Y-335.765
X586.83Y-341.41
X586.83Y-342.35
X586.83Y-358.165
X586.83Y-363.81
X586.83Y-364.75
X586.83Y-380.565
X586.83Y-386.21
X586.83Y-387.15
X586.83Y-402.965
X586.83Y-408.61
X586.83Y-409.55
X586.83Y-425.365
X586.83Y-431.01
X586.83Y-431.95
X586.83Y-447.765
X586.83Y-453.41
X586.83Y-454.35
X586.83Y-470.165
X586.83Y-475.81
X586.83Y-476.75
X586.83Y-492.565
X586.83Y-498.21
X586.83Y-499.15
X586.83Y-514.965
X586.83Y-520.61
X586.83Y-521.55
X586.83Y-537.365
X586.83Y-543.01
X586.83Y-543.95
X586.83Y-559.765
X586.83Y-565.41
X586.83Y-566.35
X586.83Y-582.165
X586.83Y-587.81
X586.83Y-588.75
X586.83Y-604.565
X586.83Y-610.21
X586.83Y-611.15
X586.83Y-626.965
X586.83Y-632.61
X586.83Y-633.55
X586.83Y-649.365
X586.83Y-655.01
X586.83Y-655.95
X596.77Y-223.28
X596.77Y-224.39
X596.77Y-228.94
X596.77Y-245.68
X596.77Y-246.79
X596.77Y-251.34
X596.77Y-268.08
X596.77Y-269.19
X596.77Y-273.74
X596.77Y-290.48
X596.77Y-291.59
X596.77Y-296.14
X596.77Y-312.88
X596.77Y-313.99
X596.77Y-318.54
X596.77Y-335.28
X596.77Y-336.39
X596.77Y-340.94
X596.77Y-357.68
X596.77Y-358.79
X596.77Y-363.34
X596.77Y-380.08
X596.77Y-381.19
X596.77Y-385.74
X596.77Y-402.48
X596.77Y-403.59
X596.77Y-408.14
X596.77Y-424.88
X596.77Y-425.99
X596.77Y-430.54
X596.77Y-447.28
X596.77Y-448.39
X596.77Y-452.94
X596.77Y-469.68
X596.77Y-470.79
X596.77Y-475.34
X596.77Y-492.08
X596.77Y-493.19
X596.77Y-497.74
X596.77Y-514.48
X596.77Y-515.59
X596.77Y-520.14
X596.77Y-536.88
X596.77Y-537.99
X596.77Y-542.54
X596.77Y-559.28
X596.77Y-560.39
X596.77Y-564.94
X596.77Y-581.68
X596.77Y-582.79
X596.77Y-587.34
X596.77Y-604.08
X596.77Y-605.19
X596.77Y-609.74
X596.77Y-626.48
X596.77Y-627.59
X596.77Y-632.14
X596.77Y-648.88
X596.77Y-649.99
X596.77Y-654.54
X598.03Y-210.2
X598.03Y-221.4
X598.03Y-223.835
X598.03Y-229.48
X598.03Y-230.42
X598.03Y-232.6
X598.03Y-243.8
X598.03Y-246.235
X598.03Y-251.88
X598.03Y-252.82
X598.03Y-255.0
X598.03Y-266.2
X598.03Y-268.635
X598.03Y-274.28
X598.03Y-275.22
X598.03Y-277.4
X598.03Y-288.6
X598.03Y-291.035
X598.03Y-296.68
X598.03Y-297.62
X598.03Y-299.8
X598.03Y-311.0
X598.03Y-313.435
X598.03Y-319.08
X598.03Y-320.02
X598.03Y-322.2
X598.03Y-333.4
X598.03Y-335.835
X598.03Y-341.48
X598.03Y-342.42
X598.03Y-344.6
X598.03Y-355.8
X598.03Y-358.235
X598.03Y-363.88
X598.03Y-364.82
X598.03Y-367.0
X598.03Y-378.2
X598.03Y-380.635
X598.03Y-386.28
X598.03Y-387.22
X598.03Y-389.4
X598.03Y-400.6
X598.03Y-403.035
X598.03Y-408.68
X598.03Y-409.62
X598.03Y-411.8
X598.03Y-423.0
X598.03Y-425.435
X598.03Y-431.08
X598.03Y-432.02
X598.03Y-434.2
X598.03Y-445.4
X598.03Y-447.835
X598.03Y-453.48
X598.03Y-454.42
X598.03Y-456.6
X598.03Y-467.8
X598.03Y-470.235
X598.03Y-475.88
X598.03Y-476.82
X598.03Y-479.0
X598.03Y-490.2
X598.03Y-492.635
X598.03Y-498.28
X598.03Y-499.22
X598.03Y-501.4
X598.03Y-512.6
X598.03Y-515.035
X598.03Y-520.68
X598.03Y-521.62
X598.03Y-523.8
X598.03Y-535.0
X598.03Y-537.435
X598.03Y-543.08
X598.03Y-544.02
X598.03Y-546.2
X598.03Y-557.4
X598.03Y-559.835
X598.03Y-565.48
X598.03Y-566.42
X598.03Y-568.6
X598.03Y-579.8
X598.03Y-582.235
X598.03Y-587.88
X598.03Y-588.82
X598.03Y-591.0
X598.03Y-602.2
X598.03Y-604.635
X598.03Y-610.28
X598.03Y-611.22
X598.03Y-613.4
X598.03Y-624.6
X598.03Y-627.035
X598.03Y-632.68
X598.03Y-633.62
X598.03Y-635.8
X598.03Y-647.0
X598.03Y-649.435
X598.03Y-655.08
X598.03Y-656.02
X598.03Y-658.2
X598.03Y-669.4
X598.645Y-210.98
X598.645Y-222.18
X598.645Y-233.38
X598.645Y-244.58
X598.645Y-255.78
X598.645Y-266.98
X598.645Y-278.18
X598.645Y-289.38
X598.645Y-300.58
X598.645Y-311.78
X598.645Y-322.98
X598.645Y-334.18
X598.645Y-345.38
X598.645Y-356.58
X598.645Y-367.78
X598.645Y-378.98
X598.645Y-390.18
X598.645Y-401.38
X598.645Y-412.58
X598.645Y-423.78
X598.645Y-434.98
X598.645Y-446.18
X598.645Y-457.38
X598.645Y-468.58
X598.645Y-479.78
X598.645Y-490.98
X598.645Y-502.18
X598.645Y-513.38
X598.645Y-524.58
X598.645Y-535.78
X598.645Y-546.98
X598.645Y-558.18
X598.645Y-569.38
X598.645Y-580.58
X598.645Y-591.78
X598.645Y-602.98
X598.645Y-614.18
X598.645Y-625.38
X598.645Y-636.58
X598.645Y-647.78
X598.645Y-658.98
X598.645Y-670.18
X607.2Y-208.7
X607.2Y-209.375
X607.355Y-220.22
X607.355Y-231.42
X607.355Y-242.62
X607.355Y-253.82
X607.355Y-265.02
X607.355Y-276.22
X607.355Y-287.42
X607.355Y-298.62
X607.355Y-309.82
X607.355Y-321.02
X607.355Y-332.22
X607.355Y-343.42
X607.355Y-354.62
X607.355Y-365.82
X607.355Y-377.02
X607.355Y-388.22
X607.355Y-399.42
X607.355Y-410.62
X607.355Y-421.82
X607.355Y-433.02
X607.355Y-444.22
X607.355Y-455.42
X607.355Y-466.62
X607.355Y-477.82
X607.355Y-489.02
X607.355Y-500.22
X607.355Y-511.42
X607.355Y-522.62
X607.355Y-533.82
X607.355Y-545.02
X607.355Y-556.22
X607.355Y-567.42
X607.355Y-578.62
X607.355Y-589.82
X607.355Y-601.02
X607.355Y-612.22
X607.355Y-623.42
X607.355Y-634.62
X607.355Y-645.82
X607.355Y-657.02
X607.355Y-668.22
X607.97Y-221.0
X607.97Y-223.21
X607.97Y-224.32
X607.97Y-228.87
X607.97Y-232.2
X607.97Y-243.4
X607.97Y-245.61
X607.97Y-246.72
X607.97Y-251.27
X607.97Y-254.6
X607.97Y-265.8
X607.97Y-268.01
X607.97Y-269.12
X607.97Y-273.67
X607.97Y-277.0
X607.97Y-288.2
X607.97Y-290.41
X607.97Y-291.52
X607.97Y-296.07
X607.97Y-299.4
X607.97Y-310.6
X607.97Y-312.81
X607.97Y-313.92
X607.97Y-318.47
X607.97Y-321.8
X607.97Y-333.0
X607.97Y-335.21
X607.97Y-336.32
X607.97Y-340.87
X607.97Y-344.2
X607.97Y-355.4
X607.97Y-357.61
X607.97Y-358.72
X607.97Y-363.27
X607.97Y-366.6
X607.97Y-377.8
X607.97Y-380.01
X607.97Y-381.12
X607.97Y-385.67
X607.97Y-389.0
X607.97Y-400.2
X607.97Y-402.41
X607.97Y-403.52
X607.97Y-408.07
X607.97Y-411.4
X607.97Y-422.6
X607.97Y-424.81
X607.97Y-425.92
X607.97Y-430.47
X607.97Y-433.8
X607.97Y-445.0
X607.97Y-447.21
X607.97Y-448.32
X607.97Y-452.87
X607.97Y-456.2
X607.97Y-467.4
X607.97Y-469.61
X607.97Y-470.72
X607.97Y-475.27
X607.97Y-478.6
X607.97Y-489.8
X607.97Y-492.01
X607.97Y-493.12
X607.97Y-497.67
X607.97Y-501.0
X607.97Y-512.2
X607.97Y-514.41
X607.97Y-515.52
X607.97Y-520.07
X607.97Y-523.4
X607.97Y-534.6
X607.97Y-536.81
X607.97Y-537.92
X607.97Y-542.47
X607.97Y-545.8
X607.97Y-557.0
X607.97Y-559.21
X607.97Y-560.32
X607.97Y-564.87
X607.97Y-568.2
X607.97Y-579.4
X607.97Y-581.61
X607.97Y-582.72
X607.97Y-587.27
X607.97Y-590.6
X607.97Y-601.8
X607.97Y-604.01
X607.97Y-605.12
X607.97Y-609.67
X607.97Y-613.0
X607.97Y-624.2
X607.97Y-626.41
X607.97Y-627.52
X607.97Y-632.07
X607.97Y-635.4
X607.97Y-646.6
X607.97Y-648.81
X607.97Y-649.92
X607.97Y-654.47
X607.97Y-657.8
X607.97Y-669.0
X609.23Y-223.765
X609.23Y-229.41
X609.23Y-230.35
X609.23Y-246.165
X609.23Y-251.81
X609.23Y-252.75
X609.23Y-268.565
X609.23Y-274.21
X609.23Y-275.15
X609.23Y-290.965
X609.23Y-296.61
X609.23Y-297.55
X609.23Y-313.365
X609.23Y-319.01
X609.23Y-319.95
X609.23Y-335.765
X609.23Y-341.41
X609.23Y-342.35
X609.23Y-358.165
X609.23Y-363.81
X609.23Y-364.75
X609.23Y-380.565
X609.23Y-386.21
X609.23Y-387.15
X609.23Y-402.965
X609.23Y-408.61
X609.23Y-409.55
X609.23Y-425.365
X609.23Y-431.01
X609.23Y-431.95
X609.23Y-447.765
X609.23Y-453.41
X609.23Y-454.35
X609.23Y-470.165
X609.23Y-475.81
X609.23Y-476.75
X609.23Y-492.565
X609.23Y-498.21
X609.23Y-499.15
X609.23Y-514.965
X609.23Y-520.61
X609.23Y-521.55
X609.23Y-537.365
X609.23Y-543.01
X609.23Y-543.95
X609.23Y-559.765
X609.23Y-565.41
X609.23Y-566.35
X609.23Y-582.165
X609.23Y-587.81
X609.23Y-588.75
X609.23Y-604.565
X609.23Y-610.21
X609.23Y-611.15
X609.23Y-626.965
X609.23Y-632.61
X609.23Y-633.55
X609.23Y-649.365
X609.23Y-655.01
X609.23Y-655.95
X619.17Y-223.28
X619.17Y-224.39
X619.17Y-228.94
X619.17Y-245.68
X619.17Y-246.79
X619.17Y-251.34
X619.17Y-268.08
X619.17Y-269.19
X619.17Y-273.74
X619.17Y-290.48
X619.17Y-291.59
X619.17Y-296.14
X619.17Y-312.88
X619.17Y-313.99
X619.17Y-318.54
X619.17Y-335.28
X619.17Y-336.39
X619.17Y-340.94
X619.17Y-357.68
X619.17Y-358.79
X619.17Y-363.34
X619.17Y-380.08
X619.17Y-381.19
X619.17Y-385.74
X619.17Y-402.48
X619.17Y-403.59
X619.17Y-408.14
X619.17Y-424.88
X619.17Y-425.99
X619.17Y-430.54
X619.17Y-447.28
X619.17Y-448.39
X619.17Y-452.94
X619.17Y-469.68
X619.17Y-470.79
X619.17Y-475.34
X619.17Y-492.08
X619.17Y-493.19
X619.17Y-497.74
X619.17Y-514.48
X619.17Y-515.59
X619.17Y-520.14
X619.17Y-536.88
X619.17Y-537.99
X619.17Y-542.54
X619.17Y-559.28
X619.17Y-560.39
X619.17Y-564.94
X619.17Y-581.68
X619.17Y-582.79
X619.17Y-587.34
X619.17Y-604.08
X619.17Y-605.19
X619.17Y-609.74
X619.17Y-626.48
X619.17Y-627.59
X619.17Y-632.14
X619.17Y-648.88
X619.17Y-649.99
X619.17Y-654.54
X620.43Y-210.2
X620.43Y-221.4
X620.43Y-223.835
X620.43Y-229.48
X620.43Y-230.42
X620.43Y-232.6
X620.43Y-243.8
X620.43Y-246.235
X620.43Y-251.88
X620.43Y-252.82
X620.43Y-255.0
X620.43Y-266.2
X620.43Y-268.635
X620.43Y-274.28
X620.43Y-275.22
X620.43Y-277.4
X620.43Y-288.6
X620.43Y-291.035
X620.43Y-296.68
X620.43Y-297.62
X620.43Y-299.8
X620.43Y-311.0
X620.43Y-313.435
X620.43Y-319.08
X620.43Y-320.02
X620.43Y-322.2
X620.43Y-333.4
X620.43Y-335.835
X620.43Y-341.48
X620.43Y-342.42
X620.43Y-344.6
X620.43Y-355.8
X620.43Y-358.235
X620.43Y-363.88
X620.43Y-364.82
X620.43Y-367.0
X620.43Y-378.2
X620.43Y-380.635
X620.43Y-386.28
X620.43Y-387.22
X620.43Y-389.4
X620.43Y-400.6
X620.43Y-403.035
X620.43Y-408.68
X620.43Y-409.62
X620.43Y-411.8
X620.43Y-423.0
X620.43Y-425.435
X620.43Y-431.08
X620.43Y-432.02
X620.43Y-434.2
X620.43Y-445.4
X620.43Y-447.835
X620.43Y-453.48
X620.43Y-454.42
X620.43Y-456.6
X620.43Y-467.8
X620.43Y-470.235
X620.43Y-475.88
X620.43Y-476.82
X620.43Y-479.0
X620.43Y-490.2
X620.43Y-492.635
X620.43Y-498.28
X620.43Y-499.22
X620.43Y-501.4
X620.43Y-512.6
X620.43Y-515.035
X620.43Y-520.68
X620.43Y-521.62
X620.43Y-523.8
X620.43Y-535.0
X620.43Y-537.435
X620.43Y-543.08
X620.43Y-544.02
X620.43Y-546.2
X620.43Y-557.4
X620.43Y-559.835
X620.43Y-565.48
X620.43Y-566.42
X620.43Y-568.6
X620.43Y-579.8
X620.43Y-582.235
X620.43Y-587.88
X620.43Y-588.82
X620.43Y-591.0
X620.43Y-602.2
X620.43Y-604.635
X620.43Y-610.28
X620.43Y-611.22
X620.43Y-613.4
X620.43Y-624.6
X620.43Y-627.035
X620.43Y-632.68
X620.43Y-633.62
X620.43Y-635.8
X620.43Y-647.0
X620.43Y-649.435
X620.43Y-655.08
X620.43Y-656.02
X620.43Y-658.2
X620.43Y-669.4
X621.045Y-210.98
X621.045Y-222.18
X621.045Y-233.38
X621.045Y-244.58
X621.045Y-255.78
X621.045Y-266.98
X621.045Y-278.18
X621.045Y-289.38
X621.045Y-300.58
X621.045Y-311.78
X621.045Y-322.98
X621.045Y-334.18
X621.045Y-345.38
X621.045Y-356.58
X621.045Y-367.78
X621.045Y-378.98
X621.045Y-390.18
X621.045Y-401.38
X621.045Y-412.58
X621.045Y-423.78
X621.045Y-434.98
X621.045Y-446.18
X621.045Y-457.38
X621.045Y-468.58
X621.045Y-479.78
X621.045Y-490.98
X621.045Y-502.18
X621.045Y-513.38
X621.045Y-524.58
X621.045Y-535.78
X621.045Y-546.98
X621.045Y-558.18
X621.045Y-569.38
X621.045Y-580.58
X621.045Y-591.78
X621.045Y-602.98
X621.045Y-614.18
X621.045Y-625.38
X621.045Y-636.58
X621.045Y-647.78
X621.045Y-658.98
T2
X407.0Y-673.0
X407.0Y-674.1
X407.1Y-202.6
X407.1Y-204.4
X407.1Y-206.1
X409.8Y-202.6
X409.8Y-204.4
X409.8Y-206.1
X409.8Y-673.0
X409.8Y-674.1
X412.9Y-202.6
X412.9Y-204.4
X412.9Y-206.1
X413.0Y-673.0
X413.0Y-674.1
X415.6Y-202.6
X415.6Y-204.4
X415.6Y-206.1
X415.7Y-673.0
X415.7Y-674.1
X418.6Y-202.7
X418.6Y-204.5
X418.6Y-206.2
X418.8Y-673.0
X418.8Y-674.1
X421.4Y-202.7
X421.4Y-204.5
X421.4Y-206.2
X421.5Y-673.0
X421.5Y-674.1
X424.6Y-202.685
X424.6Y-204.485
X424.6Y-206.185
X424.8Y-672.985
X424.8Y-674.085
X427.9Y-202.7
X427.9Y-204.5
X427.9Y-206.2
X428.0Y-673.0
X428.0Y-674.1
X430.6Y-202.7
X430.6Y-204.5
X430.6Y-206.2
X430.7Y-673.0
X430.7Y-674.1
X432.0Y-208.67
X432.3Y-670.085
X433.8Y-202.685
X433.8Y-204.485
X433.8Y-206.185
X433.8Y-208.67
X434.0Y-670.085
X434.0Y-672.985
X434.0Y-674.085
X435.5Y-208.67
X435.8Y-670.085
X437.051Y-202.685
X437.051Y-204.485
X437.051Y-206.185
X437.2Y-673.0
X437.2Y-674.1
X439.751Y-202.684
X439.751Y-204.484
X439.751Y-206.184
X439.9Y-673.0
X439.9Y-674.1
X443.0Y-202.685
X443.0Y-204.485
X443.0Y-206.185
X443.2Y-672.985
X443.2Y-674.085
X446.251Y-202.684
X446.251Y-204.484
X446.251Y-206.184
X446.4Y-673.0
X446.4Y-674.1
X449.0Y-202.7
X449.0Y-204.5
X449.0Y-206.2
X449.1Y-673.0
X449.1Y-674.1
X452.3Y-202.685
X452.3Y-204.485
X452.3Y-206.185
X452.4Y-672.985
X452.4Y-674.085
X454.0Y-208.685
X454.0Y-670.085
X455.5Y-202.7
X455.5Y-204.5
X455.5Y-206.2
X455.6Y-673.0
X455.6Y-674.1
X455.7Y-670.085
X455.8Y-208.685
X457.5Y-208.685
X457.5Y-670.085
X458.2Y-202.7
X458.2Y-204.5
X458.2Y-206.2
X458.3Y-673.0
X458.3Y-674.1
X461.4Y-202.685
X461.4Y-204.485
X461.4Y-206.185
X461.6Y-672.985
X461.6Y-674.085
X464.7Y-202.6
X464.7Y-204.4
X464.7Y-206.1
X464.8Y-673.0
X464.8Y-674.1
X467.4Y-202.7
X467.4Y-204.5
X467.4Y-206.2
X467.5Y-673.0
X467.5Y-674.1
X470.6Y-202.7
X470.6Y-204.5
X470.6Y-206.2
X470.7Y-673.0
X470.7Y-674.1
X473.85Y-202.684
X473.85Y-204.484
X473.85Y-206.184
X474.0Y-673.1
X474.0Y-674.2
X476.6Y-202.7
X476.6Y-204.5
X476.6Y-206.2
X476.7Y-673.1
X476.7Y-674.2
X479.8Y-202.7
X479.8Y-204.5
X479.8Y-206.2
X480.0Y-672.975
X480.0Y-674.075
X484.1Y-202.7
X484.1Y-204.5
X484.1Y-206.2
X484.1Y-673.0
X484.1Y-674.1
X486.751Y-202.684
X486.751Y-204.484
X486.751Y-206.184
X486.8Y-673.0
X486.8Y-674.1
X491.0Y-513.8
X491.0Y-525.1
X491.0Y-536.0
X491.0Y-547.3
X491.0Y-558.4
X491.0Y-569.7
X491.0Y-580.7
X491.0Y-592.0
X491.0Y-603.0
X491.0Y-614.3
X491.0Y-625.3
X491.0Y-636.6
X491.0Y-647.7
X491.0Y-659.0
X491.0Y-673.2
X491.0Y-674.2
X495.3Y-202.7
X495.3Y-204.5
X495.3Y-206.2
X495.4Y-673.0
X495.4Y-674.1
X497.951Y-202.684
X497.951Y-204.484
X497.951Y-206.184
X498.1Y-673.0
X498.1Y-674.1
X502.2Y-513.8
X502.2Y-525.1
X502.2Y-536.0
X502.2Y-547.3
X502.2Y-558.4
X502.2Y-569.7
X502.2Y-580.7
X502.2Y-592.0
X502.2Y-603.0
X502.2Y-614.3
X502.2Y-625.3
X502.2Y-636.6
X502.2Y-647.7
X502.2Y-659.0
X502.3Y-673.2
X502.3Y-674.2
X506.5Y-202.7
X506.5Y-204.5
X506.5Y-206.2
X506.6Y-673.0
X506.6Y-674.1
X509.151Y-202.684
X509.151Y-204.484
X509.151Y-206.184
X509.3Y-673.0
X509.3Y-674.1
X513.5Y-202.7
X513.5Y-204.5
X513.5Y-206.2
X513.6Y-673.0
X513.6Y-674.1
X517.8Y-202.7
X517.8Y-204.5
X517.8Y-206.2
X517.9Y-673.0
X517.9Y-674.1
X520.451Y-202.684
X520.451Y-204.484
X520.451Y-206.184
X520.6Y-673.0
X520.6Y-674.1
X524.6Y-673.1
X524.6Y-674.1
X524.9Y-513.8
X524.9Y-525.1
X524.9Y-536.0
X524.9Y-547.3
X524.9Y-558.4
X524.9Y-569.7
X524.9Y-580.7
X524.9Y-592.0
X524.9Y-603.0
X524.9Y-614.3
X524.9Y-625.3
X524.9Y-636.6
X524.9Y-647.7
X524.9Y-659.0
X528.8Y-202.7
X528.8Y-204.5
X528.8Y-206.2
X528.9Y-673.0
X528.9Y-674.1
X531.5Y-202.7
X531.5Y-204.5
X531.5Y-206.2
X531.6Y-673.0
X531.6Y-674.1
X535.8Y-673.1
X535.8Y-674.1
X536.1Y-513.8
X536.1Y-525.1
X536.1Y-536.0
X536.1Y-547.3
X536.1Y-558.4
X536.1Y-569.7
X536.1Y-580.7
X536.1Y-592.0
X536.1Y-603.0
X536.1Y-614.3
X536.1Y-625.3
X536.1Y-636.6
X536.1Y-647.7
X536.1Y-659.0
X540.1Y-202.7
X540.1Y-204.5
X540.1Y-206.2
X540.2Y-673.0
X540.2Y-674.1
X542.751Y-202.684
X542.751Y-204.484
X542.751Y-206.184
X542.9Y-673.0
X542.9Y-674.1
X547.0Y-202.7
X547.0Y-204.5
X547.0Y-206.2
X547.2Y-672.975
X547.2Y-674.075
X550.3Y-202.7
X550.3Y-204.5
X550.3Y-206.2
X550.4Y-672.9
X550.4Y-674.0
X552.95Y-202.684
X552.95Y-204.484
X552.95Y-206.184
X553.1Y-672.9
X553.1Y-674.0
X556.2Y-202.7
X556.2Y-204.5
X556.2Y-206.2
X556.4Y-673.0
X556.4Y-674.1
X559.5Y-202.7
X559.5Y-204.5
X559.5Y-206.2
X559.6Y-673.0
X559.6Y-674.1
X562.2Y-202.7
X562.2Y-204.5
X562.2Y-206.2
X562.3Y-673.0
X562.3Y-674.1
X565.4Y-202.785
X565.4Y-204.585
X565.4Y-206.285
X565.6Y-672.985
X565.6Y-674.085
X568.7Y-202.8
X568.7Y-204.6
X568.7Y-206.3
X568.8Y-673.0
X568.8Y-674.1
X569.4Y-208.67
X569.5Y-670.085
X571.2Y-208.67
X571.3Y-670.085
X571.4Y-202.7
X571.4Y-204.5
X571.4Y-206.2
X571.5Y-673.0
X571.5Y-674.1
X572.9Y-208.67
X573.0Y-670.085
X574.7Y-202.685
X574.7Y-204.485
X574.7Y-206.185
X574.8Y-672.985
X574.8Y-674.085
X577.9Y-202.7
X577.9Y-204.5
X577.9Y-206.2
X578.0Y-673.0
X578.0Y-674.1
X580.6Y-202.7
X580.6Y-204.5
X580.6Y-206.2
X580.7Y-673.0
X580.7Y-674.1
X583.8Y-202.685
X583.8Y-204.485
X583.8Y-206.185
X583.9Y-672.985
X583.9Y-674.085
X587.1Y-202.7
X587.1Y-204.5
X587.1Y-206.2
X587.2Y-673.0
X587.2Y-674.1
X589.8Y-202.7
X589.8Y-204.5
X589.8Y-206.2
X589.9Y-673.0
X589.9Y-674.1
X591.3Y-208.67
X591.5Y-670.085
X593.1Y-202.685
X593.1Y-204.485
X593.1Y-206.185
X593.1Y-208.67
X593.2Y-670.085
X593.2Y-672.985
X593.2Y-674.085
X594.8Y-208.67
X595.0Y-670.085
X596.3Y-202.7
X596.3Y-204.5
X596.3Y-206.2
X596.4Y-673.0
X596.4Y-674.1
X599.0Y-202.7
X599.0Y-204.5
X599.0Y-206.2
X599.1Y-673.0
X599.1Y-674.1
X602.2Y-202.785
X602.2Y-204.585
X602.2Y-206.285
X602.3Y-672.985
X602.3Y-674.085
X605.5Y-202.7
X605.5Y-204.5
X605.5Y-206.2
X605.6Y-673.0
X605.6Y-674.1
X608.2Y-202.7
X608.2Y-204.5
X608.2Y-206.2
X608.3Y-673.0
X608.3Y-674.1
X611.3Y-202.7
X611.3Y-204.5
X611.3Y-206.2
X611.3Y-673.0
X611.3Y-674.1
X613.9Y-202.7
X613.9Y-204.5
X613.9Y-206.2
X614.1Y-673.0
X614.1Y-674.1
X617.1Y-202.7
X617.1Y-204.5
X617.1Y-206.2
X617.2Y-673.0
X617.2Y-674.1
X619.7Y-202.7
X619.7Y-204.5
X619.7Y-206.2
X619.9Y-673.0
X619.9Y-674.1
T3
X412.7Y-383.6
X412.9Y-496.2
X423.9Y-383.6
X424.1Y-496.2
X435.1Y-383.6
X435.3Y-496.2
X446.3Y-383.6
X446.5Y-496.2
X457.5Y-383.6
X457.7Y-496.2
X468.7Y-383.6
X468.9Y-496.2
X479.9Y-383.6
X480.1Y-496.2
X491.0Y-506.9
X491.1Y-383.6
X491.3Y-496.2
X502.2Y-506.9
X502.3Y-383.6
X502.5Y-496.2
X524.6Y-383.6
X524.7Y-496.2
X524.7Y-506.9
X535.8Y-383.6
X535.9Y-496.2
X535.9Y-506.9
X547.0Y-383.6
X547.1Y-496.2
X558.2Y-383.6
X558.3Y-496.2
X569.4Y-383.6
X569.5Y-496.2
X580.6Y-383.6
X580.7Y-496.2
X591.8Y-383.6
X591.9Y-496.2
X603.0Y-383.6
X603.1Y-496.2
X614.2Y-383.6
X614.3Y-496.2
T0
M30
